<mxfile host="Electron" modified="2025-02-13T23:16:27.523Z" agent="Mozilla/5.0 (Windows NT 10.0; Win64; x64) AppleWebKit/537.36 (KHTML, like Gecko) draw.io/23.0.2 Chrome/120.0.6099.109 Electron/28.1.0 Safari/537.36" etag="sX36K68IUexOSaQ3lKHf" version="23.0.2" type="device">
  <diagram name="Page-1" id="Yt7wKrISa2jCG7NWiExA">
    <mxGraphModel dx="1593" dy="929" grid="1" gridSize="10" guides="1" tooltips="1" connect="1" arrows="1" fold="1" page="1" pageScale="1" pageWidth="850" pageHeight="1100" math="0" shadow="0">
      <root>
        <mxCell id="0" />
        <mxCell id="1" parent="0" />
        <mxCell id="1RJ3AyyWOOnDJuZFzNRy-5" value="&lt;ol&gt;&lt;li&gt;Ability to change the system prompts&amp;nbsp;&lt;br&gt;&lt;/li&gt;&lt;li&gt;Posibility to skip current processing message&amp;nbsp;&lt;/li&gt;&lt;li&gt;Posibility to delete all history messages by clicking on button&lt;/li&gt;&lt;li&gt;Posibilty to view messages history&amp;nbsp;&lt;/li&gt;&lt;li&gt;Button to connect in discord voice chat&lt;/li&gt;&lt;/ol&gt;" style="text;strokeColor=none;fillColor=none;html=1;whiteSpace=wrap;verticalAlign=middle;overflow=hidden;" vertex="1" parent="1">
          <mxGeometry x="82.5" y="940" width="365" height="130" as="geometry" />
        </mxCell>
        <mxCell id="1RJ3AyyWOOnDJuZFzNRy-6" value="" style="whiteSpace=wrap;html=1;aspect=fixed;" vertex="1" parent="1">
          <mxGeometry x="100" y="310" width="610" height="610" as="geometry" />
        </mxCell>
        <mxCell id="1RJ3AyyWOOnDJuZFzNRy-8" value="" style="shape=image;verticalLabelPosition=bottom;labelBackgroundColor=default;verticalAlign=top;aspect=fixed;imageAspect=0;image=data:image/png,iVBORw0KGgoAAAANSUhEUgAAAHgAAAB4CAYAAAA5ZDbSAAAAAXNSR0IArs4c6QAAAARnQU1BAACxjwv8YQUAAAAJcEhZcwAADsMAAA7DAcdvqGQAAHxDSURBVHhe7f0HvK1nXecN/9a6V1+7l9P36TWnJCc56b0YiDC0BwVBBBlQUVREEURQZLDPjNieEdBxEBkHRSBApISQHtJzSk7N6b3svvfq7f3+rrV3zkkICvq+8z7PfLz2WWfd6y5X+dff/2p3TFKLz7+n/0NTfOb739P/phTjbza1j8///v9F+ncN/j88/cAMjinF/xc+MpvFhVn52J9m+PXCa/9SinFndeb439O/NcV+9ud+tnXvt+/RjTfdpp07ntLa9Rdr/+6d2rnvkGrFCY1NTs/cKkXq0sv0uJLKh98t/ha9/C7NX3FOT33qDWpVs4r3ntWCdcd07JFLYVUMFtfVtfqQpvet4gkzz4xuMzu/cp8K+1dz9rynKOmMvqmrOKrrpltu09pVS7Vt515t3nSR7v7m/brl1mv1V3/5P1RvNLTp0ktVmphUq1XV/oNH2xlckOLxhN7+jnfoyIG9uvuee8O5G2/PKZOMaWyqoQVzEvrS59vtW7U+pWuuyegzfzmpVRvS2rujEs53dMf142/v1Bf/rqBXv6FDd32+oBMnauHabJrTP6AlK5cplczwC/GsVPTEE09oy2WXKZlM6tSpU0HGG42mElGkWCLSxOio1l60nnMN1eo1PfXEk7qM+5966qmQ54Z1F2lkbFSnz5xRZ2cnz8c0OTERrjl19W1UqXhMtfJ4+J1MdyudmacokaHdSdWaY9DmlOJ7nt2mTes36Fv3PKhUvKXPfuazWrBwka6/4VoVS+Xw8GwyI/Kap6zm8JmrHN/HH7pS9ZFl6ppX1HXvvkvR1Bz1rxpRJt/S9e/5kgZXn9UrPvyPyqQjXf6uO7X46r2av+6Mll51ULf92j9q/pIaeQ2G/Nr5DpoWIT384AOqlOt64tFHdebcpG664Upt3XFQKxfPD9c3X3qVPvrR39BNN96on//5n9XcufO0bMmQLlq7NlyPR0ldfuUWCF4Kv52WLE+odzCudetSSnfENbQspU6+L78+rZPDTS1cmNQrXptVIhXT6nUZbbkho0cfKuon392r7U+WdOX12ZmczqdF0OviDevVOzCojlwOJVkfzl98ycVauXylbvuh27RsxSpdsnGz5i6crzOnT2v54sXK5vOa09en5avWhPuXLV+u1StX6tYfulnxZEI33HRDOL906VJde/XVuv6663TJZZsVi6eU71+mfM+KcN2pb95VyuQWanDZTYqnupXvWK7u3o2Kv+KVd+jxJx9FAiINzpmvlWs2auvTj6kzl9Eb3vhjM49/rxRXVO9VrNajpS9/ROlVT2hgYUnNZkJzrt2q5NDTmrd0XNvu2STNO6QFlz6lOeuOaNXbP6PqcL/2fHuTRo63rcFLpXq9rgVLFqMUSD7CV6zUVK3VsCRtjS9MjejPPvk/MC0pzV+wTOuWD+lHfvRt6upIh+v1WknveffPa/7Q0vDbqdWwJvHdamEFYkKhrBzBtlRrLZXQ7MNHG0HIogT/x5sqlVvc11Sl0uLeWbdzPqXR0mf37NOpE0fJu6UkGupkTV67Ccb39qlvzhwYe1bdXV3q7OnV1md3amx0ROVqTfmM3Z7UCcOvuPRyzUdglixZom40d+PmS7VowQJdfcM1WrVmpaYLBcVjCZWmj2rOvBt5qq0OlcpZ6phWpXpGzXpRyVSn4tQj/tnPfFpnh6d1+603qQpBVy5fqN3PHYVmeTKeEx4+n0wGN7DJdyN8Yq2Y6uWsxo/M19SBZRor1LR8y15NH+9TfXJQRx9br/z8Y1q86Yymx3p0Yuc8jexYrbkbTvBsShvfdO9MXvWZ7/O++tYferkyiTgNWQjxDuns6JRe/9qXa2TGVNUgzvZt27RwaEjNBq6gs4MGTuiJp7eH6zbR7/vArymLNsymrjmRlgwllMqjxWsQxEVoA8eFQkw/dFtWRYxWDQgQYcaXLE/rzImW3oyJ3vFMTf/Xj3dq/Nx3M3h0ckLHDh4KJndgoF+PPPxwON8JM+/HNTz0yMPKRnFdcc3lWrBoSIP9/dB2oVavXqc89zz+yHfC/blcXj0Iw+kTp9DkVZqYLqparei5Qwd0cO8+BC6lIwcPI0Rl9fRtUaN13n02EObC1EGVh0fIE82ORZj+Al9RhDC3FM/E0bwXVd6izbXnac5Dva2rkKB4YESQHa41+TPr6/GyEs2MGrGKolaW71L4bsaq6FyC32XFYepsqOBs20dtBsQ40YjVNI6f99WYy/eR6zCTYnHKnq2nL4dMcB58Wgjb0mWLdQhiz6YL8/Cf77swPZ81p+N8QtbP58sHd2t74ftoto2Jms6rSV5r8Y0LMdnHy4r1p9TaOYk9zUkDaCSa3HpwWPGrBzA19tnUry/J9/dKswVemM6f6+rq1OTk1AvOvTC5gpx/dkrN0+ddUmAwmq2uQ2s0kuvi1HnAkzhcUWNJWokjVdUXUDlMVopz5RVZVzf8ZfZXMXtxmNNUDYlPHQCcACbMcuAEuWD65tP4rvYTrlz7bPv/dnkvYtjzB/6e/XXh/+EmEnnN3HbhufBs+PJ/JG5K7a8pPlpXfWlK8VIdjfc1ammuwQw/04RXjf60kqdqauUQyDlJpX5yUtWvPBuycYo6uHNVWrUnMYN/faUabxtS/FPHFH/5HDXf/KhiH16v5m3giGqT57+kxIFXKr59EuGJVL2xlxxm6zmbZuob0kx9Q/p+zzn5fPtc/O1PqnU35joVKbOuzwqBc6ON2a+v5raMqgOwpRuzuximYOJSWwtKtGBguaFmZ4SEN9TIRGqs9PWY0k8UJX5HdYqByS1MkT1Qsw4zzDt+2O9Rihr2aXzHyMMVipKR6qhM3L+jBBYAPYfXLVxFK4rhd7leq3OdhzDVLTKMuNXi43JiPNuqN3mUZyPKs1a5HJ6NuN4gHzM5lIPWxSG6OF+fE1f8ZE2VS+2rZ4lFeafKik5yH2XFKccOI/pITaW7dszcg9m9iLx+dbEKP3FA0fJORXvuUPx3d6uFBYwNU947Fyt+37CqCFXiTE3Nn14uveZh1XaDdtMmiJlxYXL5s+cuZNz3e87pfJ6t8bqiTELZJV2KVve0NTiGcuYOrtF0Xy/0gKBTVO4sND1ZV2mzoT8g53BVzcUQEvODFVXE7/gEoGcLIg3dYghBvIQ2A0JircDiUGC7MmZogmq4ItbtmQrGDC7MBK7bxEKU8Gz4PaPZoe4+9qFxvP1/+/dsGe1wrP0d2MKz7dDLz1OqT/scAuHz8cNltdDO9FabTnKlXMQMK4XfWpLkHhfqOqPBby2pcufWdj2oY+/muKpvnqepX0JrB0DbJ16l6IM71CQ/TTcUf+tiRV85o1KsoSRa23jTIrVe+x3VH4Kg/5tS1JlUz42LVBrHdZBaMSQ+879WIPVZVRdTUSQtVoQ48DYGcmzMyygxBvI4hnm+Ja84qLKFiYuPlTHheaW2w1i0J5aHkvAnDkVbmGlQDgXYtyM0EKhpdAnBY5jEJicSoM862hsjL2ihBog10URTgblNnktQL1sC7GnQWDM4sm+jEdZwuwWctqUUrYV5TZ/jOmoe51yz1haGBJajzrPIrp8M8oLCYx1soikfC+Ay4whXgwsWjyAbMDk2Cj0OgqDfTnxK3j0bEqq9e6GmfurQDIP/g+pzv6jE9pcr9qlDisHgxAUMrsPgaMekKre04/D/HSmGBcos7FRlpDijwWCc7J6LVOrqoA0QyObGjYcgjd6EEgcrwTy3QJvJQ0VVNnVgsn0fMn6sqgaMjcwYSNNEG+Jos4lhO2emBJrCdDM1MIlrvi8GAQIq972mKb+dj38HSxCqiyYRdoUsYVPUSvAEz3C1fd2JvIPl4ChYAq44f5twczNUgSMEwOf9ZYELB5w3ugrXERhrctB218nlkFfyRBfm/J5QXs/FcZV+bUjFHzkYGJxEg2tzvqDEjjtg8MHvYrA1WD+3VbW/P8LT7bRWbwh9CKf1lK7RB/SwflvztEUrdLv26Svarr/ULfq4jukBXay3gvPK+qrerpfpT/WgfktTOqK0etWtlaFOUzpJfnO5a0RE9ZrUQSiF6yTFA0I1jbdVYVZdydMNpQ6Cfqch4GRL2bsnFY2gWWcbSh+C0X1o8/4Kml0HQNRUH8pxLxlh1qMpzhFuJKd9jEZM4dcKPoZ40/jKAoaaa3HyjU82lQTsxXk2miJ/yktyT6LAc9PoG+YuQR3jk1gK58vv2XwjwGQCCxM5z0nuc76U6/xDOeSZ4ndsptwU+SSKmGaOXZ7vT/KJuY4uk7Ij14n6RkUsi+vofFwv8okX26a81Q2oRtDjZ8387z/FOrACF6Q+GDNHG9QBU+ZrM0xKableDkuGVYFdTot1NQa0n7/V3DePMy0t083cSSVIPVoFKxcprwUIzJs5Xsz1V3LmFu7A788kxJX/Ui3lrouptgg7iVTXB1Nq9GCgBiOVbu9W5eKkqquSoEzM0yL88Er8FACoNRBX/r5poVRQDQ3mYwVs+DdxpE2/TauvGdw0baH5hGvEpgHIGnhhun3eIMz3uCsv7vsdt/CsfzdtrjG7LsPPBJM9++1qO1/usWm2+a5jPWJJP4tvxey28yW/cC8AjG+DKeffANn5Ppt6A8dwb8i3fez7OaP+vxhS9dPXqfwHSMdLJayU/16QsACxtyyc+TGbzt8zqv1o3jCM3qSv6ae1V58L5y1C0zqho3qEO76MDrp//nz+w9qB1vbzGcTGFfnug5nwhmPENNzj5JoTJNPuv0OjtuNTB8hiAkk/ywefm9yHo06mlDyOX+xCGxxu1BKKn6iBOOuqzsMUQpxmAgnnE0vW+M29Jg6MtvlvJjHVnPOxidxKEKbgJ/27ZeLzG6gOcyA0TGn4+SS/+Vh4mjAgnvQ17ue4LVCQIJTp3y7X3yD8iBCH77iFhfMWNtwQDHM5fv58PRozzxMsUB7mmXrEnBefputgpidB9B3U/9Zu1YsZJXeOKLa2TcAW8W3zfdvUcoTxW8+q+Y3Tqv/2LlW/cEL64kk1vnhcrQ8/q8afHwz3v1TqRe/6tC4wdBlGeDla6DQrAu3v9v+BWTOJoBTD/CgszaP17mfIIxCn1aWlXMFMzaTwjBtYe22kytW54HNjJWx2B9I8F63twXTeM65GB8SAMjbpiQdH0d6Eqmu53tfuFsR5BmZhRBEYzKgRJR+XFcyiy8T0CRMc2dRiumM2wShDNI3GFiEiv2Oct8mM+14+sWByyZtzAaWSj/P2tWBGw/PUl+9wzXkWERi+baptbhXy5v5C+/5WoRrybZts50t9/KHsFvfEQp58uC9O3RrpklJ/tlr13X1Kf+RZpX8i124zOKXx0BnF5mYDM+tNGP61M6oVQel7p1S774zq/22/6p8/1r7/BanNtBQGOAubrZmLdC3suTmc/+7U0nFtRUPb4wPGIyPayZk/0R59Cn3+cx3Q38PyD2uCo9lkUfxIDLOUv7SLeN8dFSBiTHZUosgCvs9dd+uzoGQk332xEA7F4iSMGIXw/DlsUpVvEG+8Zg01OEsi+cgPtGgCzvyRPzmQ5exvX8thCsM3VcEF+LiRI9ccBMhDXABc+1ny5Z6QF98GfI08msZ9Tfs4f4cP13JUIMuz/G6Qv/g0+e08W6E8hDLUC8Bm5B/yaucbBsr4DuX63nDe9QVPPJZS4rljhItozd0Tivozivb9cPCxod/6G9cHbKG/u1IJrGDjgZcOjYZ0ffCvY3oOjVumZ/QXeOQf1zkYZkYf1t26RO8ESt2PAQb8YpCPA8X2YL5tztN44B6t0QBmPQ4L55HfFE+13O32ohQ36nSIErsipfoyGjyUogE5VeZBzLkpVQeTSpyuhbi4lYbwS1OqLU4FRBqNYxLxybESWS/j/FK02mMDXZHSR2pKHQG0HedztBKOo+Pkg9lPc5w6WlXqJG4BUx+uc190EqB3oq70MYATv1MnAHZHy+H+JM/6+cwRQOBRnjnOM0eb4Vr6mK/xG5CYMVA8Tj64jxT3p/kkTwLQyDt9lGvO+wR5kn/6sPOoUpbzrJK36+e8yMfl8DtJHXzO7YmXcWE1BAbrFoj3q2ukvzqg2GvmKb40r9jWSTW/fSbQpfaJveGel0rWj1V6BbK0OIAsA6QjIOYN+jE9rU+0b/quFOlH9Q0YuxqmGpS9ChldwFEPoGoRfvh89+SFKaDo0K/wOA3+1rRy35pS/oFpZR6eUvahAp8pNbqQ9vmESybm3VMgTuJCQFfpEsKEvVXViZ3jR8pKPgcB9xPzQsjSmkjl1XxWIiSr0iqvAaCtwA2sTKi0OqHyqpRKy2KqLk9xnFF5RRIBkSrLCUMAcVWeK3Fcdjk8W1nh5xMqkmeJT8V5rSKvNdy3Mq7acu4h7+JKX0uqvKwV8izzTBnBrS2lLqtcnwhh9H08R77l1Unuj5FXSsU1Lhch5ZlQx9XUezn3c92/W7kcgBTvt7htXluA0dgw5r4zha3FX2PFhD92nN+a+m5tmk21wAw0nQ+UCn6yqDP83+LXOb7JhmDHwKrGFd/vErtA3QSqnG8EdD0H7bYPjmA1Ti089+IUuirjWLjeBy/SJHFwfC/OB4TcXMTJNLhsHKDSASpdgsklhowOl2lLUvU6/rDJbwLUWl9K0YGiSjdlQL7EsmNI/CH8IKY/RsAZBrqx23ULPvGhOyvwdIrSaH0DgeC3gQ+kobI0hbxDRwjlNByPu6uS6vir3VU5Y3XcNeoOF8xjDVAXuXMFgTU4SgAsGuTj0QGj5QaxbbyKL8ZiGQAmcTkGl5wmL9rWBGBRgNG1ieU42d2yHlUCNipOc1LHaPfoMBdiKrxjnxL/43LFsQz6pdWK/d5u1X9zrZIf2q/ax1Yp+vXdqv7u+T7sC1O7lbiMmRbbn/qsj9to2b9oMNchIh87QuiNvhpcGS13Y6JrGOa5RMqjOoTf3ce19iSFC1NgsBvZ+9/XqYim1Wlkqz8ZTGu9l2wvyoEwyfKRCcXxwdUbUWeIYDMTOgPgR/JgXbUhNNzxsUd7cHH1JQZfrqC5aml1Jc0aV9wNCpQNDAiZ+Lo7J4h52vf5vBvnPOC+Oy/CvS7Z5518zLnn8yEFaG7O4W/dO8K9HsN1P7l71VwLd4jMptCOULz/88ea5zqY4M6bZ0L442Pf11T2v42p+PN7YPAVRBMQ9b2rJRjcetMS6T3bFfvc5Wpc+W013P/8/+cUGBxhYbofX6vS/iiYTKPSWi9EA1x4fDuW5riMeR6ra3pLhzq3Y5ZrmI8e4mFMUrw3q+hUQcXL2p0eXc9yDU0lPoH21mDAFz8d51oz3MPUjINoU/j9cA0dCYMNBnAAGo9GwQVrYbNmzYKuPGuiRwigoZ3zDr7FhoJrdTL2ffgcyrEGo7U1QiaYlbAW+hFrtFnFswmebRgYwrSg4TzrvN1VCZwKAyAN8opjxRpmsCMDYvdyd0upb0yp8K49Sv7KOumqPsU29Sj2FwfUfN1CNX9uqxLful7V+XcqumNBsERBMF6cLFmz6aWu/38pPW+i5356ncbmAagIFptnSphdfM58GtaF+XIIgiSX14EWn5lQ8+JeteIAmYPExQCeBqCjsgGEuaOgVifEXtvhrGc+UO4FGveDJudx4XPOD+Z+1zkPXPjbnx8kzdYRzQ/WYvbY+bvebfPZTrT3SEXJr0+r8DN7Qldl/Axx66eOKHY/PvTdq2DwM0rcDYOXfkWJkdcQYs0++69JrsO/5Xme9mBDAint+fJKTawgzhvHpWeQUlBk9eKs0ufqqtrfAiLqCzBX+NXcMfxurq7WBASZA6IececHmmGT7Q4O4qiEw6zIvUOQDfVoEV/Hz3B/qm3umqhO5E4NtNnqE/fQIPcnMIFhgGFGg8NwIfm23Mvkc/hcPGkoJwwsoJpx8rH2GxOYHB4utAbX62GIQfUuLEeRK1lf5YzDP7RyVoNjaDguOPSRt30wf1SrhZbHUx5q5Jr/o5xqZ0sZGDz17l2KE47Ff2WtWk+PSYcLRCL9at51UtFPLFX9j/cqet+60LniUu0a2kf/+1JobdBghL/3cys0vqhT6QlOT1ZUXZuhVgCmcwTv3UaQAALMpwcBqiuzhBZVxU8RUoAgS2tnJR6TXOXcGfz3kH2tNcDFEA6533pZGgGxhvhef/u6Pz5u39f+PUsMfzv5vMtwuvCc73WyRtt3zj47m6dTi1AHl7MQ60SIZiBjvNBOs/f4eWuvk5912U6zGm3r0L6eIIxLfW1axXfuCr//n57aPhhe9u5bpelKj6LnIEIn4cUCtIU41QRqzE0ohfZNX51R5hn8Wh4yTIQranZBrBIERNuz28oBKccKxI4QyVoXR+NrBTS8ipaiHs0BSAytwogOvr2NxnkG7a1zb9JaVHe53Gff6Oes5Qn3KKFZ+PYmaDhqetwWXa5zH+XU3IsW+V4waYbwHz5Zn93fHUfLW5MwhvxaaLb7uJPcX/MQIXGt+7pBl2gtz+LPjXF9XI0RB3dk1Sw59OG662DL88C4pt+zR/1zrleqt9dzfZXMd+n0ga9p/vLXBGzRAFcc2fVXWrrmpzQxsU3dvZfozImvUm6fch1D1KOuiTO7tGjNj2jk1EPqmXOpzp74Nmi9pc7+jRzfrXq1PfDwb0ltBqNsPQ9u0nQ+rfgojcIsVxZDoa60YifRxi5M8sUJRdsramzIKHGOBkPz6BBauQKg1I+p2o3/JX6NTgOC+iAEJrkt/ZCZWDHCMjQXpdVMo2FGrEFJZjXOH5+Y/fZzTrOa6LwAYihp4gwm3D1Pnv0SrvtjPwmKP0195nF0mlxcjPNzUQBB5YmzB2efoU5cip+uqzHflma2XH9mED7HkWdk4IJstc5fxxrdPa3a7ds1d+HLVKmNqWdwkzLZbh3b9yUNLLxeHT1Yw/HtOrH7H9Q350p1DaxXpmuR9j3x++qdd7lyuSUId1ZHd35G81e/Wj2dGzRd3Kmp8SMIHCi9Z6lOHf4qILFIed9/SqzvkZbkVP+nkzNnqLEZbD/U+eR6NXbUVb6sS6kDhdCNFzS1CmOQttraLiXsZ4hnk9aECj6Y5xp5pB9fVneYhJZbO+JTmG9UuWWAwW+V0coFXCekaOHvrMENaBiliFXtN5H2OCi6Zs2CltbUVgk/+TyKJg/KqcU4N0V9PJiAcw8+2N2jCY9M4efN+PEKmg9KThFD15EI3Ewzi5Y+R92X5KkXAoK8JFDxGs/ES9SNOkSUHdGguq2AgQP3IS6KdyDkloYiVsN15JnEA5MqvGef+ufegJYV1L/wco2deVrV8oQGhq5VOt2t0eFtGj72bfUNXqlUflDZvuU6/MyfK92xQCvWvCt0m+5+6KOau+xlWrz0NTq8/29Vq5WCtXGUECPsGD3jyYfff0pcNaDY6k7V/ubQzJlZBtPgvm+u1+RibPUkTAJ0RYRwrSzUhpnNbqQcU1lbHsfMWptg4CGuWfDxz/U5kdL7IUcHFSNMagFEmgMQpkIoNIZpwyLYhzVW5sjT2mF/hpC4IRyd1yAnBGQEzRq0X4TRSF/cMUwTALa/oMZC/DihlewabKJNfBB+DKwQZnQgCO5X9nTeFubccXXsHBYE5jQJ7eoLctxnCwRDD3nqDgKA1siDJghMux7+RnBcb49F2i0MujzXHQZ/q6DqyzG7fZuV7upXZXpY5emT6p1/RTA4XnHQ2btOx/d9TpncfNxPpN7BKzQ28iguJIOGLlKtPKlUpkfT4weVzPZgwteHYt3pUStPITiTGjndnn77/abMn16u8nufDOMEsymg6CTocvE/rNfpUfzuVAOzm5OGy9KGDjXAFw20JMLMhW5N/GbKRAVlN6cqKvxYv9L7Kmgt4GoMojq8qlSRUEwb/jU6a7RdU3phhwpD5EMZEb6vgS9MJNFKULP9juPlOpKWQpuaZ4mjFxJ2VajgGGV1UlOQObRTqwqZPZ2IOD34TKxD3IPwU9SNmDPegSmGIWaHY+AWsbA11toZH20GTW/2pPCF5GH0fwJhW5dXzX6d5+sg8Hboyn1G/6D7RBoLYTSP1hvBR/ejwb+4z/T7V6c4wCeZ7gvy5PGARrNE+VkwxzQWCTNbm0IoU2o2PR2Ketf/eXOd2NCr+DUDqn7yuZkz7fS8D+79hzWaWJZHw4BHmFgPcscBTyZY6SKjSIgHz2fHbpM7MG0rMNfPTKt6KabPWoDdjaNJrU60pQuij8NcP+qhuxNo+Ep+dKMRBk02RB7ghWTtHjGEgz/0KnzHJ7gHIVCWX0ZMNsFoqgckmiB0d1y5L0UIZMzThbrR2qm6kiWEpgPho5wIl9GYyzOEqO3JgNyfRAAJf5p94IXDJcX4dpzf6KJsjza52zRosbWVMiZwKwnqiXVqZmxVaPvdU/jg8zMt/zWpa2CTuvrX4U461dm9TF3dy3Xy6N3KZ5aAWc+qNH4GsLVCyWReE2NbdXzPF2aefOmUesuK0HPWeHJk5kw7RUhPGC7MXjdH8V1w8CxSjeQ6HEjkQKonYcxym6+YMvvxb2hXdivX0brcNybUQstjmPMUoUjq8UKYCiO0IUHcmTheURJTbpScnwS14mBTRpyAm/h4TGm0LoYJT4w2lASVxyZjSqGxiWdB8tA44X5ejwwhIAmeTx6pKXOIZ/cg7dyQ4Nn46YoS4ITEIQM5fPOOktK7KlgCBMXxNYAwCXr3VJzcNyZhG/fiAlIuu9JQ+gnwhn10R0oZQjlPEYqoQ3KEZ0eqlMFvjzB56hB0anRAtIMIyGdAcv+GlMkuUCY/T6XCKXX3X6TpieMaH35cvb2XqVQZVld+vVKdHYqqGY2PblVx8vDMky+dUu9areqnXqi9Tm0NRrG67lmuscVAUwJ7hzQxCNPKoDU03N4Sa6gYfq9Vhkmj8BBIa9BSJz6Oj/tetLeC+TIyxQcG7fNMiNNcRxhSh2thmLHJx5P5Qr8zGokhbGsWDDOWigyK4hB62miZuoxQ9jysCnm4ZzLM9LRP9rg3CtWyubZfB7x5zFoem4XRBnFmZnyc53tpgU10kvKOTSs2353lWAkEM0xKmESIQf4tYxCbTHdl02YPskRYEluOJtY0cQgzPlxX9EhBhV/aY/r9q1MXoVDv3MsVJT0wXYGpZ5XLLsZ15HAjDRXGDivXPU/1UhHf/bQmzm2defJ8SuFOfmJFVp/ZX1LrdYtV/fz5iX2zCeVtd3Qs/NQalWr4LxBsHbNW78BHohmeDlu4Ma8EyDoCXbZAkx6njUHgCiFSs5fjGn4ZMxgbReNSPN8NMwhLEoRROoUGDqRU2wTA2jqpxhU41CJ+BUfntTaeNmuTbe2wW0g4kL5vTM2N3L9tWollHYFBsX6sCc+nDtRVeGO/omlcgWeR4Fc9S8NWyDFudA6r0Ut5ML6yGudrX88X/FQChiaPVAPoKqap95WdtvxKEr+nCDmLt1MW0YGfcX+5oWGYLA/uiAE8m6MV1Td1KvuJsyq+q83gmKMNzyCxkP5AiTKM1oM7gAZByP3bUmyBpH42Y6QwMTIgkBemLoT6wZfP1w1fP6sG90+7kS9KbQ3OxNR33ypNpHPBXNnnRUfK+FjiYiTfoUdjTRZzRWGezHYcM+lOiPkAhZMVVeejLgCRGKZZaLIKEJtQxsdJ+2FiVyOX5iCSZM0lf365HUGzjHh9PQAYGmxUHj8D0dyZxn3uZgzzvgA61DiQJIRO7q4sYDHmEofD6CbxegNfbCbW0UaDMVsCl+PbEwDB+twMWog1WZjkGlqMTJqVMY4D2PFEB88IIdkdNQcpr4Tr2FdVdZn7ApCEAn7+jvYCt/yHN6n0x7vUnLQ4UC+sRNcV80OZEw+d1IrWq5TWoA7oH8PgvEvr1TpKJBLh13F9Ozz3r01X6N16Vn+v37yqpodPlbWXMHJjf0IjhJlHwFIWmY/4xtxPzlf8yVroSHB44PWpcQ//zaXBqzsCgoyhNfFhGgu6NfGiMViCyfUQZuc/4d/wo3GYEo1glsMsCgh3GhPsMWSHK5QTg+khtOFfhKaYwZ7YHq5RnQS+M/ONKUw+VmEHAIezSftLXEW0taD8NwmVlqRB9TzgGSa0IDpQVqIQVwrrEt9eUuZgU5mdRfhPLGyfaaFwOfxLYV6zjxbVQhjimNtYljK3FpXdA8FB+815IGx8e5hcOAFoO2VfjJAOACjPYjFwGxHMrP9tezpO8qa5qj92jsihrWHus8+/baVSqawKz5zRYOtijWlvmCfVrVW0MK3Fuj2shz6lByDd+UXdP2japHcSLfTrGEJyG1HHHrDDir6ccqmUBjIwGYwBjeMfiaPqqZ/u0eT1/aoPQPuVwPXemCqX5UGOgJIDFWWfgaJ5TOogmjY/qTrEdWxYnYdvq8dUXcU1pL91uqrKxqxamFWDM/dhtzBjDfdDe84zzIW0MJVvo986BOR5AzEvCHNXYw207Ul+9YUIBYLlfu0YzKsvyqhyTQbmY8570CZroLs/PSGB/JstI3XqjtbV1mVVW8A9DrP4V3VemLDG4rRqK0DO9bqaaHONtnhyQ3UFWunFc3vRWqxFZWM6LGWpk4fb6/ln1SXci3ZkPz2qykPtsd42g4cJ39oMtqXJbe4HjzRVePosQYBnYSTCnKm8hsL0mk6+Mxwd1/1oslHpD5qsDpHW6000rayjule3DWV1GCCaIfRM27Jx5YTnl5OIAjBrd12kKAUBc1QUU9SamfBdRzIiS67DFMxfai8PgWKrm/FfSTTP47T47dRZjgFSXgGRwrRVAC7RAIIAwWO7JlEd4mKvUBzCP/ageTA68qwLu42WK2KD5YoDyO5BwyCu49z4LjRrSUqVyzsVPY4PPo7pp7zq6jRChSlFKAzsYqDk1ASajpWpL0wrMQzSJd4uXpsjnkSDiQ7CfGdsdRzUnsCv1vBb9QUwlVg9PsYHGS6v53qZGwFnXmpaXYBpJ3Y3Lsk+hv+mbfV8TKUffVZxT7o7/Eq1Sh53huSPTaj22geU3zCgGi6t8rkjWqqXa1g7NY2eLdC1gTGeiZFG89wtelz38f2DJU+2e4Pu1KP6M23TJ8hlWj+6NK0V3Undf7qmAaxShbbn4M3zcXBu10UqZrrQAhjVkQUood6ECWAXMqBaRqvWPO5NEjJYg+uLMOO4pGYHUrMH04l0GyhxFW2xL+MR96qQSYKwIwKZ26+aQfaJdgMNz7Rw7OmJAZ7uwy113IIo24MVTdyWCewZnf5rJG2u0UxrPA2pYSlM3bg7RUYqShP7eizbPVcNBDAab6q8Fn/rvnAE1AG0y/MEPguHB/jVnyI8QyB6Kc+h3HPUn3Y0EbwGjI960PoF2B3H+eNlUHRZxbftwrwnlP7CNao/eBYmY4mwcE3KPp/MdgvtbHILfMbn+P8P96p+6gfrb07+6kVYhQGt+MNLEI4HNRbbqpsXZnQIhbp+Xkb/CzBsnplbVp52VyVncl9ejjZ2qgxx+w4u0sj6o8EMutGuVGKk3a+bPApA2UCoM0mDIKansrq69UHuOYIoNCGuJ5xZ+6oQyasG8AVakgGs4cuWgtS7/QxV8DzrgBrbTXbzI55PffqsYjf0qDlVV62JH+xPq7IEYSLPiDi4dYSwYA51wyzHS9Z8cniuqOZyMxKwlQCk2c9bA5fiU/cSfCOEBlItzHhzXlKZcYSjjuZhtpsQKH4GtP/0dBCaxq1dhH8WBso+Sj7WelxEzAgc4dKuogq/3J41mfuNTSobZOGvoy1o5Sc2h/Nt5jpdwOCAPXweJeB07GN7VD8y3b72ohTDvDY9Py784IlLegC4MPijm0JoV35DuxtzMfT/1Us69d5HJ/ThS3v0zRMVrehKaV5nTEexQoHB3nCk996NOndZFn8YV+e9vZq6Dh8zDHrGP7k3KgJ8pU9AcAjbRu8Qe9j+Ns9RTNntBVAm96IpXk/sOVDuTfL6H0P/GNIflpSAeMPw6vMNt6yR3BMWTmFyDxtBYxKxFKWllDeKUGHa47X2FNgwbOg8Ddwc8LpLCx6GCMA0dDems4Lo+IJ2XeamCNum1RjKK/cd6npZh1rncCMARE9HatKuzDasRn+kIv44BdDSVDOg8hiApY41MACMTtXUOFRW5fXtCXUXMvgHSlTQi8Oby2zSvjvFHxpT/fp7wrGnTCVHX4fQQfNL71XtmfO9VR+6NK/3rM1oy1fG9Y7VXfr7YzXNSzV107xuJWIIXejJck/cmzpUOwFzdleICTuVODoMVy29fNC87MmmSpdklHqwoBh+VgCjyqqMEqBV07e+ADP3LdCvuw6pc4z4N4Gv9vokDwTEPancfdMgUqPV5GH3ivE5DeEgmkdRElOYQBCqezJtqqtD1OdxOOcCMNkOicKEfJ6JOYxCMN0damn3akfHBJ6hmdpWov5YDndmlPhgz6NzMGsBod6RmqoXZZR+DFPmugCKWhBOmOhYCsEYw9bTthptMwBzR4dHyxKANY9ItTD9SdB89VujgcDJG1+Ion+QFJ+flZ6bJL4fDx9tHVPkCOU7o4rvoyyEOnZZj+JoZmwMq7iVMr92BmGyVEpXDqT0Gu5ZDj8+ua+sOQhCV1qak0ubZerDjc70ZMXUff8GjVvysQox/AjkIYuGMuTZIMb1Ew2PqGQBWzBGWbQVaQ/9zO7g6ARE5Xm23PaBSY/uHEDaB9GgwXRbowo86+lAAKWGVz1ArOCVMF1VUKutgvuVvR4qhLmeLgPaTaSRQEBcwkN4HmWiDE/3qYBwU8eaYaVhZR7CcQ4N7KYegKig4aY5oZg123nHc/jIGm6FZniZarOK0HAldOAUqIeV6QTx/8X5ANo8uG9E0erimpfaeCoS/rmFOyj/x3ZHx/evwdAWIGkXMZviFAhCmPnVTpmfX6PGXafCcpjmNw3KEGgErr74zjDX2t0MVD+c/73Lu/Rjy/lFI67+6rj64Yll5itHHV46//aHsltKtqaVfoAQYW2u3Vu1raL44WqYIF7P0th+UxwAsh1fRcyZIBxK7XAgDaE3g6awjV68ln6kpBTINxrmmTlJZUeJMw8Qm54iLq5BMKB86boOVfHj1bX4QQBQfU1KmWeKyj1BOOa9L07AwCr31tBYgFCSvFp98RCmZAhjUicIB56mfs8WVMPtFS4lfLGGgw9sQq3N7hyJo+3eAMVbKbjfpdngHmMCW6Vhr26gTvsQQgSgmecZ920b6GF5bBk8F8yzSWLQIYEFSO7Cf3cBrF7abf6zqbt7k5Zs/JGZX04xMPWHZo4vTG1LUH30jOp9X+Dzj7jFzwfmWhjveUW/DrzBnz69EeYGX875D13arUfPlLUFV+Opz/5U+bQZTJ7504QWgKrkU956hzjyqoyS6HuzEykA7Li7zmJRWU+mNQjSR1zbTdZoVQZhIMsw2lJFq2Pk4+UsEZpZ76OQDiS1jCTuLGGSTaiCUjvr6tjXVHZnVRkEI4Ojj0cppeMIFEDMS1oagAR1oV0lyifO9CBFBStRXROHqbiEBGHKyarye7hGU+L4WftNr1NKUL7XJnvyfH0+sbRFGiZ7Vp1HjMJ0ISxSbTXloiHyAARug/iivRcJzPWq/9C/zX2OCBru765QBxubHzAVC4d09vCD4RiR1cv0Sa3Va+SlKBcmVzMkH1jZ+Sxc9loijoxuwg0uxgJSjfAxWnbyrVuINlYgfPdCN6Pp2RQY7E78UWhT6+YYCXBcGx+hcWhyEo2qGZ0e8nYAaC7aYxNpXxlkp9RQZUMWwMkxhLF5bwHOPNSY2Y3UEU97qQV2BjPMffYrNtVY3akNaRU3Z1Tcktc4DJu+NKGxLSBjfKw7JIKF3VXGgmAo4VB5EyCQBqeeNcNhQqNdh8JqmNgLs2BECyZHhUbYiqJMnNxEijOY1cgxMmY5zOqk/Z6jHaMNyb3UjdjZw4al2zpA1MkwUcGUsRDYL8eBAVaVlgcfAKEptHw2cXbm6KWSOdDmQq0+ruJke5Whe+zW6dVEwmvk9b0XpnaP2wvz7B68CF+a0LLOeIhtX5x8Zh5C3Q/fDoGwl3S2jbhTW4PJNOZV6/gYD9BnDmKGMUk1pBaYEUyiV8VHx/G1aFMdCI6+hJEc906ltxWUxDzU51gz4sGnud0VzHozxJxoBeYveYLn0fjIvU+U1fFsVdlnKso9WVB+K2Z8e0UdfDeNstEgAw4tSCrlmHhZTolniLX5bdOZKMOUYUyy3ckeXIKXfZ7lt2PfLpgUxzo8C4hDiz02HSEYjQykcDyPf/WuQGF6LoQJAaPHuB+aIo5H+0/ycxrWkbcnFMozU46Vw6I2a3QFMz+bSp98Ton3rJv59cK0Se/Qf9Q2dWuF1lz6vjBEuGT9mzn/dqXlueMt2Pw3GrpgyWjlM4cUf8v5LQqd9j3x52pUZ+PlFzL/xekIIHdZ3vxpp5lvGNPHl+cyjbbCNgXFjYCoedhzd0vC0OoluRAyNJYSM47DWMyUe7bMgPKlAIKFWZCz5zHx6TGwgVAen/XoDJLnIb6wqHvShIUZoNfpDXGVNqfQ4JwKl6TRULT4knaZccxl092LZYiJ2Y0dJs6d4/ixqep8BMg9hV7m6c3FPNmeOrc4X0fbGo7ZeaZ4mZfiYA1giPfAio54Yj7PIuG1ftqyjutDPOcwCqTcWJQO/d61ZcghgNMWyZMXYr3u3syovomQEK1O1c5rcMuIdnaN9AXJ64hWwb45aOkW/aLWHHuFrqi9Vxedfj2m+VVonbUMcKvFGOnXhWMnz35pUd6FqV4d15WD4I+X0N4Xp5otFtWbvdM1/QhIWrmb5pETxAdI1eto8CHMmkMCJLhxrKjU2SbaVVUVxx45Zj0FugUAJZ5rKHv/NOAkoeyeipITMB0GugMh7S7ABD5uGnCzMKdYCLwxixX3gBEqEYklQcepY/hh/KtnXmQREu8cl98PvlyO5qH57moMkuvjcZtWnsFUZojNE5SRngboYa7T/PZQoMFTLMmzI03lZiYceCJC1A+jcvye4DeCEGaHehcDgGxEjN9amlUEgtcQ4dQZ96ShCQ5bDgPIAH3JPVyDLwaflbupPClOhBCt7VHjAa8OPJ8iEPId+nhgtBeI9RUXaWnzKvWWlmOal8OAWR1DTtWrp/R/c9TWzvgdC9X8+olw7CHFRLpbt86XlqA0lw8YWL00oz97sKITWKhLCZ92eQEDBqi9PpiyYvPwW4Cb6ZcRD1/eqSrIuLyRkMMrFlZm1EArx14P4qLRDWtkJ5rjIb6huMqv6nKnVJhC6/ts6mNUpuoBADQnNpAJMay7Nhtz0IQB7sVX13i2eDF++PKsprACpUsiNBiQxbH3BOkg9q7NBbjNtUUg71WEOfjVxuKUKmhzEcBXuC6j6hy0CmFrgvab8ylzNZEA1bO2V1YAsCgrLOgeBUid4p4BQCTuo7YE/9qTBM2niHvxC2hyZTOWqFhXeT31BDA2+FQ3YKXyWBvKqvdgLbwn1kzKvmOtan+ye+bXCxNUCN9F2lvstVmPa3x1gKPh/GyCAzNHs+m8GU5Gg1p9xU/rs/uKejN8+H6SJwC8dR2EJ52fsnNTJz4ThmIdmkhl4rmS0odraGCIKMNgQgrQlHoYX+muwDMAKf5amFzhC1vVOsG4eY4WYbU0gLkDoFmT3enRwDfYHybcpzxF2HGab6TNWpRCe9MerDiH1nu1BP6veQrVsRXwfKrTmOsq5t73Yzl0Eo16iHAMV5F+poYJo0Di7mQJ6wKeaBa5/yxlnKG8FOae2Da5DysCePFym/TTZcW9fyRhledxxY9SN1xTEuzR9BwswEoSTGIGJY+R7xn0DaZnduKAgK9JiF25u93RESFQLU8GwMpdmKy5V+mXjWBUx2p5gn2qHqkC2MwUsS4XaHBJo2jwn3PUZmzySiRi1wT0gaZoTpTu0PzaAf3kKmiKLHwvDX6aSGArQtyRjGtTf0LfITwMHR1xmNq7b71GG6DUKMIP1QMgqaIpiW2AHo+BZikIdOxFQC3PY4a48uR2C4ARNZk6lAk72SAwHvyP96JxmPgWyC5BhO4ZjcLEeGZEYx5aNohlcBhmkO2wZKbeccpJ7sZ3etRpXloxgzvKb/ZBaO5pIXipHGa5i+jNnRpT5J3GdwJITRCvdUqO8HsAMGUznMUTeR0SCNozVJpY2hSCVhnit3uoON9cChE8AxRg6RUMXoNl5B/BDO/+FyvT7j7yAShG20sqv7W9dMXj26nfv1SV9zx5oeLB1j79ggBM8r6e3HeBlgI5Oe8z7XNjOqBP6CKO2pqdetNShLio6n1neZAyCXN+eWOHfn0jwgSdvheDHxtu6hXfHNMg7f1xhOG/bC+2fbBHVZKb+pTCrrWenZKQSk8067inqCT+zTMnPYEuNjethhd3I401MvEYaeYgpn0dgkAY4g3Twhitq44sWEhS+zkA/CS5DzlW6rGSkn1ZpZ4pEnKhZTA3OldWwl1x42jXMNpEmdndhGcwtIWgpIsxpe9Hoql0+vNjagLKkjA5+1gZhsDQ/cTuecIjmBjh/90r7/2zkjvAEghiAr+eJiqIIECM5uWO1MLy2MTjZaUOEUc/VSQ0aypFObkjAC547W0koCT30HZi+PSeWth41Tu2R3zP+mBbmcQ6XNRZrIZ3AySlYe67tCMg5fG5CBR1ShE5zKbhxQgJYC7p2QqkMiy+UIOjjcSrVrLDBW245iM6d+IhXU34eoP78Unfi8Hzofe2yaa2AzKvmZ/R0+5NDF2VuJSO+1YRQeTCHh020zrJRU9Ow9TBbjWIfWMgvMYAQkCI0prn2Bdm4BtjBwhf8L8x+2v8UxyNM+JNeiwXMOPBioany+L13aawlKKHA++W1wHyXQJDIHxoHoAgYZOPC4lbYDjf8KQ5TE4LBoZ9tdzvbAPq/NKcx4828zDQBsZIG3fgbZ48s7K8ioy8/hgmxWFsiDHtQsESHj5Mes8NAFVY3pLBStAm70jbwmd7i8Uw6b4OsIkoi1ttZZL/NKHSW89PuksTJjXuOqH6c/ZX7vEcRHsPQ7WkCmkEjWKTnpw9kwoZhAWLYEPt9FIa3EKDa2hw79wtGjv7tC7uSeifbu9UBtzzvRjs0PItjxR015GKfmVzh/5sB4IfTDRlz/ncGjVOmgmEIUM0CL/oEMFxo/e3iGHfG4uThCVxpXfBAGLNqIbpBTkHtNlE8mtoEMg7LLjGJ9cW4zMOA65awIqLCbOOoL1omgcWbEYri8nfy1fqmHjPxOBn5KE5AJkZ4kEKM82o2XtReZajx5y9A4E9ZALh80qJCF/r4b6wQdoqgNBwCdMKNxbBKIRE6wCOeTR+P8wDLCV3ldVcb8YDEosIbRd1BuGncaNV4uiw5SLuJd6B6cf/q5tY3LMrlxDS9caU+dqkJt9/fuK7GVz/pxNq7GszOKsB/byOBAa7nmaH7dpsap+zkLbPfReD37xELXCDt2GaTZbrfa8fULe7Wr8Xg0lveXg6MPh9L2AwGta1Y41KhzggrmymKBzGNg3aQL2JvQXQa061boiORro3KSI+rWNJEoQO7sSP4VermL2kIbnxhjUeAnrPDrn7EjPlmDdWgSEegUJzPfer4YGNZZ6iA2OnyZf8bSLB+5L9r2NuBC0+DlADlYtyw5ZGnsjnMVrCIuE/EwAgb4FYHyTfDvIE5cdP2dkiEB5xqlLpHpiGCYsNgprdRk88ACDFn5wI6LsFYjeQa+H3Gosw4YCuOOa9ciVRABgg/hygESCavmdaxbfuND1DikOj1DtXqvzb7SHEzPMMTml8AJAG3/PV88j73LyKus6iKEGrYzB4Pwz2ex5mGPzQrWF4M/4zT2to5PU6uO0vyKuhfT/Sr+7on9Fg0sNna3rVtyY1BH1fiYLBYGwWD+TuXI4Z6cLXFcNcKPuwJkyqrQEILaQi/I6jqV5J6FV37piPYFAagnnRmNFrrcZvx8edhCru7sPcBYSJOU5gvqfXEHIshtnup/YOrxTtxeFxhzETgLllHQgDBB/BrD2GUJFvElRYe3U/EHFSDfx+/SJi2ZUwdJpr+xGCAveO4ut3Y2YRpNRzIF38uSfHJaz5+L5Yw/6U1iN7tU5bGoi4JK9S1J7e42lErd0TCGdalRT1Xp4NU2mr1+eUxj/X3A+OuXZHjC2Y1wdPvf+CbZLIO/tHl6n0nqfCS0Uu1jt1o36D4iJNdSBcuJIE4M6gytpb6Gqpc5KQtHVIe3UnKHpMj+kP1Tt4Wahj+d0JVfNlxf76sAamr9GZw1/XFuj+h5fn9R18/WxPppuE7WvbAX7MB49cQ8j46nsKOjpd0/svyeNaZnab7di9TuWjEHpBEgSKeSa8UB1i4dxrmM3YIObGjXd2lJAD4Hg4LYzxArCqV6Pp2wEaECBMR51GE3jOvtQrCr17bZghAor25mReGRFHGOoAsASgpX6RN1sj/yS/Mc2eWOCNzTKPAIAmqcfKfNiKKToNI4+izYsyoHDqehph8zNPTquFn6+um1n0hgAIl+AhbexCIKz/vNFZ2JzFCoV8tIjXPbgRNm1zSIWm47IVc/fmdyYVDXiIkedcH/d4ubcPP1d53QVLVygqA4PLMHiONuvtsMsnHe9GfA749UFXjAf/3upvasG3l2nO3kXaA3O/rB8NWcQTeS1f9/bQw3fi0BdVHG+/JihKdODCCqDonF69OK8vgS1OT1c16Jkl0OtEOa2l2ZqmAKO7x+r63I05vf/pqu46WtR/XJeztsfClJ30nSuUe45GgMQ8jdSDBiE0mZ9QAa1LPYr/hAatJYRSoN3Ed7DvczB1UKNmIhFHu+PCMyR6/xJt49ua4w3TPM/anehmphCAqZthDoAn6XFOwhKjbotiY54lLVJtLvTfA+Z2V4wJDar2PO2KZzneQmxkRkG4MOi/t6TOERjzyBRlYE4vx09eglQtyin1wJQ6nwBgncRXc837jFSbCAiPZ4gN6xl3eiRVG8WUz02253Wj0eVFCaXxye6RrDtOttkHYdcRngZuK/rrsyr+0QXvaaL62Y9vUekXn3wBg4eX15U/2tSOH7lPnaMLsGolJToyuMNuZVoLdOjsl/XN8htCFhtu/C3tfOhjIQS9MG26/ve046EP6b0b0noNVueuYxXtGClrDtrqqCSdTqmEQB8irn/kxLQ+B32+eqypuYSff77dI4MzGpzbt06lCcQbtOhpO97X0SsFHae2PMntKESwZuDAmwCQGIIQA4V6tZ+nknjYLRF2qAMYodGewWjYGfMkPnyagUsYhuM5DbT7f72RWMtzqLGSnrQmnpP7nzGJYdzV03NggmzSCSs8UB/HbRjJBuvAty2GfWWYRosA1owVspjUMa51YL6fwNTh98OeWrY4mMogIJhw/ANImnIw715WU0ewPJnfXZFRirbhp73HZi1DmQheE7TuEagIFF192wVLV8g285FNqv7RHg2Mr3+ewaP9VeUQlN1vexh3lg9LctQf09wHFik7AoOnvqJv1NoMXrLhbTq6+zMwGCG7IC3d8JM6svNvYHBGr1jcob/YV9NwoaiV3WmNQacarmMRdRspVwmLqvpPW7L6CkJVge47iEbaGoxv7fi7lfigvKrEpDlQcmV9UokqxC4g/YQ+3kMruxViYdZSaFS9h/hyBMSNABT/Q1dY8pLEwXd9YUqJxIxWYIZtIt1pEAecVFG+5ihxM2akdFVeOfxcA3MTxyrU8KeRBw5Axk000BP4yl4yc4hwpxBTtQchwr94kr2118F/mOB3AsBiQPvklCbf0YvPh/Gd1GUEv/w355Qdhev4+eABYUS9gU/kr+V1xhP4s0UI9THaZZPHc2UcdHUT7iZHcHgCXNCNiV4KMs8ivFidVifI+psTqnz0hTvIJn5ssWLHSup9aNHzDLZLoEiVEvjzPISjAt5lNzedU6KS0nP6ir4kM5g6zgCscDgjg+3UvvbLG/NaizC+j7jcy7UtBsigThVb6qPNHnv/uYs6tBx+fAUN/vyhgj5gHxxQNA907FxLfNYRGp85AHEJCbwKPXEYJlCAkWIccOWJ5I0+m9CKindgXyG4EWz9shzaghn3uLDDDE+Ic6+La8qparaFr4OoYQk/WkH+vuCZkrnHJlX2UpO0sSIaMk2Yhs/2NW81mKTCzcmSGsupn3vTZlof86wPHxgBl6qhG5PWqDqfZw7XwqL0Vi9a516y0AME4CN808qMamOY6o6k6gNUDu1OHkTacUnl5WjuDGJOQLwQLiXAGB46neB5bo/2FVV8zQuXjyZ+bAkMLsDgofMmekFVeQ+geJH1Belh/WedHRrWcPF+jYw8qYuu+A3tevw/KZmJ9N4D3dr+7ZK+9hYEgrTuqg9pz2O/F0z0ewGYU8YuzzP/fLI16yCW8qrL9z1Z0T8eLgSQFfqifUPqOhD0w2iTF0VXE2Gnd/ffJvcTMw5B/KdAmUcaYWalt1iqXdKlaFdB2T8ZUx1m9aC5kQnssWEIGztYUhz/mNhXDv28ib18u2/7IBpECONZFQli7ThmpLoWVDwCkR6DqICosHQG818dwvcdh9F2DRUY5M1dvGmKp/5YkwmXHDbldzfV9Q8IyWpQ8PqMOu+c5BxlPVXAtSCUewBqz1G+X/nTxGzzHcd6RONcO1QBhXPOM0vc1+wwijwTZQTU2w2D4sPyGsBVbTlmGrcVfWFc9XvbfdGzKb6xB/NNrH20Gy/8Ts6grVgODy3SivZNM+mgvq5D8X9SsXIEQAd98bul6WPa8Mq0Ln47ggTK3vdVPCKRisefi1y7Bit6y7ykR0iVBwx54P/CT55PEks5Xm3pv+wsaRLzfe08XKk1OIFfHLhzrSZxhtYiT5EpLYaQgCivgo+oZJhTjH6lPNMjDvHXoJu1hPKgXKPiuNf6EKIEjaERnjwRNBhps2mO53nGvnZRMow4OTcvO/F33VN/8NPpZ7EAMN7LQCor0srgz0vL0GqPybpL0Mg4BAZ28BgCfG0znVSaWDysL/aEAsxUtB3HiW9yN267MhxTD8/uaOBamsszanpGZUTeedoDQ1OTVNgdNHlcAf7YqxpaxPbNRVmEBMFwH3wnmaA+mS8WNP2LLxxBeikN/l7pPn1Yj+r3Zn6dT6/7g05d/D67E+lTN9Z04oHgj0Kyif71jYDTYIm+d96HUIItd46Dj2NtDaYhH7FviN43qNaww42i3LWWPg4DDuKPjyMZ24sADBiIJCeegZjcX0M6PMk8BXGrg3FldxEUwJzUzGyQyIJxkpjYIxqFFtagErTQXYhN+8lRTOQE18YxyecItc4AdC7KqDoXf4eJzT40rdJlEBcL4mthEzUPang+qGcwjqOFw5TjHiwYFOM455BqmHwJF7wg3RbC/c+eluv1zuG3hzkJs7z636SsXJULE/mSO8ohvq4R8yePEs9jvcxwb47eXJZtgzmAnjtK6iDp5t++cPz3pTR4bA6EpG6zfc6z6TAsrg91EV1UlM0uVMe81RiIk7rjz1JKdrft79OfbmoKS7lsw3/UxLnt31dftFMGPLV93LNxa9pka4MGf8SdTZl39qq4NK+6Y90e/G8dLdoMWBqEmSDUxkLABXFmYwitdgF8SpvR+BEkititvA4BwKxVlqGhaJZ33/GMx4bna6UASavwd+RbXx4jD3wmYUxzLuEMDG1hKZpzOEflgqqhTF6AFt7PMJjjuu/jOjigxf1NvuVppV4KmqfRVuokmuh680jY9ukiylqAz6Q5tR7Cq7Up6k89WgDIywF1uJVG6ColBAQPeoK9Z446zGt2oMWERO6g8ZqkxD7cjWdoej5XkZANJah/fWawYSYlbp2n1jNozmjf8wz21B6vxEx8F4O/reHsflWr5GHrgvlv1s+oe2VMp7Y3deqZlg58s6kSIDbfs0xTo3tgcPL7YrDN9MMI9daRqi4jBAw+2IuvU6/rJ2Sh8mhbGN8ljzBXmEY1QJgGPO58T+1Cc0DLBQBWDh9XX5ZRakdJAvXGK2hJmjzgUIv4MQWICRuquBtyjGsoobf/dbdkilAkbMBNjJpC09N8PPbqjcHT3gj8GM97LPYk59D6MC7rAQTf51GoY54+C8L3mmFvSVyg1FE0xgPy1DtHmOShPftrX/eSVs/GqK7OKEM04P5wD236dTxh4TlS7x3fvXjdu7l5kZrf2mKw1lg+M7CCC6pcQcw9Rfg2s3w0JPP+jctU/Z9eQegtvtsMTgbmks+LfPBh3at9hf+J/wV/VIahyTnd8P5ujRzOqSOd1c47Y1p6ZaTR4w2NHt2PWa5rCyHlTe4nIJnBJayly7BOOFXgT2KG8V8nvNwGg7cMwjefsG9yz2L5MkwkWlrngzFSAmUNy0DcO5VsTxUpb0b6VyZDl2BtCC3EZ5VuR5uw9+XrOjW9IqEKYKcFIPBapPI1nfhQ8lySDnOpvCwz5LMhp+lrMipcndHUVRlNXpXkOBV205u+CrR4Nb+vyXIuG85NXZvm/iTnZ+65lnPXpLEcAKuLqJO3fCJf7zTbWhXX5PqEajd2heUzntFRur4zzB5pgbgbSzIqXUF9+tAcd39ipbxtU2MBvz1RvxfNT8N444YNWBdQdlSBmOST21ohajCSf2GyQrw4jS2GNl6i8ZIppotv/lg4qhQbOvYgsrkgpaiDskx3OFM629CGa36DZiX0iV1FjVtYZ9LPPlrQ33lPbvhsZP9Hu0rBd4f0/EEwhoEuIMk4KBI/iVS7+y5OIxt5/BUXY/hULwTzSj9PBmwRgLmfvOaF7PWE0tvRkLMzo0o84vnFYTstLz1FkpqgYe+jEYAXp8NIFMg2+XgB5DylFLFd+nEQtzdxeWKK85x7lN+ET4nHQfPh93RA2e6j9u/ko3wemw7jy6nH0EgvJh9IoNH4yDzokWOB5GNY95hB4LGiWjAxNYwlAWB5zpmMK9x7hXZX3QuHSUztB8KBnmOAKrc17kgCn+wpP4XNCRXBBTWE88IUt6s5jZ1/UfIb4ihh5td3p8LE+Zd1RNAu1009wEE9Q5h3LJC3mCxOem5WK+AFz0h5dryhx8A358AzRwFUZu7W4bqOAYL3TjRUQbPPeuiTdIYwL6Bod1X2fGONih3Z0I+bOIXpo74utNaLb+pFem3CPBeJ+non15qXj4KqPZ/Y4UD6AOaW8KYKaInvRcLxZd5wzDvh1BaDrCs800NFMTON+TAjQNyXavys+LVN0Pk0ezx73t/+tPNwOON1vl6/6+HEsE0EYCw8VcSEg7IjfKoFtbocLe5EaxcD60OarYfzg7mAxzCkyXM5LLH73IMWk2c9g6n+ypSK7z+/o82Fw4XuqnybvkO5s3V0eqGZPo+iz9+T6yF2x0Vk58BKkLLT2KGmqoA634Peae+PDOiHvzEWGOnUg/t89vUD2vD5UcKjhq6fl9Z/vTKnK+4cC7k695mOjjaDp/KeHkp4Mt4iPkTzPG0Uv+b3ArbWdcJIjwk7aKexpwE1/TALnjsrLxZP7EUrqEm8jBVw7u7csHkHwXq8uLqxI/RjJ91h4mmvM42brYwTMhcklSI4bptdB/YhFnUKteYTOi9gDcLp7/ocfC/1jWBqy74P69M6U8bacKunCwEUPX4chAtie95ZhKWBzQhigpKM1KgrZXuKUnh/E8JtU4mZ4hk3FOH3TM67x1V+y/kwKfWeNWq+d7Vir31EjaemUfyFoU2zaYlu0Sv132Z+SQ/pd/j8pgYX3kLpU5oefVprXoWrQbC8X8otHyRC6a/pC++qq2P4F7TvmT+iEQ0twmWcLgEAcalONF2LsE7HPbTLKSPoPph+0t2+Mwl3GAubsAx8Z4UmToBYbdLmY3Z3ALQwWU3alR7EVjw4rtrtXarMSYC7kORau9Pe+0RWPRn8Uh40Q0jxKS9JqYV9mj2r0sszY92g0gQM9wI2+4Qg0a6oP7Ncm01tqT1/z+x1n5+9b/a6f8/m4+TO+kgd26g7AKyeiymN7/LrZQ2Uwo6x41VVb3LFSJaOYE2ct7/9POBkFEY+V1bmHCJXBX2vzSr57HTQ5vS9Uxr9b4e4j0cR6PSHNoLOsSAZoo4Kbf3yKdWfPt8R4tfQvVF38b0MMSrpc3qdjulb6uheTalllSaPat0re7Twsl4lmkVt+dWCJolOPv2yilKFG3Tu+H1Us03bxM+uDBFH7M5TajwzqsR1c9S6dRDkVlTj0+06XZjaGgzX+x5cr+kkklOgzSBLI3sPwDtU8GKuJqGNzlGZSzLB9IZ5PlQPFoaenwwCUc8BxJoIBg2trrY2QXz8gUdsuBAm6sUwpR4IaKc2UzwI0DZpzg/t4rzn53m8uM1Ga2nQbX6bISG7YCW8h5Xr4Bi9nuH5DFrncex17TDLY9aNOUEN+ZD72TJMoZ0nASUZ2uay3LnCVagR8naeoZesk5j4WeJ+AIV3IvBMTE8j9uY0k790ftJd8vcvU/UXn1B22x2qbsJK/fQzqn0SZ35BeoO+Dntvhp0T+lN0+sWvwVn7Q31adGUvgjis63+BUJ3Y/NM3vPAep+SuO9RYl1fsp7aq8an9in59nVofW6/4fWOq39xeT3xhChrsqbEdX1in+AHM6DL8wGRcE7fl1fPXY+3ZHQTK3hXd2zYUsfGpCJMGk23U8GpBqsPkuVMQqloLPURe8e8ll14d0PQWS/gz76thf45Xc9kkH89++9ysX3bOTj6eTYEFM6ktzX4utb8KOALtbgS4HQDs1dFa6pt0j1vGgx0IDCYrdpx6DaFh2PvyzRAIl+Gdc2NjuKI+ux0nlwEjEUyHZ5mnAFgAwvr2cfmFWp6OFEsTogAQC386o8EwOPH7m1X7xaeUuHlOGAVL3jRP9aUzFuKdT6sxXNJ6/STs/Yi+qp/REX2Dkpphg9KGpjV5bpcWX9qpZS9L6dDXq3rbXZG+9FsVbf9ESYvXvkXH9n423J/871eq+X8tCIIX2zap1iG0cU0H7rNDMYBX7LaHVN/6wq0Mn++q7HlqjUY7O6EzDQnDTFx1421R+fMMfvcF28/VlwNiMN9GUjGcXAPEGgHM/K5BebvfFEDEMz1W0sjpGo1Gg7Hy6f2AMW/7gGY+r40+cll8bIXCsZNNZ7jHX9bo9v3tzVo4a43C13prhxouJXWQGHUR5tfjxyMg+i4KnIKpuIUgPvhk97N7/66Mh9PwyYaJ6sDvenjTFiYIVNsHO7kTJ25A4x40aGQmxztp+xfHVfpQe07WhQyeTal3r1bXm2/V+KlnpbtOqPX54+qcWAL8epceWP8xNXZ7LLOlnoEtsM0zRvbCXPKnoqbLxa/J6Bv/qaTR3XUNrX2jju/9B8VW5xV94Ro1dwXw0k4onV61KNDTKf6y76j+zfaKiNnUNtF468xfrlJ8XbcaT6C1m/zSZ0IMBCSRhRAw1qv6vY3/5KuIHTo4R6Z4udCpEbC6fRzC4PnJzY6U6jNBuZM36g7Tc0JPzIVa+VLJ190He/75l0ruILH59eoFL1Pxuwm9O5wZFHOsRn3Kl6aUfqYCPoDZtg7QIbMdXzXHcT7wCrTdtvUzQuP/EYj0I/heMETq6DShl2d0cN0Lzjyu7D73Jws69z++W4MvTOuv/pD2PP1flTh0u1qvfEDVZ2FqFaj2Ue79/e1hqpGTY9yhdZHeudNAD1JCyz9eWdU4IDewG4F2u6IPXKTErQPKfX1Uhf95SNmXz1ccoZ36+Pr22Dsp/rJHYPD5zcCdAoMNsjr3rNH0SUxVL6YObbRwezJ47BjajFlrLsJvHSEEIXa0xrjwQJQgdtYsCOappmCUyJPdpjgXhgxnwiSPDXtVwsz9z/tOGu0pPs1+E905muA+cP7cSr5B0y1EPBcHEIVe5Hk0HNMadmMHQzSTaKjXTHHNlqZFRJB8ekK1SzoUeXahkTJMql/WiXVB4GBqfAKrw59HbELE6kB9HGRNONSEDumnp1Xv5hi/bnTul4P5/fjxz42q+GvtMOl7MdiMcw+U34uYve9WNfDd1Wu+qVh/Stn3rlfx158J92264fc0PvwbMJhwk9+P/k1TX38b+IAmd3St1pyVV+nQzs8qdeZ1Sg5Pq3bHw4pnUspc2aNWb0aF37koLK5zit8Og+9+IYPbS1cgZmJVl5K9ecU9wZ14MplOKYlPyz1TlN/3F+0sh8ngmcMQZ653t0Griwg2n8ir6WGSJwAIGamvyAaBaHotksFZFyzq8TmIjB8MW/uH6wiNJ/ct4Dxm3P3HzYU5zuO3Z+5pzNxnkNf+DcEXZSgfgTlXCRP0Et7wdAqijlTDgILfbRyWumLColEA16V5niFsmo9GY5kM6lreHjiHHIGyQx9zCQZX8eE8n9nTUGpfJWyJmJpoL3LLbq8ocwIx2IFlO15XBUsXCDgvo2j1dy8+S2X6CCsBSQhw4ocXqOkdfbw1Qy/h2fJO1R9pv8KuZ85lKk0/qk0/gdJAqr1fb+notxAMUiLZrXRHv6aSBxV7Dxb2WFHpw4R+dhNrulTHDzffuLDdgVSEBn91RM1jmN0LUtsHZ0HRO9ZqtJTFHMMk92ItQO+pX3IvRMxBHN+NpWtOwxCI72TNclTpa34ji/e1MLBJHECDrYA2feFiW/vCMR/3d/sFWtbNwk0wFLOeOUS8jeZ5LypvVGqNDQE/WfAv+OeQp79sCPC1niwXptiSjBsaAxmYh8/37IzwFAyeaij98FTYk6PSC72vBpAgnOEtocFKuAzalEIouKfl+WbuMBnhQ/kxkLa3XdIoUcIq8s9Dhv96ToXfar/C9Xvt0bHxut/Srsd+H81tD9xHl/SHrZBiKFL1o5hoby0VUrsOr//v3Vr9lqb+85yiqmOz15wAkn9wservW6nEl05Lv/lsGJLVrqkwczT23A+jwfDh3hHVb7l35pnzqe2D4WXXZ1YBoPLy+/5aJ8uYARoGnWKeZIfJTp4mLqTgBowqb+5QY2kIkECp5logUxhS8/BYg2faZw0ZnMwdE9wJs3wEKfSE9STmzgvLrFH4RU9JTe6qo8lpng9sDTlYhNrfbWL47Z5+nbx/h+0d8K/uHPHb0syU+kpU08cY8zjgywvGXYbHgV2n+FGHH+7IoAyytMk2oEodrCu7izCqQRusJdRRYwjMEFq6r4h1wXKdqap+pq7RT7Sn7HwvBqdzc1UtnUNI3XaKyYLs//RyxfZMqPJf9tCMNoVWX/rL2vf0f1H3kkiZfjR/6rXqXbJF27/1AeU6lnF8sc6+9bAaMDh53zk1P7iTQjH/hICwTq0vXxu6hb3TUPy2h1V7rG0ZZlMYLoyA/r0/269igVBoAdoKSq57BGULpm2MigOGq7d0qLwA/3tjl2JIsfdzrK3AXNrB5yBwFb9oP+leJPs8z0aEEDEYGB0sB/+b2FlScluhPTyIBlqBzGgPLXqmROpr46pc14UZnArvZPKoVewMz58FrXsutnvAAGwN6hOG+3oRijlJPriCQfIY5JjvaA8a66U3PO/NRf0eYWti3Psqw7AG6L7ZjQhRZ0/LSZSwBmupD3WpeUDE05XI24vE68ugxdyI0KpTpSvTqq7x1CVQ+DfbhPxe2yg16xX1zb9cpanj7RNgEPVA250Tah45b0ZTuUFNj+1VBSRfPBXXui0f1MDiq3TiwJdCHvEoqeqVWJhr+7z3qqJHxhSVEXJwQnJtl2ovmxMMZeii/cQhtYggLkzPa3D3/WuJczEfNXzXbvzM6qxST4I41+XCDIvYvWNKz/WwGZKDqSvbR2Ir60v9kguA1JBBEyU1IJy3PnCsNoNOPYHey1DChtvc5YVtfjsZLAmW2x0bnvtVva4TpvIs0qil7Xv9fPtr5jj8cJqxCs4gjLfOmjUft7UaVQwrH8PQn6sCApankJ4pqdHDdWc9Dt4AP2TvKSpFBFIZ5B5I4NkbSfx6jWokJyGoe7PmxFX2q3S/OKrpT7cHCr6XBsfjWW24/oPafv+HZ878yykWy+i17zquVLZL3/rSdRo+0H7rSuoPLgkmOn24oMbPbFXqHG13F+3LB1T5yNqgZPF7RzHR3701cZg2m6ARvY+u1YhbA9EcEyYwtTUvhoY5fj+S50AZMNUBUVEa5OgteYH39Z4M2sp1/FditB4Yl/ZaYGC+ierpPV7JFwNh1zB7jSyM8CIvqGuBsHsOU2j5NOci4REMaFaUJgY0BwJLuSmG60gccazaCltMNAd9xVxzHjTWIVIokLxA2sGwO2/whUM0YgUld1fCvKraSrQQcOd1yzHAncO7FEBN5xAI8rasGP0r1Tb5rQHApydALASMfm0SKWip8padxMSg2V9Yq9If4BcDgj+fPFXY70vybIzvlbr7L4EOZU2NtKfgvpDB12IYl+vovs89z+Dcs5Mq3Xy/Uv9hsWKPo8lvWkgI2KvG6aLij4yq9qkX9p45BQ22UHffu071UUwnzPXugN5fw2uC/EYVx2zeIgmrEIBQWMaBGU9ggh38l67MAGww7+GVsiY4zLJ2mHuBCW58myF+lY3Jb6kLxLMv4j7v6exuQM8GCfcH7W9rrf8ProCQI2hmzVYCkxT6kNvXQ3gVks8ZHZAf9Wh1UidreciEGpwAADqO95wtwkO/7s4RQOt4WR2HW6r2WliwKDzitcTB7XSncDFYINC+p+7Gvjml8U8eDC+nTP7MKlU+9r2YGFO+b4UKo99NeKe+waug9ZQmzrTXOXV0rtXLf/JR0HMuMLgre4kOPvuXz4Os6KExNT7KvW4LKQY9ktctUO2eU8DvSTUOYHJelGbiYGngGys1ngO+d0IEGtcw/Kfxfrt32MOxI8JEIdSAEQ8Bem9Jb/EQ8ygLGuydccJKQiPOJv6WONg72Zm/Na+I88RxMwMND2aZSga68x3eiGLkyKPxCoxB9SKsQYJ7q/hq71nV7OG5dAItrqg6gBAhbWFJKjWwtjr5f7f9+W9bIi9Sc0FUxJuuOVbOPFNVeSWxbYRfxlcnQc1VT2LAdbQqnDMBhrEgxKwR7qIyH8EkNGr00KT5/arcsV21/edmGLwSBn+vN7BEuuS239HWb71/5veL06zwO8W1fvNvaOMtHwy/vvXFGzR80JP3cBV/eIkav7IynA80M9p3HUnRHx9S9ZeeDMcvlZ7X4L4716gUx9yO4B9piDcl83hoAs2KH8Q+L4T6BP61G7vD7MUkSNNvJLGUVzz+DSKtbMmFIaxaqgE4memLxQ/6FXJeIRDcKBwNURAMsu92ah0oKZ0EMJWaquP73XtTXeabkVDKdljjzVI8PyXy7ElcRcWTDwi3Qk+PW21LQGp3jPDNx1rdWJMOljtIlN/LiEzE52dwMWPKHMFtlGpKVKgTlYpq+FiAZFho57j5JBaqHyyBddIpzLd3FIBGU790RNVzI9+HBlNWAqBaf2Fs2k4xfPRH9eyDbR+98erf0eotP6Nk2jMqIPVDH9Dk+C6dHf02Vu+VAFE3gvweG1f9lfcp9amr1NzG8R/ufr5X7KVSeMoEaK4ws6oq3JwlTMmp6tkFm5KqeAOUZSlVASWFtw6EQYTK9R2afnmnCpclNflKzPMQfg0AkvAeiSByL9DOfKdA5nxvA/k6FLTNM9Vhkq2oAVp4HxLnW5dkVV6IQHWSh+du7S4ofW9Jqa3k4eWjgDwN4jdttpenVOnAimDOo3n48g08tx4TtAGB4uNi5JGk9RAfX+NdB5LPoaUIStq9UBAj9eS0mhd1qrKJuPaHulX54S6ViBKm7yCfPkww7fegYX1DJiDwJhoTc6fMQFKl63rVQhidvEAt9iJw9eLk3YdeKiVS3pvbpZAPGpbNL5hhronkhIs0rnCfuXcxmElGy7YuMUJZneb4n2GuUxtFe8D/i6tUmwaSryHujeNDeTBWbYVNQ/NPEORjZpNwpjofo2wUB5Bq4n+9sCsiPgxzjr12lQomPaDAtfKmtMoriCcJ6j3CBCv5s0mlHah62wdjnvFvHc+RJwwvL6VpC7NqNPD1aJAn+tkKBNWzFJ8uK4XlKF5BqJOF0W4kOXrOtiWnhsZGR4qEElgB72sVlheGEsOGbOkjdaV3AhABf65/YripKvF3BNNSIOp6AuvjHe4Q1NgwNOgnTPJrCepoOSFVppLX2EcOqHZyWKk/u1xVv0oOOr10irT5h35Xz9z9qzO/28kM3XTTb2vbvR/gV0u57HL9h3fthBm0MTC4hQ/GRB94TKlPbFH9p5aE55yiy+5V7emR2Sb9i2lmlx3u/7VBSITpAjh5cpxXJPg9gfGMtRiABaGqS9NhRqR3fHUcWvcoEmFR1dNQe877RPlVAGvx4fx5f8fsPjQI4niaj1euuBEebjTfbK4toQ00p4L/9+aj3vwzNJTskgXMLKjdtt9b9KfP8UA3dTCgQ7Brazqpp9cwUzevN6KM9EkLEdrd2VTk+dH7KwgQhY2gbR4VIl93qligGpehxR4YwRDUvLGbBYp75BX9CIC7Dy0sdTS4Pg+B7qat/zii5hTI9Yfnq/l1AE7b07xkmhpFGMrPD4DPpJamxjjviVekJlHDGEj66HN36ujuL2ruwhs1MbFb8RS0v556XGZ/RD0eGlHjT/a1Ldr3mWgBCf/UOIPHiiCm5xcTInnX2TBpfRrt88wII1dMsLcbDNNd3YXpzTuhd+oRtOoBGvwUviYFAZcRG0PU2OGS4odKqgB2Ku4hg2lefumdA9zx0Mom0ULutxmc2UHHW/Y3NnvmZRsdVz3LEeEJq9jIp7oed0EZHo32NN2OR6b4TKvjoSLfRXV+p6by2kilS7E3IzyLltv0l62llBl7okCb0Gba4Jdfx55C259yPbFEnvpCGWHPTuL82KCXaML4PHU5i6n3EGiwCLPJNST73rWERBuV6hwIv8+nlgrjB9U798qZ3+3U1b9eleL5QYHuwUtDaJRM9SgT78N6VdSsVdSovHDAP/bV02q6j+AHSIHBtn65w/inOkQoAqq8RdLO6TAzwz1RnlPV9PwkJNud/6W1aMs8TDGo1lpmoBWDiMk093sron0ltAk/iKYnUMbEWB2hwAeCrNP70Ko657dPYzLLgC+I7YECt4V4OSoTbnm7BQCXd3dPHUZr92IBEMDIy0QhsvuhTWdELrzutbg+rqnrkpq6JqHiGvLeWVXuzqnAxPxj9fayFsK+GrFsawXStQaMsRTQiMOO5hDbu/fK4Y+n6VDfzDH0/xyCib+v92J5hlJqeBnPkU5VQa2NCRDjBWnu4pu1cPkr1DmwfObMhSmmpeveNHPcTguWvVyJNOZqJi1d9Qb19m9Rb+86Faqn8M1VTU3u1viprX48iJFdX+sfZnrFfoDUnvgO8En8CgDKL59YhuSj0d611WuD3dXnV4clYLpHcOoDkZIgyngVDbTfXUqoBOHszwxIvLO7p6yaCc2zZcV7MYGEJl6VYNQb3gvsyW+9CMCCFNrBfdayjM0heQbfS7m9+D4EqQJ6D6NI/ZzDLPuNKZWrAFRgBL8u3v3W3tUntbeBOUYrK5TBMy2vMKSezQUInTdXO1UPfdje4KWJ2U9ighte9A0RwjuPiY3DPloAOS/TsaX2KJlf9RNMOBYg8e2MKp8kDg3WCOHwKNE3TqleKaoweRhxyyiZAbwVX9gfXKtMqzR9fsF4vVZUuXAK+tWV61ymFZvfoWMHv6jp0X0qFI5qyarXa2y8jcyrhbPSG4cUf3BUjb86+APvLP/86sLYO3ohHsw7C+ipwARiXS/mtn9xX7CJJeJPrweKeaW+ARaMSx5A5LOcdwhjQmEOks8Uw6aliQK+0Nv3H4HBpqTnXOOnvamaiZT4OuaVfEOsihn0SE7cr9/pgshoV6JEniOcm6Q+fsEHWVSuQFBcDlqfPN5U6gSmGm334rfkAX7DuPSTFaUPYEkQwCRhn7dtSAA647YQtjrIkt+PFEZjupNK7MLFEF+3qJ+Nf9UT4AnhvAAg5jVY5BNeRL0d7PHQscBcp1kGV6bPwrDTSqcGlcqjKNVJNbwr6kwyc7P5RTB2kvzJE99fLbUn5fXPu06dc5Zo50MfxS/vVqVwRv0Lrg37hdZqE6odPyNdQ3z2heNqeGO0HzA9j6I7tq7WNH7AiNdmyiv3wy40aJQXmWG8+cTCGqPULvxAoxa29Qu74Pn1cQaxJA/fuRPfTPD2R/JgQBztAviZaLE8v+cBvjyPmfjTIawH4m1w6yDuBsDC6Nq/PSnArxGgFI5hOAArMIa/2hD3him8kOycBzMQSLTak9TrnuRHOwz6HJV5J1lPfndc7+3xm12U59DUe0FbhlPUKxGpPolPJpRqhD01ueZ2odEWTkRT2T/PqvDb9/Nguy3JP9ui2i89hYq2Ge7U3X2x+pZdrENb/2bmTDttuv53tf3BX0MJerT+pl/S9m//Jmdj2nLLX+vcuYfCEGg8kdHwiXvUC4P7512i5578M81ddZ32P/GX7Uy+jzR36IdVLBGnTw8r17WwzeAIpvQdXafKV6CLtyrajXpc3qWEtcAT5aBS1rvOmFEOL7wPtE2ZgY7jvCpCMIWZJozxMzG0r7IUX0g45VgyrAtC2+tDGaTXggIzMa/R1um2f0WjIwS6TIjT6oKaAJrqCpjnbYRXelADU9yPhk5iOU5Wwit+YvP9ghB8ofuShznnqbG3dgdQV/d2ExvyarpccEPyFDiCWNYL0GP7S+ENqGZKDRPtXWUbxM/GDqVb8kr4dbP42yQhi180baH2p46Apf4urcLvPRw02J+XYnA8nlImu1iL1rzMHNO+J/84nPfLoGsVa62xShfH42Fe9Obb/0i7HvoNzPMJdc/dpOlz25XIDWrLdX+kJ594j0YOP4xFmO2CjGnd1R9Uo1p11gqbtmEpjj33OfX2XaWRs/dq7pI7lEwMhlA3lkItgw9G23IvG9TkZuJGm9F1+FVASQNA4u18PZ+4dDGExkdVL4dJ0K8B+nWfrl+s3OpKqHZxDk3GJ2+ASQTnnnUR/DC0bKzOqrqQczksM7F8g++mhxxX5VQnzmxs5jr5Ro9PB8DjV9l5x7rGFR1hgxdvwOY3m9aXeRiP34No6ASavILn0bTKEGDrqnzYYKWKa/CWh16D3FiJ/x7yECi+3u+GINyrLUNIhrhufwujvXjd+1j7dfBxoge/kcVbP3kFg99V0SQkq2e45/C0okcR0q2n271lF/jgC8OkMH8qllXfgs2ElmmNnHqKc0a+ForzCNjH3f2btHD1K7Tf+2BFnWoQLlmckpl+zV96u86dvU+TZ/aEPGfTguV3cA+WyQvHsHC2LBPDO5TODqpUOKYEGMDKlOnsVr1MftbgBJzu/tgqVfFj0dyMCgsxd16dcKSsTIOwZKqiaG1H2A+jjumru5PBto8YOPMEaJOwJnMS0HK6DGPzimPaq502q45GYSoCFKGFDYji8U2eRCPQYLTCKxhzj6GB3sY/AWomNPQr8Fr4/5g3/3Q53hoRkBNDU2Kg3qrjabsQAEfopiwjWDDGa4zc4LAlv0EcJtm9ZWZccB0hTIOE+PTiddnQLx335P4OrBEM93okv7LWqwo9+tXMQ0Sb9XJKxVc8HuodvEdg1ktr8Plk4ke6+NaPaes979fG635HOx76oBKY6HU3/6J23PNbmr/k1dr4Q7+h+/72NvXNvQLrRiXJu9Eo6eJrf0fHjnwBTT+nA0/+VTvLkELg86J0XsLSeXBAso+QEIVLYJmCD6Yd3dvXa3oaSfV+lJhFLzsJsxPhkCe2x2325qGdoN2Y0aXHVkMCqR4CLXvdkt+li892B0IgkgnBHWEwwTYFooShOzL1a2oDsaBa/GiVxnHN+2GAWr31Q31jThni2+qV+bD5pzxYf3unYsS6fi2dNyVreX1vDaHsQyAqCATm30LQ6MZve/Mx/GwYKsYCNTu51wrE7zpM896RLa/m9+52mPfQ8QKYCuPFBpDuyZvCQROrp871qLTlbuh4npGzPrjxO88qnsf0OwpAYMJrZrFocDJ88qfmq6//cjT50QCiYrGkOnq95ndfYPBVr/mkTh+wX79QSGKat/gGPfWd92r44IMqXrBI7QdNWJtYK6IiXX+yUuVb4PyjUyrfCPGSKaUeK4Sd1cNUHQOOFIH7yzuJmjBh3q2mFil395iqAK3mZRAfu1+HwYkGGtEWdbAWptId+bQ30M/dcaQm97YHRNoDfenHvOMszEf7yBmA01CugblGOPxWlDAtxdNzCMMaDqv6kUpP2OP5YAkMhigzNoXpXox2ej6zVzUQj/tlWdUluAiXBwPqfjEI58ObVQz8YDBBstJYW78CwHOzwtu/AYLebik5kdfoTz1mWQzpQh+c/OpJ5df0q7h/TMnNvYR2OaWfLiqGYBSPj6v0t4e1eM2Pa+zM05oceTYwuLN/pSaHd2sBDL7h9Z/X6Jlt6p270a1uF0BB5dI5PXzXj6s4flCF8X/+9e7/XHoeZPVsu0jTI8mwEamn3Tj08J6OLTQhOoaGQa/qxThOQqjGXJsS7iliOh0iwWiv7gNyz+gsNcQchkFzKu09slz1ECpx5C+PG5jiwZ/5jxjaWwHHx7z2p4Df4/zVmN0JniW8ae4GHK3PKQ4Ac3zu/Tq8l4ZHkzykF14zT86ej+3F4X71j/e58jsa3I/u7RObaFkTBO+eO29sFqxPJ+VwaHTt7Ygbtkww2FsvuS/eEw2zu/MqXnXv+frC3LYGX6bontNKzSOMAeilB6AXQNPbRlS24AP3T2r64+1Fahdf/3va9uAHgom+6KZfBkV/GAa/Bgb/g56+/4O69IbfphKBQCGdO/OQHv/qz2ruSlD0k5+aOfuDp8BgLx/Nf25dGIqre7bDccyh18cWCIXW5cNLkmsLI0wo8dsAzIT5eNSwjimB6fSb0eILoYQJhiCEuNFSDuLGpXn/EhrmCBMCcc6T4KyRKHGbWDTMmNyvp0169zoYkD4EQFiKH3l4SrFFftcCguFd4L1JZ5J88d3VDurgsVzn74loaH3kuBYzX1zctjyVpUnV0pQclpIgdJTldUYJMxHBiA4VlWwlVZqL9T6Nmad+qsJE/H91AAwxjIU429L0z+0K2j6b2hp8mVL/6xjWDat1Xb8yvXlVHjmr+DX9Sh3Gzw9FKv7nnaHveHDhzYpn0jp36D71DV2u4SMPKt+1Slfd8d/1zP3v15yh60O+A/Ou1qLVP6xtT3xYBx77K+V6F2n89He/v//7TWHKTgRo6b9/jUbmdIWZDd74S2hJvABRCUmaZirMdMxYXh1X6gAm22jWY6W0ORqHcSYKyNANt46G7ktrMwRt4tfCMf8HVQ5G2fdzr6+buZwJC8u7Yd6hdqjlaTZx75fpvbe41/3btZs60DaEx37ez1jrMceOWZuLM5RVI2SLKXXcvW6YWtrh9zf4Fbgpb8fgKTl2AtSJXNRw29yl7tGj0XJwTS5LHuP2CBKRQep4VuWr8ZPBxreTNTj96+tV+f1dyLXbyUlf9sdtdBNnv2fS6it/RYe3/w3ZA1Sr49CooTVbflV7n/yDmTsA+CvfqHXXvF+Pf/utKg6fVrX8g3duXJiCD3YvVO7TFxHeAKJqxFhmZjcSPIjW2lSGG/G73oX2XIWwAiJ5UxQqn7x/Si2/odt+kHsMVjwi5OFDN9CLv+pE8ZE3GjHhjKh9DpDlXq8WphC1IW6z9qMxR9G6RTCPOnmyQQvQlDvMuSWUQRiVN+p1n7IrBfL1EGIJ/+qNRT2zE5ilBm6mdmlH2HU2NNItcIfGAOb7FC4GBie8sHnSk9vbA/7lxa4G5hwBcKiYHcfX25/fGVflG3vUJEKwQM6aaH+cUtcMKLWUuLbsPHkG313+7At3wbswbbz2o9S/rv07/yL0gL10srQIs/1f9fQD7+WoXdb3m/yO8dMi5OS5tg+GUJ13rVYxnwvoOI5fjc7AyBxEpbF1E7oLxgBQ3LDK2ozSuys8jnntt69FG9xg/+PbwMoMdo+UCeK+Xuupq2lBCb9w6jbMbopXzzuZEUbC3g3HHf/t6zxnxjvUcT4wPrzEmgfjaKEn2VdA1NEIdXGoAxDzO468mdosoaxGcVC9wyEX1cIPpzGh3hymiWB5OpFBAVVrzyD1o9ZqTqd+vqbKF9vLTNwWJ7fRGuyUfflCdVw0B6dZBESTF/mM/c/zm4W/OKVz8/i/pYE51ymRz3O/24Mb8O6+HEdZACKhqfupj+39B5ULL1yK8r3S23UVgluEsTWtVa+e0wi/LPB+bxJEy147GF6nmtpRUG01YAsA4xXuzW4sUA+ExD/VrCkR/naSuoCiTYDkNEQtorVlNNLb5hdr+EcaD6hxeJXEV3qZSwKChZdG4r8jPh4k97f3oXLftzc5iXujE8xrYmshzFE2Uz0Dw2//jnteMffGPZhALO6ZjX7e74vw6we8JVI03Ai703ulYauDlpljhuoeerIL5qejoBRxdVhn5N17zjaVfRj1P4smjzWV2kXI58EU8vbOO61HaqrvOfM8c51mtdcpNQRq7iTzHqzScveIEcLteOESzgtTozbNp6CBwat4rl+JlF9Bn1Mq16NEMk8c26t0sjucP/Hcl2ae+pcTKgdrC1oBc0FQ6HCkUa/+nEXRg49fpLNzkCgYk0QKW5MgQfcE4Ys8oBBPe8YlPnBhDjPq+ND6i2CAGGszSNSmM5rk+TRmzbO02zobOkW8AsJ/oY8taLM1HOGA6O72RCfQyLbf9VUHQHhHniZjNNZS7j4N/24g3fahfl1deA8E/HYfssetg/uoInxeFcnldvJR2xr4MLwewC+lPI6qYrYzxxEMfLC3ezAesBvxXmGmReLnSqp8YVs7mwvSrAYnF8GgLuLgVZ1q7BxXc0ledc9y/BeS699Ortt54Tl/DIUu6Pn6l9I8dWGau2F0pEmV+ZXW8CyDw/LRv1ut2EAuvIfXXYNNAE/8RDWs7Wn63bwIpTW97vcrUIe6X3YBdxxjet6TzWkYkF+WDoT3LnnWHvcBt+NgM9GC4P+pPnwwim6z2j6YI9Czmej/TL7IvSy2FEERMd11+203nOepcxOL0+6BgrEpMsSdeNZ/mzA86xspLORJKYiQawBxqfMhNJO6xgCV9VV5rJIRvGvjxPcE2oyVaX68pfKdL5xUZw32J/nTK9S8xu8EhNHVsjrw6RM9AL0E+IRzbmf3+ITKmF8rQC2FnnkRGrijksONzNCyGXZLQMnOtjW/ipua6CH0Akh2TBdUBb9UM1iHBs+CE6JaRX1jBY30dSpZw4XkCF9JvWPjKmQQXI5b0L2Sz8xocJIw6YE1ZJInHKHingEwDhipQliDCoCWe3n8foX6XCqD33LN4mMQFjDmXdc9t8nM87b78iwN7g/zrRAC+06gi6MfF2hac8w1Wh38tQnqe8nVwCt0QJgdrgfnA5/ayoclQMhQWU+osxuwpjvPOsDKG4SHbZEggi2zc2kvU22T23c7NZallNuNWSfPsNI/g/AgqBHHnu1p/NWcn1J2T1WNX59W6eHzO+rMpoCi//Zq1d68iF8t9RQntWHfWe1Cg3NlWkulTy6Ypzu2Pq1xJVXIR9o3b5GWT04TnVV0Zk6/0uWa1o2M6ViuS6fm9+ktdz+p/XM71d0q6b5la1Ts7tCmA4eUJq9jXV2aNz2lQ33dmlsc1uBwQs8u7ta8UeqXSus4Zb3uyR3a0Z9GcRK0IaN9Sxfo+cGG1i8uaO8/iR+sUeeah8zm85nXnvFQ5zhs9H0Ef2VOFSHXgmTYr8LAqLw+pdoCzLhDJ899ss+CQe7/tQa1e7DMXAgefqO1Jo0BE+f8xlIDbx/b34U/88Wiz7G12QDJ503Q+hyQMpamRaza8JvajlXC4IiHFx3W+fV13nmgSSTQGEDTvSMQ51t8EoRLpU053E2cdqZU9aZtCyJ+48fmUz6gLv14Vq0/3Kfa9kk1SgAI18LCbmmbSYnXLVJzE5pGqqFlXpGxpDKhm7cf1aajo3ps9WL1lsbVe7qkBFp9YOEC9ZSntPT46bAJ+tzJKS0bH9OaPRPatnYRuK6ElqfVyNR0NturGnHz2lPD6js3rrlTw2GeeHIa85iO1Ok9OxGaIgL55n2H9OS8OTpNFLT63Bk1iYRGe7s11dERaBzo3gm4SY5iLGlLZiehyVN1JZHyhF+ruquq7FMlGt5UxuYErW0CarwE0zM+6n344qf8mtgS6LocMI1BkReDh5jVTLbVREusid71Pe5tFjxY4A5+9xXz8bW4lzBwXwNz5N8BiaN4Dr/az/Pxstb9daUpM7mtqsy2gvyOhvSOsrJ8/H5ivzQ6u51rO+rqpB1JBCB1DOt0zIVAoK0VZZ/g+rNVJbxF4hNlmFrkHG32fh5YpNK3R1Ufn2wLnAWWNPv9UonWqOtMUWcAiHv7AC8oztyRgnYOzdGeBZ7hCY0x+2mEeujYFDTHBWKFDvbj7mjnytNjGhyd0vwzVaxemzXPDWRU6EHA3dMG8Eu3ChpPp7Vn+YDmnC1o0bkxnc23rd/SM8PKFhNaea6KaTfBqa9NtNcm9RxcrbFSDxKPpHuHGVISEGJTV3H3Jckz/6tDMOcc5nOaC9zXsPmF9h7eo/WBKYkjnjEwQwwqjkLM+GBLP5pLRb0thF+n3kh5TJlrHYQGmNAgDG3VDXob4unwFM9QjvNsENY00FzXEm/KN/cETQ8SoTSgsBxe5GgU1q574hjAbDZvTEHVAxUkDzREx0r44xxlI2Sh7Egd356vwu1f4Lhd/oVp1gen/nizGq9b2K4Hv52vdyCCqlSFtiQAasHPtQFfcE8ejLHb4anQApslJw//1U03rtia2SKEJpGn77HV9HPu4LE1dHnkFWhqWYgT0jpv07KJchjEcRxbtHRVa2T4rDa9aZOe3LFdmy/ZrKeffponeBBiXrr5Uu3atUu33nqrHn30OxoeGVFKA+pvbmnT1HmnK9p0+3M6daBXZ3Yt4ExMHQvPaerEAEf4aP6y/QCAkY7gM1P8rjrQ5Gq6j7BhvMNvpCUFMoRKD8ce5N6iOvKOd9zomIaGhnT48GEtW75cO3fuDO1ftWq1+vv7Q91CcrUdl8frmjt3SGfOHNPixUt07PgxGt4m5uC8rApTNV1/y6AeuvecCsT3SXDDLbfN11NPjOqyywf0zN1jGvYLozEXuXxCHR1Jrd3QpeNHp7V/75QWw8Q1fO4G0fsYSKlzgXHtZJq/LUrpr2Gw6TTEmWOzzJxJUVhKg5tAk+P9uKlxmGMDRgzfIgwMDZzNkOOf/0C/Hr6noTEv6Y3q8CarU4R0j9zffiHX7L0dK1coPdCvkceeUOzVr35168SJE4GBDz74oG655RZ96lOfQjgaEG+VbrvtNt11113qwslPTk4G5s/Vy3SzvkxW7Rq04jUtfs1XdOxbVyo3CCqd6NDA5kM6+u116hwaU7Oc0qJbntGBL1+hdA9xJi0uT6NhVGjxTbt0/NFlapxdHCrn1ELzvqLNsHdfqNeRI0e1ZctlELlD09PT6u7u1ic/+cmgNbfffnt4ZuvWrVq0aJH27duniy66SIcOHdLNN1PLL39ZH//4x/ULv/ALqlZxNbmEXv+mhbrri2e0zK/paWX1+HfOqbMrpRVrUlqwoF+nTo6od6BD3/7a6ZD32356sY4fqej06bKWr87qy39/Wqtg6iKEbhDG9fL9CIzu5rsv0ET6Mr8v5Z61aNsU9VzAcZGWHYTJD1vLSdHriDiI2+vP1IhWwAvuKHkF2nsW6/YYQoLlrE/U1HzAlkjacnUXip5SBRdUh0ZDCzI6N1wNG7DRdN3zTxMaHq6pd9MlGrjxaugDppqYmFA+n1ehUFBvb28gYDab1caNG5H+M5qa8ks2iBUzmRnNfnHC0DSTKp+dTwjV0rxbH1XHqqOqVQBc8bIW3vEwvw9o8kSnaoWEFrz8AeVX7dOcq55W5+rDmj7XodK4MXbbZ7w4mWHQTVnCBCPXXC4XhG82mWkHDx7Ua17zGq1cuVJXX311qLfbNTo6qiuvvFLlcjm00alUrOv4obLGxypasbJXpVJd190yR1OESUNLOjUKNpi3oEM1wq1rb5qrTC7SqovS6gR3zJmX0V1fOL8XBwZYyzGDT2LaCWIsr+qhshjG9g18n4Wh3Xz71RBO84Nut1OLiCWWhLYVwjUeTgCeEqORYgtiSiB8rU5u6phV4Xbq6IxpbNRmXzpxfDqcW7I8rXxHDEuD+pM87TaezqpnwzrFLe179+4NDHzqqafCtz/PPPMMEns6MPvAgQMawTS/MLlgmxx/0LlpQEUlq2wCv1BOqn/lfnUNnQsvwIrVUgjAHHWuOaZYBa3hrzDapXxvUYWT/erd6Cml5/NziDRLIjNtxYoV2rlrZ2Dmtm3bAoNn0WxnZ6fuuOOOoME21WbqK1/5SjRxgdavX6/7779fX/rSl56/v6snpctv6NTAnIz6Bwm5apSJn+/sTmjhkqQSyZaWeud3Az+YUy429LsfOoTgNzXpaUzuUSO5pnZAznYB1B5CQwscP8czXYHJ0tVo7zlucKh5hmsefRwN7Wyn+A5EwSNeQzUiED4rG6oNEuuSeS2Olj4NI4ntZ1NhqqXRczXcREFFAO6eZytavgYL0tfQubNYAcJdp2ahpMmdezQKTXzmfInfZ8pqsRbptRzNFm6v6Sb7t78NqDA3oZnnszeoOH/fbNGz35b79v3W5sP6LP9fsOnX/0tSnlbMhaE2xf+WFJuDVfNuB//GNEvdf0//h6bzDuHf0/edHNb9vyNJ/x9NYgRLExmJ1gAAAABJRU5ErkJggg==;" vertex="1" parent="1">
          <mxGeometry x="110" y="320" width="60" height="60" as="geometry" />
        </mxCell>
        <mxCell id="1RJ3AyyWOOnDJuZFzNRy-14" value="" style="shape=ext;double=1;rounded=1;whiteSpace=wrap;html=1;" vertex="1" parent="1">
          <mxGeometry x="130" y="390" width="270" height="100" as="geometry" />
        </mxCell>
        <mxCell id="1RJ3AyyWOOnDJuZFzNRy-17" value="" style="ellipse;shape=doubleEllipse;whiteSpace=wrap;html=1;aspect=fixed;shadow=0;" vertex="1" parent="1">
          <mxGeometry x="140" y="400" width="80" height="80" as="geometry" />
        </mxCell>
        <mxCell id="1RJ3AyyWOOnDJuZFzNRy-18" value="" style="ellipse;whiteSpace=wrap;html=1;aspect=fixed;fillColor=#eeeeee;strokeColor=#36393d;shadow=0;" vertex="1" parent="1">
          <mxGeometry x="160" y="420" width="40" height="40" as="geometry" />
        </mxCell>
        <mxCell id="1RJ3AyyWOOnDJuZFzNRy-19" value="Change system prompts" style="text;html=1;strokeColor=none;fillColor=none;align=center;verticalAlign=middle;whiteSpace=wrap;rounded=0;fontStyle=1;fontSize=18;" vertex="1" parent="1">
          <mxGeometry x="230" y="415" width="160" height="50" as="geometry" />
        </mxCell>
        <mxCell id="1RJ3AyyWOOnDJuZFzNRy-20" value="" style="shape=ext;double=1;rounded=1;whiteSpace=wrap;html=1;" vertex="1" parent="1">
          <mxGeometry x="422.5" y="390" width="270" height="100" as="geometry" />
        </mxCell>
        <mxCell id="1RJ3AyyWOOnDJuZFzNRy-22" value="" style="shape=actor;whiteSpace=wrap;html=1;fillColor=#eeeeee;strokeColor=#36393d;" vertex="1" parent="1">
          <mxGeometry x="630" y="410" width="40" height="60" as="geometry" />
        </mxCell>
        <mxCell id="1RJ3AyyWOOnDJuZFzNRy-23" value="Skip message" style="text;html=1;strokeColor=none;fillColor=none;align=center;verticalAlign=middle;whiteSpace=wrap;rounded=0;fontStyle=1;fontSize=18;" vertex="1" parent="1">
          <mxGeometry x="450" y="415" width="160" height="50" as="geometry" />
        </mxCell>
        <mxCell id="1RJ3AyyWOOnDJuZFzNRy-24" value="" style="shape=ext;double=1;rounded=1;whiteSpace=wrap;html=1;" vertex="1" parent="1">
          <mxGeometry x="422.5" y="510" width="270" height="100" as="geometry" />
        </mxCell>
        <mxCell id="1RJ3AyyWOOnDJuZFzNRy-27" value="Delete all messages history" style="text;html=1;strokeColor=none;fillColor=none;align=center;verticalAlign=middle;whiteSpace=wrap;rounded=0;fontStyle=1;fontSize=18;" vertex="1" parent="1">
          <mxGeometry x="532.5" y="535" width="160" height="50" as="geometry" />
        </mxCell>
        <mxCell id="1RJ3AyyWOOnDJuZFzNRy-28" value="" style="shape=ext;double=1;rounded=1;whiteSpace=wrap;html=1;" vertex="1" parent="1">
          <mxGeometry x="422.5" y="630" width="270" height="100" as="geometry" />
        </mxCell>
        <mxCell id="1RJ3AyyWOOnDJuZFzNRy-29" value="" style="shape=image;verticalLabelPosition=bottom;labelBackgroundColor=default;verticalAlign=top;aspect=fixed;imageAspect=0;image=data:image/png,iVBORw0KGgoAAAANSUhEUgAAA5gAAAKhBAMAAADH5BxfAAAAD1BMVEXn5+dYZfL///9IV/OfpvIzCjFlAAAgAElEQVR42uydC3LaOhSGHccLwIgFUG4WYFVegAHvf03XNiFJkwB6nBfwn850Rm2nnOjzeUum2p1kW53E4LKuqnHUVKMZh1kJk5vz79K6gtuq2bsQ1opqTB/fTjy3gFm4XEi2bdvrqfHm23bhCZgly+3ogp+2chJXq6nx2p40CH4zAGbmcjbKE8l5Kw9qWh3POrSzedaAmbzcNtPWfaCcYHZaWm2/aLGYZwWYKcttNbqvJGfxWlr9+aZICJsBMKOXzT58R3kKmipaHb9rMruMETCjlrN/bX+KWytp5X5Rpp29LWDeWjbup1GepNPR6u2COs5vasC82mtpL6FcgqaGVn8uKeTOOAHzt+XoLqNcihMNrY6XNZqdbQ2YF2qRKygnWaso6a6ptFgnYH5fNu4Gyrmjp6Dk2y2tllQIML8sb1rlKWgqKPnnpl7uvVCxYhbznOn9jzSWb/tfi5EfuzYoKHmMUWzCqbR1/y71YW7jUE57tlJQ0sWpFvwAmFW9d3Eo56Apr2TjI3VzH02+p4U59wjaaAnySr74eO3C5qlhNvsQv1nvYzBZJY8J6rWnTOgpYdbVPsUsz2MwWSVdmoKhHZ4T5piI8nx2RFLJxqeqGDZPCPMtzcP+GzTFdH7J0NGPzwZzDMlm+SVoiul8zFHy3TifBWZUw+dK0BTT2eVo2ar1EBRgbvd5KD+DplgsyNRzygYOzwGzcaHNlSAL80/uQ9f6sHkGmPlm+Rk0pXQ+tgWq9sOjwywxy/eDQIIwXYmu77Oxx4VZZJafQVNI522hsq4dhGFKDnrLzHJ53CVngy+FMKdEaHzU4fRLqVkuM01BmK/l6n7kQQ8Fs55cbFsubiUI80igcPDD48FsHAXLKWgKwvQUCp+N84Fg7gPJzkwFnBzMFyKV3WKcDwOzaWnM8hw0ZWC+UunchrF+GJiN82T7sgRNGZjHlo7m5lFgkrnYRTZiMB2h1nOz9gFgbo+hpRQvBbPxtHoP9w+T0sWeZIhUY1f4I7zQKj5ltfcOk9bFnoPmlc+t5+X84qBxv9+/3wcJk7y/52K/n/5mnK+2VLde7XMkVrwN81HRO4a5Dy25dNfS5plhu9AL59vX59eVuNN5yI+/2pyoXvwRHLnmwR/uFyZ1uPxoG/z83MkUPyC2fvrVXr5WOXfAJ8LTv57f7jMxrX79ETy96j4M9wrzzTHsx5IB/dtbasbF4nyb+HG+Pduqn5AO336EFw7lP3u1dwaTPlx+tA0+K9hxMUdf9kmTsS5Ex6/v4HplUX4KnPd4C4wjXJ4v3VbLK/XG9iMukjwk82MxmeicGdVlpwyuB06+s3tMMLd8LNtuzlbnV+rRW75zp5ceTj8Cm/5hqTjvCObW8bFs28W38v3382OyGT3j/z/cE0ym1Ofz2W65hfNhWfoHdwOzEdjt+xamg5gMMEewjEhqh7uAuQ9gFX2cxDhMsIweo1iH2RzBMj6ptQ2TfuD10K52ZRkmWKYmtYZhgmWqq12ZhfkClsliFuYRbJJN82AU5haGmQ5zbfQWGLxshvRGh9PwsjkJ7WATJgwzK581CRNeNq+rZxImvGyeaQ4WYcIw82RlECa8bImfNQYTXjZXBnswYZgl+awtmPCyRX7WFkx42aJ81hZMBygl+awpmPCyZX7WEswaXrYsnzVlmfCyZfmspVtgb/CyJdKbGk6/AkiJhNoSTHjZMj+7NgQTXrbUzxqCCS9b6mcNwYSXpejP2oAJL0vlZw3ARPunXMzARPuHys8agAnDpPKz+jDhZcn8rD5MeFkKPzvYgAnDpIDZmYAJL0si3gJMjDIJ/az6LTC0f2ikMzCcRvuHyDJ7AzBfAZNGQq0PE16WyjTX6jDhZemaQOow/wAmoZ9VhonChM7PHpRh4g0jpPmsLkx4WUpRhgkvS+pndWGiMKGE2anCRGFCW5yowsQZS9ripNKECS9L62dXijBRmFD7WcVbYJhLU5tmrTecRmFC3wRSg4mQSV6cqMFEYUIuXg0mChMuP6sAE16WHuZaCSa8LEdxogQTExOOJlCtAxOFCZuflYeJkMkhnQpMhEy+4kQcJgoTvuJEHCa8LF/QlIaJiQljcSINE4UJl2nW8rfAUJhwwRzkh9MImVwwe3GYDbwsW3EiDhOHDDj9rDBMhEw+WUnDhGEyFifCMOFlWYOmKEy8YoQ3aMpaJgoTTpidKExMTNg7enIwETJZJdSCMHHIgNnPriUtEyGTVzpBmAiZ3MWJIMz/AJPZzx7kboEhZPJ39MSG0wG7zd7Rk4KJ8Re/iMHEuTyBjp4UTIRMfpgrKZjwskJBUwAmQqZEpSkEEyFTKmgKwEQvTwJmJwMTXlYqaPLDxPhLRIIITIRMsaDJDxMhUyxo8sOElxUrTthhImRKmabALTCETCmYB/7hNEKmWNBkh4kL03KVJjtMXJiWqzRrbpgImYJBkxsmQqZg0GSGiZApGTSZYSJkSgbNihcmQqaknx14YeL4j2jQZIWJkCkbNFlhImSqBE0emAiZKkGTByZCpkrQ5IEJL6sSNFlugeFeprB4xuE0Qqa0nz3wwUTIlIa55oOJe5niQZMNJkKmUtDkgPkfYOoETQ6YCJnysuaCicG0vHRMMBEytYImA0x02TWCZs0DEy0DraDJABMhUyto0sPEYFqtbUAPE/mPioSaAyZCplrbgP4WGFoGOjBXHMNpeFmloMkAE69y0mobMMDEjWktGehhImTqBU1ymGgZaMmGHia8rF7QpIaJLruenyWHiZaBHsyBGibyH8UMiBomvKxi24AYJloGmkIMEy0DTT9bk8LEwTxNCQday0TLQNMyk7607+asDPmPbgZEOpzGKQPlHhAlTOQ/ym0DSpjIf5TbBpQwkf9YCJpEMOFlLQRNGpgImdpCCBMjExMZEA1M5D8mMiAamMh/TGRAJDDRMrARNElgIv95IJjIf9QlDFQwkf/oZ0AdFUzkPzYyIIpbYLhla6EHRDScxpFZC362poGJ/McCzAMNTOQ/FmCuaWDiXZYmMiASmOj/2BASmMh/rGRABDCR/1jJgAhgIv+xkgERwET/x0oGVA4T/R8zPaBymEhmzWRA5TD/wzZayYDKYSL/sSLrcpjIf6xIV3wLDCHTTjpbPJzG/Xc76WwxTBzmstQDKoSJ/OdxYNbIf+zA/FtqmdhDQxlQIUzkP5akECbyH0t+ti6DiWGmwQwoFyaSWUsw12Uwkcxakq4IJoaZFtPZTJjozJoSXwTzP8A0mAFlwkT+c18wrw7HANMWzK5kOA0vaywDKoCJZp61DAgwH0gKYKKZZy1oDvkwkf9Yk1U2TEymzUmXb5nYPJPpbBZM5D8209ksmJhM28uAsmEimbWZzmbBRDJrM53Ngolk1mY6mwUTW2cznc2BiWTWaDqbcwsM74yxKHXecBp3pi2ms4c8mEhmLcoaMB8onc2DiRcgmkxns2DimKXNdBYwHygDyoKJysRqOpsBE/kPYEKYYf7NgYk2u9XaJB0mLoCZrU3SYSKZNVubpMNEMms1aNbpMHFmxGw6m34LDMmsVZir9OE0klm76WwyTIRMu+lsKkycGbErgPnMMHGa3XA6mwoTyezjwESb3TDMv6mWicrEfG0SD9NEyLQXt008430iTO02e1jELb8b4bjo4k+/Kz/jiTB12+wTwHGoFq2asXVB30JnHcZh6YZW475VfsLqNJiap9mD3wxftNo2e22c0+ePVV1tdx/f9qKK0yXC1JuZuAnlt/dk1NXogurTNX7ftukJ03vAwiENplplEtqh2v7Uaqu3dy5sqvq3N16pPWDvb4SOvgWmlbWFzYVXqm4b55U8xVBfeLPyXotmlzacVtu4y9/2oENzUml76Z3najT7JJg6bfbZCK58dcfb0St4itnpX9JKzV0kwXxRMoLq+hfRidOcWF77OiYtd5EIU6UWvuzQzkthmu8sr2nVaGQXp/chxsLUqEzCsK1uwdyK0nR9dRNm1QTrMBUqk7C6tW3L0WxBt+Z8HQGzepGn6VYpMOV9h9tUMTB3b3Jb569c0fm63MuHzS4FpjzLvo6DuRMzhHDtVRCakfxcm0TClK9MfNy2Lc0pL+QqdrEw35zKdlmFGdbxMIXm5svXdUdqJT9jSoApXWa6fhcPUyZsnprZsVpJO1qXAFO6MpmsIAGmxNa5zS4F5ptwRrvUJpEwhSsTt94lwRRwtL5Ogin9DcBLbRIHU/hF+67fpcHk37qbXzv6YymcA63ib4E5eZ9x/U2N35fcCvo4NfTeZ99FD6dlj+a5vkqGyZw+hiEZpnBo6qNhyh7Nu/UtOr8uebeu36bDlDVNqzD7KgMmq4rhkAFT1jR9NEzRGvhkmKkwWU2z3+XAFDXN+YBeHEzJMvM8ZkqFyfjAhUMWTFHTnC8PxcE8yhtmMkzGhNbv8mBKRqe5djIH82P+mwyTzTQv7JOBgumr/I2FKajUacyaA5NNS7/LhSmZa3SxMAV1OlfnGTBfedR0XTZMyXuQfSRMQd/vum02TCY1l3vJmVq9+qeGeciHyRTa+10+TMGd85Ew/0g+XwUwWfQ8tdhztZJLHadCMwqmXJk57VwBTJYUyO9KYMrZgTvEwdR+vKKXRy4vm63VVhnmzxmdHMw+doD5+5Khgfbew8jWSmzvppouajjtBBUqgskwRPdVGUy5EweRMMX08VUhTHo72BTClNu8PgpmI6hPIUzyUuDcKc7X6vikMC+cSkpYkrdcfFUKU87PRsEUU+fCecGU5ZHBV5TBbIzBlPSyhTCJ6zq3LoYp5mdDFEypnoHrymES13WuLocptn1DDMyjpJcthEncBOp35TCl/GwUzFoKpq8IYL7S+goCmJXQTQW3irFMqZ5BTwGTNGi6AwVMKWPoYmBKuYkVBUzSoOlqCpivQhvYR8B8E/P5FDBJi5N+RwGzMQRTrFCqSGBSBs2OBGYttIE+AqbUSK6ngUmoburNQrmO8e8ScQtMCKbrMgaYvywJHYkb8tX4uhSqNF11ezgtpcqBBiZl8l3RwBQKVG6wA7OmgUno1PrHgynk8f2OyDLJHr6lViLRSqZS/+38uNIZ+54KJtmQJ+MC9+9LqQwoAqZUy4AKJlld7CoqyxSKVP1NmELny+hgkr0azpPBFJoI34Yp1QAayGAeKfeGRKu3J4PpKjKYVE7tf/bONclRHQajhM4CYJQFMEwWEF+zAPLY/5ouJiTd6WCe8mebSL+G6qmK0LFk2ZLNiQ0maHtbjcL8ixpVbDC5glrGBxOUzo7DzGODybSsW3TpSf8jKJ0dhwnKxE58MI/BwQQZsecGAS+3LDQLXjaYXOlswgcTk86OwkRFiJoRJjEFfj6YoA29bMwzYXM3G0ym8ccJE5POUjZ2Cgy0AcRTOWT8omBXkmPSCuOZp7HiNGiJxAmT5Vuf3aWkTFpREDBBu3kVJ0yWpXFXX2XS6oqy4iDMIyxA8ME8fipMFQbM/8KDmXLCBK3WR2BidvO4WqcY53lVcsLE7KO9DcDfMDFaXIKDmfPChPiEHoH5FSNMjtyxYoWJma3e5vlfMK+w+MAI8/qhMPM/QcAsg4N5YoWJWeHRCEzQd7aCg0kxwsy3CPOLzS5sWiH386wwMeujavMwCWZHO0zcbh4nzB3b9LMpmMc4Ya7X+nH0hUurqx+YLvppRpVIGOuZLI0jiz/iYHkEbc4OFqd3AjMmmPkwTIwOp63DhPbn2WB+CcyYPPOto9BJq398MJPNwUxhjZYbh5l+kGdm4pl8XmGFSZ8KU0fpmfkgzFzCbGCH88eTDytMJWE2qnWmwNyQZ1YDMPcCMy7PHIKJOjYtMDk3Zy0w/36sZ0aazeYDMHcSZuPyzHzgFBjKM//jrWcyTPWP29/iqme2nXG24vQ/0Hg68cI8fi7M1A7zK06YHJ55iRPmxQ7zGifMncD0CHP7PUCgTe62D21jMPNPhZkPwKQ4YX4xDfFteWakMK9MQzy6jvbf2ccLTJAGAZ41YYZZ+IeJ+5a5nAJzEuO8wAzvSB/zKbCjf5gwFZgP237qyelAYPIeg8+Dg4na5P6VfWwAJsvsoOKEmVthwlTgvTqGZwyywkRtcv/KPn5Ww3YoFUwjEl89k+dSp5qznnmFwbQWp2HjyfSu8MHcBQczxcGsbTCvkcLMg/NM8g4TN55MuwMfTJ77ZjNOmPkneSYrzE+9CToUmJx3tKcfe0d7F1C2BJMppilGmDsYzNwKk3LggGKDybXVwQkz9w8TpwLnR2rC++IQMvk42WDigkOA3wLj/HwUfRZMFdxX+t5OIa94zJFe4R9mzgeTK6Yd2GDulX+YSB2I72OoxGcWgbkwC+OCyVa34/tM8VcAYfaIhHnigsk2BNm+Bo9MZs0Q7D0FBoVZcdUz2Yqwv1r9V2gFTGZNHba3OP1XYUdUYKc6iOugYQG1YwgwH5fVBdQ7ztWaDY1wQXjm4+OPAXWoaiaYWDtaYP5DDqj7si6opkauNjNk/mO6VnthfkFhKh6YjCOQq82MPg8m8cDkdAOer3pip8wmnPTCvGJh1iwwOd2A53u7u0+EeeKAyeoGLyFrqVYp2IxBwOy2DVbC/McK8w+HZ9InwtQcMHl1PjHAxE6Z5mBpL0zskOpWmutgFpp5O2U9TOyU+RpN/MG8rzTXwWR2A7qshwmOb4F45n2luQ4m82qK/lsPE23F/8KA2S5OwqpPrK/l7BXYiqf+U2A5GuaftZVDdsvpdG098wttxaq/OK3geqyFyZ5sPK4DWq4VfSpMfVkJk5yMrzUwjyoMmPBo3/rBGpgOLNddVbpYq7+BwMQPKuMHa2A6sFwXZxdrdc0/1TNNnF0D8+pmfK2A6cMhQvFMytbAdKKwvqyBCc9lf50N8OmZuVoD80u5GV8rYBLehHkonpnTZQVMcjS+lsP0YcJ+mDsfMKvlMB0ljm377EKtrnkoMH2E2VzXi2G6stzyrYzChwVVMJ7ZfWcuqOX58q0MLxakfpg+WD4722fDdJc4Zkth+kh/goKZZ8tgFu4sp9JlMP+qcGB+5T5dcy5MhyGN/iyD6SX9eYX5rIb98wOzux19buWQnI4vf5drzp/i077itC+YaglMp7kGZUtg+nHMl1aXxFULxryF3VyYbnMNtQCmJ8cMDaaaD9PxIoCy+TCvucDs1gIzv7HoehHwcE0PB7h5YF69wVRzP6ZwdW05mnv/fkG5wHxGtdDyxss8mDslML930ALLGzvXnHx+SecC8zsHmgET4gU683fkZeYWR2AwnzccTIF5xExPasZNMv6CbIgwn6WwKXfFYCxH0y8f8RhkzQ5aH0zyqRGp4FKN6WmZVzeg8GA2jhBcqjE1LTurXDzzF81JJ/yOhIwWk0747XQuntmbBI3dZEZQL1ATZvK99my3P32nwHLfMqFf4wqOaNXoaYWjbx94uR/0+U/lW6smrA3DhLPM9Z3mQAs7KYHZT1PXQzALD4bT7Za7Vau9f5ahwmxoHoYCmvIULuzteDoADwgV5iOn7YO592U4VdtgnnUIJgsXZhPX6rSvv9if4Uy4KPo+jkNBsAzYMw3OQ50UL2YrkptXw2l1+w2z2J91IAarQoaZa324vVypfybPhmt+//ZyHf/trHUo5joEDdPgzA93Z9jfznkILmCG01OlVsFgpAocZpN16IeEoxY9VMqDkj6YexWWjrlSiigslRp9VGhmisAzRbblmSLLYR4FpnimSEAw/XwnR4QPZk9xWmAKTBGBKSIwRQSmwBQRmCICU0RgigjMDQkJTPFMEYEpIjBF5s+ZUs+MXJQUpzck0jYinikSiWcKTPFMEZkzRcQzRXo2DQSmwBSJBKbMmeKZIuKZIuKZIgLzY2BKPTN2mFKcFpgiAlNEYIoITIGZpIXAFJginuUkMDcjJDDFM0XEM0XEM0WWe2YpMLfjmQJzAzDl8uDYYcpN0AJTJBaYYpYNwSSxS5RLk0w8czuSiWdu3DMFpnimSIieeRXDbMczBaZ4pohnmHUPzFRgbgemeKbAFAkJ5rMa9iWGiRLmpa84LTAFpohf0anA3I5n9sL8J4YRmCICU4QJZtkH868Sy8SYAAlM8UyREKUXppyDj1KUwBSYIgFKJTAFpkjoMJ/VMLnWMk6YSV9xWjxzQzDFMzcEU870CcxForc9cJCvd/INkw60YZqkbuQdJpBlmlz1dlnWKTD/sMCEDSdl6qlnvVmWjS2vMJqZX5hUmzVuuU2aukqMVQuYMfthpqDf7z5fXpb7DdLUh64Zeaf8eiaopV3VHcyGptoey0dnOSjQNmHOI0zKigfM8ritpJb07fuYACjueIVJj1uo77+6paS2SX1+nPlIMYHWAhNzpq8Lss/f3U4aROrycoCnhARam2ciWtofQfb7d7dCU6v09TRWedRwmN/VMARMlXSv/F2F229i4tSHH83I9xdMz4AXo7S3OI2A2YyjN5hNGhS9c5LOfr7R4wUBiz0q+2ECWtqrogdm/KFWt6nPO0xA96qywAT8dJb0wSzLW9QrzibElr0wEfX+8GBGPXGanQJvMG2eCci+ToUFZrmPdcVJKittMN0XT6iywCzdZ1+qtsE0ZZQYnbOZLq1vBNiGMWvbfpil++xr4NWLGEOtPiSFfXg6fx+TRNtgAgJtZR/H6T62rJZ0ndiygDJ1/zZUlXaYgEBLByvMJE3OUTmnvu9N2rIA9yNTpUMwAfuJ9tzP1HQjyoPIhFg7zKP7OUtfykGYgECrMzvM5jGWPEirS2p5BRBLenOLXzBLQOHmTtMGM47dPVKH1P4KZVkA5ovHzr4dJqJC3oaHAUuE75xaDb8CgmUXZAdh7gHxQV8GYYbunGTdv+seC4BH0OH9d39XwyDTJqn6/Xd/PKbJLVycZPYJ3nV+6dkAsKz6TPeuEaAM13VY2GA2j0WosVarm03n52WvAM2bOD8JZokow3U9FqXdMPsQnbONsCMwETVpXZcTYSL6Hd46Zt7VaJxThxdhh3XGBLb71s80mIj1yYPmoGECi7VNhC1HdYZsSbarkokwMY1lLc2RkLUP5/SfVoe0HIUJYaltftDvEoijCq1vjiUTRSB5bTNZDmfg90cIy+5TJlNhYtoELSnZ62O7TFHeUeb1kJLPhQCEZVXOgwlJyYxvjsI0cvaLs/n1W1JMgIkp4al0LkzQwZffDe79dkoLjzgbr7wl6biSCajJUA8s0W1/2UNO+NGD5tigLzwFW21WI5PCB+gwOB2S+TBBx5juxfoJ01FZ3vCZrW7SnvGU+/5EEOWoSpfATM4KSHMCzBanRsbXO8ppMDEs23lpCUzQtGkq9hNhlskeNnk2v3OoJ2llHlHNaNpcmLAI5h51MP4wEWZrtmby1ACnbLOeqVqhWBpLjdnKWlcEBbWeI1RDj67ds0l6DpdxNX4cZENFi2pYq0GYJeqaBV3Ngdk8mtlTOSKpD7epatwfYTvI3QpzIUzMJm278VkXc2CmzezpgKc24bUe6Gvue4R1+z4aRZbCBN70VM+BadbozfTZWp9vnmxJpvPUwN01Rlm5Eibssh5Sh5lWbLttbmdiAEpk5skmuqbzoj0u9WlXmGthJjvYys6kanNhtmWys/EqtSa2KpO7zvzd+zkvHEuVrIcJ2ju4j70lMEvjTrcWqKYFoVXlh9uy34WeXBs6QDcdZgEbfF076hIPMeHxdjM5kcGjJsVVE54Pt1vzhulCmMCDTmafjAFmcgTenvooCcyF+Vw8t0jvpIynKvUkS0Yef8jzc4PReHU6/4eep0lwW8U0KaGYADMF3lhI3bmiJTB/RN2kvhmoP53wMSIbiLd9sjSu/nhE3vxnttd5YCKToMdiag3M+8KlsKJO04QDJjBeNclPwgYTmATl9IcFpvPHAliO64q+TDDTqxKY3mDqumCFiUtp6RIHTFyY1dlUrSbCLGEprSojgfmFGt2HyVpNLdmlqCSomtpF4vsRVFEyF/RO1mryf8SskCmLBSbm22k03CeyFCaolbaOBWYCumy5cAET1BOUxAITcnP2jG63mTARHWhVNDARnzXUMyedWeoTaMqMAqb7SfPev+UIZuq8w4vqeGA6nzRfvzTBDTNxfoeYSiKC6fiC3idLVzBLx8vNKiaYbuMsqbRwDNPxkf0sJphOd/RoyuHVtTCddl9SGhVMl5OmvpQAmC733KsiKpgOJ01dlwiYDmnSKS6Y7ibN+2WRAJjurq+gS1wwnU2aOitRMJ3Vw3QZGUxHZbDHTbKLtJpd0HO0ebCwb9bfo5sdPV2ly7RaBtPN5gFlscH8v7y7TVobBOIAzmAP0M56AEsvIAMHSE3uf6YajHmqT4wEFsJ//ZhvZH7jCuxLVAlM8qmrSsQsokkdHGZfwlLXxixxFWQVHCZ/uQFZbapjFphgdMTDZP/TpDcDwwthsmtSh4fJ3b86zfqsj8mtSQoPk7nc4D6FdwdM5kt3D4jJHGftxeyGyVoVFIoM4DA5DyeU3NHIgsmpGYoM8DAZ46zr9K6YnJoKEpPtcEIxvdFlMfkaxM6YmGx/mjZ/M6/y44zli7KAmJq4YqxqAJOpmtYqTEx14LNsAJNnrJFHxeSIsxTbTsvTBbb6yKB567FFy2cyNWpGfH+pXHL622P+Log0LOaB4XdpGsLM7/fzBhYzt6zr3TcLq2Pmak5RFhIzc7rBtg7MKpiZmnQBxuzz9z6NYWZ+1cMAY+ZcAtFt0G5jmOqUU3twRsbMOJyQDZ8yag5TZQzyog4ZMz1D7Zi73jhfLnmcnFXQmKlx9utDAw1iJg969NiYiW0K7si9Kt6XS9OkDhszLc6OAzybxkzrKrIKHDPhEohCP0nbmEkXtR4dc/t+lm5jkhvHNAkHzp/omJvj7P1qvXXM7ZpOwWP2aZYlVsWd7tt4RPFYCcylx2372bnNi3kZRTDNps99hEt2cMxNSc3r8dIAYV6PKPGhNqQy0TEPG7Y+x1LLKIS55Y/TG4m/UjEAAAGKSURBVAGY0XF2ykRDYcZ3oqAMZTcsU74zu0n2wjSR31a6FYzAY/bRf5eQmKe4bZA3IjCjikdmSzjMcaSpi4yy+JgRcZahAWFHTB1RTOK0EMw+xhIYMySsbVRZHj7mu/2s82NRATTmu1B7L8vDx1yfW3Y9XZZfRnHMN3V7pKVgrsZZZzstAVObYSXUeiMGc2U/+1UfAo+5crl3j7ISMF/mwcIFnhjM15d7pAVh9i9DbKVl1Mr+/V2+QACbFrz+uLyfdceu2jIqvetpcVfrLpIwl+4NyA2sZc5NYF6jwMJdrTWiMA9LIbbmMiq+67cfJ51lYT7HWeKvjG0Gc9wH2afeL1GYT3E27HzEYhozPOyDrBGGebAPP0ttRGM+HFKuUVYY5n9x1k297ZIxzenrxzl22MrCnOMszZlL2ZinH7/cHGWlYf6x8ybWfAKm0moI29pwlScMM8TZW4bkMzDHvNi4rQ1zDIRhjqmT6Wz5MZh6THN6IxDzt7NThuRjMMf7veEiEdMMU+Jyj2X8A8Qz8iIhDAjQAAAAAElFTkSuQmCC;" vertex="1" parent="1">
          <mxGeometry x="432.5" y="640" width="109.36" height="80" as="geometry" />
        </mxCell>
        <mxCell id="1RJ3AyyWOOnDJuZFzNRy-30" value="&lt;span style=&quot;color: rgb(240, 240, 240); font-family: Helvetica; font-size: 18px; font-style: normal; font-variant-ligatures: normal; font-variant-caps: normal; font-weight: 700; letter-spacing: normal; orphans: 2; text-align: center; text-indent: 0px; text-transform: none; widows: 2; word-spacing: 0px; -webkit-text-stroke-width: 0px; background-color: rgb(27, 29, 30); text-decoration-thickness: initial; text-decoration-style: initial; text-decoration-color: initial; float: none; display: inline !important;&quot;&gt;Connect to voice&lt;/span&gt;" style="text;whiteSpace=wrap;html=1;" vertex="1" parent="1">
          <mxGeometry x="541.86" y="660" width="160.64" height="70" as="geometry" />
        </mxCell>
        <mxCell id="1RJ3AyyWOOnDJuZFzNRy-34" value="" style="fillColor=#36B37E;strokeColor=none;rounded=1;arcSize=50;sketch=0;hachureGap=4;pointerEvents=0;fontFamily=Architects Daughter;fontSource=https%3A%2F%2Ffonts.googleapis.com%2Fcss%3Ffamily%3DArchitects%2BDaughter;fontSize=20;" vertex="1" parent="1">
          <mxGeometry x="640" y="695" width="40" height="20" as="geometry" />
        </mxCell>
        <mxCell id="1RJ3AyyWOOnDJuZFzNRy-35" value="" style="shape=ellipse;strokeColor=none;fillColor=#ffffff;sketch=0;hachureGap=4;pointerEvents=0;fontFamily=Architects Daughter;fontSource=https%3A%2F%2Ffonts.googleapis.com%2Fcss%3Ffamily%3DArchitects%2BDaughter;fontSize=20;" vertex="1" parent="1RJ3AyyWOOnDJuZFzNRy-34">
          <mxGeometry x="1" y="0.5" width="16" height="16" relative="1" as="geometry">
            <mxPoint x="-18" y="-8" as="offset" />
          </mxGeometry>
        </mxCell>
        <mxCell id="1RJ3AyyWOOnDJuZFzNRy-36" value="" style="html=1;shadow=0;dashed=0;shape=mxgraph.atlassian.check;strokeColor=#ffffff;strokeWidth=2;sketch=1;hachureGap=4;pointerEvents=0;fontFamily=Architects Daughter;fontSource=https%3A%2F%2Ffonts.googleapis.com%2Fcss%3Ffamily%3DArchitects%2BDaughter;fontSize=20;" vertex="1" parent="1RJ3AyyWOOnDJuZFzNRy-34">
          <mxGeometry y="0.5" width="10" height="8" relative="1" as="geometry">
            <mxPoint x="6" y="-5" as="offset" />
          </mxGeometry>
        </mxCell>
        <mxCell id="1RJ3AyyWOOnDJuZFzNRy-43" value="" style="shape=ext;double=1;rounded=1;whiteSpace=wrap;html=1;" vertex="1" parent="1">
          <mxGeometry x="130" y="510" width="270" height="100" as="geometry" />
        </mxCell>
        <mxCell id="1RJ3AyyWOOnDJuZFzNRy-44" value="" style="html=1;verticalLabelPosition=bottom;align=center;labelBackgroundColor=#ffffff;verticalAlign=top;strokeWidth=2;strokeColor=#0080F0;shadow=0;dashed=0;shape=mxgraph.ios7.icons.messages;" vertex="1" parent="1">
          <mxGeometry x="144.68" y="525" width="100" height="70" as="geometry" />
        </mxCell>
        <mxCell id="1RJ3AyyWOOnDJuZFzNRy-45" value="&lt;span style=&quot;color: rgb(240, 240, 240); font-family: Helvetica; font-size: 18px; font-style: normal; font-variant-ligatures: normal; font-variant-caps: normal; font-weight: 700; letter-spacing: normal; orphans: 2; text-align: center; text-indent: 0px; text-transform: none; widows: 2; word-spacing: 0px; -webkit-text-stroke-width: 0px; background-color: rgb(27, 29, 30); text-decoration-thickness: initial; text-decoration-style: initial; text-decoration-color: initial; float: none; display: inline !important;&quot;&gt;Chat history&lt;/span&gt;" style="text;whiteSpace=wrap;html=1;" vertex="1" parent="1">
          <mxGeometry x="261.86" y="535" width="160.64" height="70" as="geometry" />
        </mxCell>
        <mxCell id="1RJ3AyyWOOnDJuZFzNRy-46" value="" style="html=1;verticalLabelPosition=bottom;align=center;labelBackgroundColor=#ffffff;verticalAlign=top;strokeWidth=2;strokeColor=#FF9933;shadow=0;dashed=0;shape=mxgraph.ios7.icons.messages;fillColor=#990000;" vertex="1" parent="1">
          <mxGeometry x="430" y="525" width="100" height="70" as="geometry" />
        </mxCell>
        <mxCell id="1RJ3AyyWOOnDJuZFzNRy-47" value="&lt;span style=&quot;color: rgb(240, 240, 240); font-family: Helvetica; font-size: 18px; font-style: normal; font-variant-ligatures: normal; font-variant-caps: normal; font-weight: 700; letter-spacing: normal; orphans: 2; text-align: center; text-indent: 0px; text-transform: none; widows: 2; word-spacing: 0px; -webkit-text-stroke-width: 0px; background-color: rgb(27, 29, 30); text-decoration-thickness: initial; text-decoration-style: initial; text-decoration-color: initial; float: none; display: inline !important;&quot;&gt;Auto&lt;/span&gt;" style="text;whiteSpace=wrap;html=1;" vertex="1" parent="1">
          <mxGeometry x="549.36" y="690" width="160.64" height="70" as="geometry" />
        </mxCell>
        <mxCell id="1RJ3AyyWOOnDJuZFzNRy-48" value="&lt;b&gt;&lt;font style=&quot;font-size: 18px;&quot;&gt;Main Window&lt;/font&gt;&lt;/b&gt;" style="text;html=1;strokeColor=none;fillColor=none;align=center;verticalAlign=middle;whiteSpace=wrap;rounded=0;" vertex="1" parent="1">
          <mxGeometry x="375" y="260" width="60" height="30" as="geometry" />
        </mxCell>
        <mxCell id="1RJ3AyyWOOnDJuZFzNRy-49" value="" style="whiteSpace=wrap;html=1;aspect=fixed;" vertex="1" parent="1">
          <mxGeometry x="770" y="310" width="610" height="610" as="geometry" />
        </mxCell>
        <mxCell id="1RJ3AyyWOOnDJuZFzNRy-50" value="SystemPrompts Window" style="text;html=1;strokeColor=none;fillColor=none;align=center;verticalAlign=middle;whiteSpace=wrap;rounded=0;fontStyle=1;fontSize=18;" vertex="1" parent="1">
          <mxGeometry x="970" y="250" width="160" height="50" as="geometry" />
        </mxCell>
        <mxCell id="1RJ3AyyWOOnDJuZFzNRy-51" value="Change system prompt" style="text;html=1;strokeColor=none;fillColor=none;align=center;verticalAlign=middle;whiteSpace=wrap;rounded=0;fontStyle=1;fontSize=18;" vertex="1" parent="1">
          <mxGeometry x="925" y="325" width="250" height="50" as="geometry" />
        </mxCell>
        <mxCell id="1RJ3AyyWOOnDJuZFzNRy-52" value="" style="shape=image;verticalLabelPosition=bottom;labelBackgroundColor=default;verticalAlign=top;aspect=fixed;imageAspect=0;image=data:image/png,iVBORw0KGgoAAAANSUhEUgAAAHgAAAB4CAYAAAA5ZDbSAAAAAXNSR0IArs4c6QAAAARnQU1BAACxjwv8YQUAAAAJcEhZcwAADsMAAA7DAcdvqGQAAHxDSURBVHhe7f0HvK1nXecN/9a6V1+7l9P36TWnJCc56b0YiDC0BwVBBBlQUVREEURQZLDPjNieEdBxEBkHRSBApISQHtJzSk7N6b3svvfq7f3+rrV3zkkICvq+8z7PfLz2WWfd6y5X+dff/2p3TFKLz7+n/0NTfOb739P/phTjbza1j8///v9F+ncN/j88/cAMjinF/xc+MpvFhVn52J9m+PXCa/9SinFndeb439O/NcV+9ud+tnXvt+/RjTfdpp07ntLa9Rdr/+6d2rnvkGrFCY1NTs/cKkXq0sv0uJLKh98t/ha9/C7NX3FOT33qDWpVs4r3ntWCdcd07JFLYVUMFtfVtfqQpvet4gkzz4xuMzu/cp8K+1dz9rynKOmMvqmrOKrrpltu09pVS7Vt515t3nSR7v7m/brl1mv1V3/5P1RvNLTp0ktVmphUq1XV/oNH2xlckOLxhN7+jnfoyIG9uvuee8O5G2/PKZOMaWyqoQVzEvrS59vtW7U+pWuuyegzfzmpVRvS2rujEs53dMf142/v1Bf/rqBXv6FDd32+oBMnauHabJrTP6AlK5cplczwC/GsVPTEE09oy2WXKZlM6tSpU0HGG42mElGkWCLSxOio1l60nnMN1eo1PfXEk7qM+5966qmQ54Z1F2lkbFSnz5xRZ2cnz8c0OTERrjl19W1UqXhMtfJ4+J1MdyudmacokaHdSdWaY9DmlOJ7nt2mTes36Fv3PKhUvKXPfuazWrBwka6/4VoVS+Xw8GwyI/Kap6zm8JmrHN/HH7pS9ZFl6ppX1HXvvkvR1Bz1rxpRJt/S9e/5kgZXn9UrPvyPyqQjXf6uO7X46r2av+6Mll51ULf92j9q/pIaeQ2G/Nr5DpoWIT384AOqlOt64tFHdebcpG664Upt3XFQKxfPD9c3X3qVPvrR39BNN96on//5n9XcufO0bMmQLlq7NlyPR0ldfuUWCF4Kv52WLE+odzCudetSSnfENbQspU6+L78+rZPDTS1cmNQrXptVIhXT6nUZbbkho0cfKuon392r7U+WdOX12ZmczqdF0OviDevVOzCojlwOJVkfzl98ycVauXylbvuh27RsxSpdsnGz5i6crzOnT2v54sXK5vOa09en5avWhPuXLV+u1StX6tYfulnxZEI33HRDOL906VJde/XVuv6663TJZZsVi6eU71+mfM+KcN2pb95VyuQWanDZTYqnupXvWK7u3o2Kv+KVd+jxJx9FAiINzpmvlWs2auvTj6kzl9Eb3vhjM49/rxRXVO9VrNajpS9/ROlVT2hgYUnNZkJzrt2q5NDTmrd0XNvu2STNO6QFlz6lOeuOaNXbP6PqcL/2fHuTRo63rcFLpXq9rgVLFqMUSD7CV6zUVK3VsCRtjS9MjejPPvk/MC0pzV+wTOuWD+lHfvRt6upIh+v1WknveffPa/7Q0vDbqdWwJvHdamEFYkKhrBzBtlRrLZXQ7MNHG0HIogT/x5sqlVvc11Sl0uLeWbdzPqXR0mf37NOpE0fJu6UkGupkTV67Ccb39qlvzhwYe1bdXV3q7OnV1md3amx0ROVqTfmM3Z7UCcOvuPRyzUdglixZom40d+PmS7VowQJdfcM1WrVmpaYLBcVjCZWmj2rOvBt5qq0OlcpZ6phWpXpGzXpRyVSn4tQj/tnPfFpnh6d1+603qQpBVy5fqN3PHYVmeTKeEx4+n0wGN7DJdyN8Yq2Y6uWsxo/M19SBZRor1LR8y15NH+9TfXJQRx9br/z8Y1q86Yymx3p0Yuc8jexYrbkbTvBsShvfdO9MXvWZ7/O++tYferkyiTgNWQjxDuns6JRe/9qXa2TGVNUgzvZt27RwaEjNBq6gs4MGTuiJp7eH6zbR7/vArymLNsymrjmRlgwllMqjxWsQxEVoA8eFQkw/dFtWRYxWDQgQYcaXLE/rzImW3oyJ3vFMTf/Xj3dq/Nx3M3h0ckLHDh4KJndgoF+PPPxwON8JM+/HNTz0yMPKRnFdcc3lWrBoSIP9/dB2oVavXqc89zz+yHfC/blcXj0Iw+kTp9DkVZqYLqparei5Qwd0cO8+BC6lIwcPI0Rl9fRtUaN13n02EObC1EGVh0fIE82ORZj+Al9RhDC3FM/E0bwXVd6izbXnac5Dva2rkKB4YESQHa41+TPr6/GyEs2MGrGKolaW71L4bsaq6FyC32XFYepsqOBs20dtBsQ40YjVNI6f99WYy/eR6zCTYnHKnq2nL4dMcB58Wgjb0mWLdQhiz6YL8/Cf77swPZ81p+N8QtbP58sHd2t74ftoto2Jms6rSV5r8Y0LMdnHy4r1p9TaOYk9zUkDaCSa3HpwWPGrBzA19tnUry/J9/dKswVemM6f6+rq1OTk1AvOvTC5gpx/dkrN0+ddUmAwmq2uQ2s0kuvi1HnAkzhcUWNJWokjVdUXUDlMVopz5RVZVzf8ZfZXMXtxmNNUDYlPHQCcACbMcuAEuWD65tP4rvYTrlz7bPv/dnkvYtjzB/6e/XXh/+EmEnnN3HbhufBs+PJ/JG5K7a8pPlpXfWlK8VIdjfc1ammuwQw/04RXjf60kqdqauUQyDlJpX5yUtWvPBuycYo6uHNVWrUnMYN/faUabxtS/FPHFH/5HDXf/KhiH16v5m3giGqT57+kxIFXKr59EuGJVL2xlxxm6zmbZuob0kx9Q/p+zzn5fPtc/O1PqnU35joVKbOuzwqBc6ON2a+v5raMqgOwpRuzuximYOJSWwtKtGBguaFmZ4SEN9TIRGqs9PWY0k8UJX5HdYqByS1MkT1Qsw4zzDt+2O9Rihr2aXzHyMMVipKR6qhM3L+jBBYAPYfXLVxFK4rhd7leq3OdhzDVLTKMuNXi43JiPNuqN3mUZyPKs1a5HJ6NuN4gHzM5lIPWxSG6OF+fE1f8ZE2VS+2rZ4lFeafKik5yH2XFKccOI/pITaW7dszcg9m9iLx+dbEKP3FA0fJORXvuUPx3d6uFBYwNU947Fyt+37CqCFXiTE3Nn14uveZh1XaDdtMmiJlxYXL5s+cuZNz3e87pfJ6t8bqiTELZJV2KVve0NTiGcuYOrtF0Xy/0gKBTVO4sND1ZV2mzoT8g53BVzcUQEvODFVXE7/gEoGcLIg3dYghBvIQ2A0JircDiUGC7MmZogmq4ItbtmQrGDC7MBK7bxEKU8Gz4PaPZoe4+9qFxvP1/+/dsGe1wrP0d2MKz7dDLz1OqT/scAuHz8cNltdDO9FabTnKlXMQMK4XfWpLkHhfqOqPBby2pcufWdj2oY+/muKpvnqepX0JrB0DbJ16l6IM71CQ/TTcUf+tiRV85o1KsoSRa23jTIrVe+x3VH4Kg/5tS1JlUz42LVBrHdZBaMSQ+879WIPVZVRdTUSQtVoQ48DYGcmzMyygxBvI4hnm+Ja84qLKFiYuPlTHheaW2w1i0J5aHkvAnDkVbmGlQDgXYtyM0EKhpdAnBY5jEJicSoM862hsjL2ihBog10URTgblNnktQL1sC7GnQWDM4sm+jEdZwuwWctqUUrYV5TZ/jOmoe51yz1haGBJajzrPIrp8M8oLCYx1soikfC+Ay4whXgwsWjyAbMDk2Cj0OgqDfTnxK3j0bEqq9e6GmfurQDIP/g+pzv6jE9pcr9qlDisHgxAUMrsPgaMekKre04/D/HSmGBcos7FRlpDijwWCc7J6LVOrqoA0QyObGjYcgjd6EEgcrwTy3QJvJQ0VVNnVgsn0fMn6sqgaMjcwYSNNEG+Jos4lhO2emBJrCdDM1MIlrvi8GAQIq972mKb+dj38HSxCqiyYRdoUsYVPUSvAEz3C1fd2JvIPl4ChYAq44f5twczNUgSMEwOf9ZYELB5w3ugrXERhrctB218nlkFfyRBfm/J5QXs/FcZV+bUjFHzkYGJxEg2tzvqDEjjtg8MHvYrA1WD+3VbW/P8LT7bRWbwh9CKf1lK7RB/SwflvztEUrdLv26Svarr/ULfq4jukBXay3gvPK+qrerpfpT/WgfktTOqK0etWtlaFOUzpJfnO5a0RE9ZrUQSiF6yTFA0I1jbdVYVZdydMNpQ6Cfqch4GRL2bsnFY2gWWcbSh+C0X1o8/4Kml0HQNRUH8pxLxlh1qMpzhFuJKd9jEZM4dcKPoZ40/jKAoaaa3HyjU82lQTsxXk2miJ/yktyT6LAc9PoG+YuQR3jk1gK58vv2XwjwGQCCxM5z0nuc76U6/xDOeSZ4ndsptwU+SSKmGaOXZ7vT/KJuY4uk7Ij14n6RkUsi+vofFwv8okX26a81Q2oRtDjZ8387z/FOrACF6Q+GDNHG9QBU+ZrM0xKableDkuGVYFdTot1NQa0n7/V3DePMy0t083cSSVIPVoFKxcprwUIzJs5Xsz1V3LmFu7A788kxJX/Ui3lrouptgg7iVTXB1Nq9GCgBiOVbu9W5eKkqquSoEzM0yL88Er8FACoNRBX/r5poVRQDQ3mYwVs+DdxpE2/TauvGdw0baH5hGvEpgHIGnhhun3eIMz3uCsv7vsdt/CsfzdtrjG7LsPPBJM9++1qO1/usWm2+a5jPWJJP4tvxey28yW/cC8AjG+DKeffANn5Ppt6A8dwb8i3fez7OaP+vxhS9dPXqfwHSMdLJayU/16QsACxtyyc+TGbzt8zqv1o3jCM3qSv6ae1V58L5y1C0zqho3qEO76MDrp//nz+w9qB1vbzGcTGFfnug5nwhmPENNzj5JoTJNPuv0OjtuNTB8hiAkk/ywefm9yHo06mlDyOX+xCGxxu1BKKn6iBOOuqzsMUQpxmAgnnE0vW+M29Jg6MtvlvJjHVnPOxidxKEKbgJ/27ZeLzG6gOcyA0TGn4+SS/+Vh4mjAgnvQ17ue4LVCQIJTp3y7X3yD8iBCH77iFhfMWNtwQDHM5fv58PRozzxMsUB7mmXrEnBefputgpidB9B3U/9Zu1YsZJXeOKLa2TcAW8W3zfdvUcoTxW8+q+Y3Tqv/2LlW/cEL64kk1vnhcrQ8/q8afHwz3v1TqRe/6tC4wdBlGeDla6DQrAu3v9v+BWTOJoBTD/CgszaP17mfIIxCn1aWlXMFMzaTwjBtYe22kytW54HNjJWx2B9I8F63twXTeM65GB8SAMjbpiQdH0d6Eqmu53tfuFsR5BmZhRBEYzKgRJR+XFcyiy8T0CRMc2dRiumM2wShDNI3GFiEiv2Oct8mM+14+sWByyZtzAaWSj/P2tWBGw/PUl+9wzXkWERi+baptbhXy5v5C+/5WoRrybZts50t9/KHsFvfEQp58uC9O3RrpklJ/tlr13X1Kf+RZpX8i124zOKXx0BnF5mYDM+tNGP61M6oVQel7p1S774zq/22/6p8/1r7/BanNtBQGOAubrZmLdC3suTmc/+7U0nFtRUPb4wPGIyPayZk/0R59Cn3+cx3Q38PyD2uCo9lkUfxIDLOUv7SLeN8dFSBiTHZUosgCvs9dd+uzoGQk332xEA7F4iSMGIXw/DlsUpVvEG+8Zg01OEsi+cgPtGgCzvyRPzmQ5exvX8thCsM3VcEF+LiRI9ccBMhDXABc+1ny5Z6QF98GfI08msZ9Tfs4f4cP13JUIMuz/G6Qv/g0+e08W6E8hDLUC8Bm5B/yaucbBsr4DuX63nDe9QVPPJZS4rljhItozd0Tivozivb9cPCxod/6G9cHbKG/u1IJrGDjgZcOjYZ0ffCvY3oOjVumZ/QXeOQf1zkYZkYf1t26RO8ESt2PAQb8YpCPA8X2YL5tztN44B6t0QBmPQ4L55HfFE+13O32ohQ36nSIErsipfoyGjyUogE5VeZBzLkpVQeTSpyuhbi4lYbwS1OqLU4FRBqNYxLxybESWS/j/FK02mMDXZHSR2pKHQG0HedztBKOo+Pkg9lPc5w6WlXqJG4BUx+uc190EqB3oq70MYATv1MnAHZHy+H+JM/6+cwRQOBRnjnOM0eb4Vr6mK/xG5CYMVA8Tj64jxT3p/kkTwLQyDt9lGvO+wR5kn/6sPOoUpbzrJK36+e8yMfl8DtJHXzO7YmXcWE1BAbrFoj3q2ukvzqg2GvmKb40r9jWSTW/fSbQpfaJveGel0rWj1V6BbK0OIAsA6QjIOYN+jE9rU+0b/quFOlH9Q0YuxqmGpS9ChldwFEPoGoRfvh89+SFKaDo0K/wOA3+1rRy35pS/oFpZR6eUvahAp8pNbqQ9vmESybm3VMgTuJCQFfpEsKEvVXViZ3jR8pKPgcB9xPzQsjSmkjl1XxWIiSr0iqvAaCtwA2sTKi0OqHyqpRKy2KqLk9xnFF5RRIBkSrLCUMAcVWeK3Fcdjk8W1nh5xMqkmeJT8V5rSKvNdy3Mq7acu4h7+JKX0uqvKwV8izzTBnBrS2lLqtcnwhh9H08R77l1Unuj5FXSsU1Lhch5ZlQx9XUezn3c92/W7kcgBTvt7htXluA0dgw5r4zha3FX2PFhD92nN+a+m5tmk21wAw0nQ+UCn6yqDP83+LXOb7JhmDHwKrGFd/vErtA3QSqnG8EdD0H7bYPjmA1Ti089+IUuirjWLjeBy/SJHFwfC/OB4TcXMTJNLhsHKDSASpdgsklhowOl2lLUvU6/rDJbwLUWl9K0YGiSjdlQL7EsmNI/CH8IKY/RsAZBrqx23ULPvGhOyvwdIrSaH0DgeC3gQ+kobI0hbxDRwjlNByPu6uS6vir3VU5Y3XcNeoOF8xjDVAXuXMFgTU4SgAsGuTj0QGj5QaxbbyKL8ZiGQAmcTkGl5wmL9rWBGBRgNG1ieU42d2yHlUCNipOc1LHaPfoMBdiKrxjnxL/43LFsQz6pdWK/d5u1X9zrZIf2q/ax1Yp+vXdqv7u+T7sC1O7lbiMmRbbn/qsj9to2b9oMNchIh87QuiNvhpcGS13Y6JrGOa5RMqjOoTf3ce19iSFC1NgsBvZ+9/XqYim1Wlkqz8ZTGu9l2wvyoEwyfKRCcXxwdUbUWeIYDMTOgPgR/JgXbUhNNzxsUd7cHH1JQZfrqC5aml1Jc0aV9wNCpQNDAiZ+Lo7J4h52vf5vBvnPOC+Oy/CvS7Z5518zLnn8yEFaG7O4W/dO8K9HsN1P7l71VwLd4jMptCOULz/88ea5zqY4M6bZ0L442Pf11T2v42p+PN7YPAVRBMQ9b2rJRjcetMS6T3bFfvc5Wpc+W013P/8/+cUGBxhYbofX6vS/iiYTKPSWi9EA1x4fDuW5riMeR6ra3pLhzq3Y5ZrmI8e4mFMUrw3q+hUQcXL2p0eXc9yDU0lPoH21mDAFz8d51oz3MPUjINoU/j9cA0dCYMNBnAAGo9GwQVrYbNmzYKuPGuiRwigoZ3zDr7FhoJrdTL2ffgcyrEGo7U1QiaYlbAW+hFrtFnFswmebRgYwrSg4TzrvN1VCZwKAyAN8opjxRpmsCMDYvdyd0upb0yp8K49Sv7KOumqPsU29Sj2FwfUfN1CNX9uqxLful7V+XcqumNBsERBMF6cLFmz6aWu/38pPW+i5356ncbmAagIFptnSphdfM58GtaF+XIIgiSX14EWn5lQ8+JeteIAmYPExQCeBqCjsgGEuaOgVifEXtvhrGc+UO4FGveDJudx4XPOD+Z+1zkPXPjbnx8kzdYRzQ/WYvbY+bvebfPZTrT3SEXJr0+r8DN7Qldl/Axx66eOKHY/PvTdq2DwM0rcDYOXfkWJkdcQYs0++69JrsO/5Xme9mBDAint+fJKTawgzhvHpWeQUlBk9eKs0ufqqtrfAiLqCzBX+NXcMfxurq7WBASZA6IececHmmGT7Q4O4qiEw6zIvUOQDfVoEV/Hz3B/qm3umqhO5E4NtNnqE/fQIPcnMIFhgGFGg8NwIfm23Mvkc/hcPGkoJwwsoJpx8rH2GxOYHB4utAbX62GIQfUuLEeRK1lf5YzDP7RyVoNjaDguOPSRt30wf1SrhZbHUx5q5Jr/o5xqZ0sZGDz17l2KE47Ff2WtWk+PSYcLRCL9at51UtFPLFX9j/cqet+60LniUu0a2kf/+1JobdBghL/3cys0vqhT6QlOT1ZUXZuhVgCmcwTv3UaQAALMpwcBqiuzhBZVxU8RUoAgS2tnJR6TXOXcGfz3kH2tNcDFEA6533pZGgGxhvhef/u6Pz5u39f+PUsMfzv5vMtwuvCc73WyRtt3zj47m6dTi1AHl7MQ60SIZiBjvNBOs/f4eWuvk5912U6zGm3r0L6eIIxLfW1axXfuCr//n57aPhhe9u5bpelKj6LnIEIn4cUCtIU41QRqzE0ohfZNX51R5hn8Wh4yTIQranZBrBIERNuz28oBKccKxI4QyVoXR+NrBTS8ipaiHs0BSAytwogOvr2NxnkG7a1zb9JaVHe53Gff6Oes5Qn3KKFZ+PYmaDhqetwWXa5zH+XU3IsW+V4waYbwHz5Zn93fHUfLW5MwhvxaaLb7uJPcX/MQIXGt+7pBl2gtz+LPjXF9XI0RB3dk1Sw59OG662DL88C4pt+zR/1zrleqt9dzfZXMd+n0ga9p/vLXBGzRAFcc2fVXWrrmpzQxsU3dvZfozImvUm6fch1D1KOuiTO7tGjNj2jk1EPqmXOpzp74Nmi9pc7+jRzfrXq1PfDwb0ltBqNsPQ9u0nQ+rfgojcIsVxZDoa60YifRxi5M8sUJRdsramzIKHGOBkPz6BBauQKg1I+p2o3/JX6NTgOC+iAEJrkt/ZCZWDHCMjQXpdVMo2FGrEFJZjXOH5+Y/fZzTrOa6LwAYihp4gwm3D1Pnv0SrvtjPwmKP0195nF0mlxcjPNzUQBB5YmzB2efoU5cip+uqzHflma2XH9mED7HkWdk4IJstc5fxxrdPa3a7ds1d+HLVKmNqWdwkzLZbh3b9yUNLLxeHT1Yw/HtOrH7H9Q350p1DaxXpmuR9j3x++qdd7lyuSUId1ZHd35G81e/Wj2dGzRd3Kmp8SMIHCi9Z6lOHf4qILFIed9/SqzvkZbkVP+nkzNnqLEZbD/U+eR6NXbUVb6sS6kDhdCNFzS1CmOQttraLiXsZ4hnk9aECj6Y5xp5pB9fVneYhJZbO+JTmG9UuWWAwW+V0coFXCekaOHvrMENaBiliFXtN5H2OCi6Zs2CltbUVgk/+TyKJg/KqcU4N0V9PJiAcw8+2N2jCY9M4efN+PEKmg9KThFD15EI3Ewzi5Y+R92X5KkXAoK8JFDxGs/ES9SNOkSUHdGguq2AgQP3IS6KdyDkloYiVsN15JnEA5MqvGef+ufegJYV1L/wco2deVrV8oQGhq5VOt2t0eFtGj72bfUNXqlUflDZvuU6/MyfK92xQCvWvCt0m+5+6KOau+xlWrz0NTq8/29Vq5WCtXGUECPsGD3jyYfff0pcNaDY6k7V/ubQzJlZBtPgvm+u1+RibPUkTAJ0RYRwrSzUhpnNbqQcU1lbHsfMWptg4CGuWfDxz/U5kdL7IUcHFSNMagFEmgMQpkIoNIZpwyLYhzVW5sjT2mF/hpC4IRyd1yAnBGQEzRq0X4TRSF/cMUwTALa/oMZC/DihlewabKJNfBB+DKwQZnQgCO5X9nTeFubccXXsHBYE5jQJ7eoLctxnCwRDD3nqDgKA1siDJghMux7+RnBcb49F2i0MujzXHQZ/q6DqyzG7fZuV7upXZXpY5emT6p1/RTA4XnHQ2btOx/d9TpncfNxPpN7BKzQ28iguJIOGLlKtPKlUpkfT4weVzPZgwteHYt3pUStPITiTGjndnn77/abMn16u8nufDOMEsymg6CTocvE/rNfpUfzuVAOzm5OGy9KGDjXAFw20JMLMhW5N/GbKRAVlN6cqKvxYv9L7Kmgt4GoMojq8qlSRUEwb/jU6a7RdU3phhwpD5EMZEb6vgS9MJNFKULP9juPlOpKWQpuaZ4mjFxJ2VajgGGV1UlOQObRTqwqZPZ2IOD34TKxD3IPwU9SNmDPegSmGIWaHY+AWsbA11toZH20GTW/2pPCF5GH0fwJhW5dXzX6d5+sg8Hboyn1G/6D7RBoLYTSP1hvBR/ejwb+4z/T7V6c4wCeZ7gvy5PGARrNE+VkwxzQWCTNbm0IoU2o2PR2Ketf/eXOd2NCr+DUDqn7yuZkz7fS8D+79hzWaWJZHw4BHmFgPcscBTyZY6SKjSIgHz2fHbpM7MG0rMNfPTKt6KabPWoDdjaNJrU60pQuij8NcP+qhuxNo+Ep+dKMRBk02RB7ghWTtHjGEgz/0KnzHJ7gHIVCWX0ZMNsFoqgckmiB0d1y5L0UIZMzThbrR2qm6kiWEpgPho5wIl9GYyzOEqO3JgNyfRAAJf5p94IXDJcX4dpzf6KJsjza52zRosbWVMiZwKwnqiXVqZmxVaPvdU/jg8zMt/zWpa2CTuvrX4U461dm9TF3dy3Xy6N3KZ5aAWc+qNH4GsLVCyWReE2NbdXzPF2aefOmUesuK0HPWeHJk5kw7RUhPGC7MXjdH8V1w8CxSjeQ6HEjkQKonYcxym6+YMvvxb2hXdivX0brcNybUQstjmPMUoUjq8UKYCiO0IUHcmTheURJTbpScnwS14mBTRpyAm/h4TGm0LoYJT4w2lASVxyZjSqGxiWdB8tA44X5ejwwhIAmeTx6pKXOIZ/cg7dyQ4Nn46YoS4ITEIQM5fPOOktK7KlgCBMXxNYAwCXr3VJzcNyZhG/fiAlIuu9JQ+gnwhn10R0oZQjlPEYqoQ3KEZ0eqlMFvjzB56hB0anRAtIMIyGdAcv+GlMkuUCY/T6XCKXX3X6TpieMaH35cvb2XqVQZVld+vVKdHYqqGY2PblVx8vDMky+dUu9areqnXqi9Tm0NRrG67lmuscVAUwJ7hzQxCNPKoDU03N4Sa6gYfq9Vhkmj8BBIa9BSJz6Oj/tetLeC+TIyxQcG7fNMiNNcRxhSh2thmLHJx5P5Qr8zGokhbGsWDDOWigyK4hB62miZuoxQ9jysCnm4ZzLM9LRP9rg3CtWyubZfB7x5zFoem4XRBnFmZnyc53tpgU10kvKOTSs2353lWAkEM0xKmESIQf4tYxCbTHdl02YPskRYEluOJtY0cQgzPlxX9EhBhV/aY/r9q1MXoVDv3MsVJT0wXYGpZ5XLLsZ15HAjDRXGDivXPU/1UhHf/bQmzm2defJ8SuFOfmJFVp/ZX1LrdYtV/fz5iX2zCeVtd3Qs/NQalWr4LxBsHbNW78BHohmeDlu4Ma8EyDoCXbZAkx6njUHgCiFSs5fjGn4ZMxgbReNSPN8NMwhLEoRROoUGDqRU2wTA2jqpxhU41CJ+BUfntTaeNmuTbe2wW0g4kL5vTM2N3L9tWollHYFBsX6sCc+nDtRVeGO/omlcgWeR4Fc9S8NWyDFudA6r0Ut5ML6yGudrX88X/FQChiaPVAPoKqap95WdtvxKEr+nCDmLt1MW0YGfcX+5oWGYLA/uiAE8m6MV1Td1KvuJsyq+q83gmKMNzyCxkP5AiTKM1oM7gAZByP3bUmyBpH42Y6QwMTIgkBemLoT6wZfP1w1fP6sG90+7kS9KbQ3OxNR33ypNpHPBXNnnRUfK+FjiYiTfoUdjTRZzRWGezHYcM+lOiPkAhZMVVeejLgCRGKZZaLIKEJtQxsdJ+2FiVyOX5iCSZM0lf365HUGzjHh9PQAYGmxUHj8D0dyZxn3uZgzzvgA61DiQJIRO7q4sYDHmEofD6CbxegNfbCbW0UaDMVsCl+PbEwDB+twMWog1WZjkGlqMTJqVMY4D2PFEB88IIdkdNQcpr4Tr2FdVdZn7ApCEAn7+jvYCt/yHN6n0x7vUnLQ4UC+sRNcV80OZEw+d1IrWq5TWoA7oH8PgvEvr1TpKJBLh13F9Ozz3r01X6N16Vn+v37yqpodPlbWXMHJjf0IjhJlHwFIWmY/4xtxPzlf8yVroSHB44PWpcQ//zaXBqzsCgoyhNfFhGgu6NfGiMViCyfUQZuc/4d/wo3GYEo1glsMsCgh3GhPsMWSHK5QTg+khtOFfhKaYwZ7YHq5RnQS+M/ONKUw+VmEHAIezSftLXEW0taD8NwmVlqRB9TzgGSa0IDpQVqIQVwrrEt9eUuZgU5mdRfhPLGyfaaFwOfxLYV6zjxbVQhjimNtYljK3FpXdA8FB+815IGx8e5hcOAFoO2VfjJAOACjPYjFwGxHMrP9tezpO8qa5qj92jsihrWHus8+/baVSqawKz5zRYOtijWlvmCfVrVW0MK3Fuj2shz6lByDd+UXdP2japHcSLfTrGEJyG1HHHrDDir6ccqmUBjIwGYwBjeMfiaPqqZ/u0eT1/aoPQPuVwPXemCqX5UGOgJIDFWWfgaJ5TOogmjY/qTrEdWxYnYdvq8dUXcU1pL91uqrKxqxamFWDM/dhtzBjDfdDe84zzIW0MJVvo986BOR5AzEvCHNXYw207Ul+9YUIBYLlfu0YzKsvyqhyTQbmY8570CZroLs/PSGB/JstI3XqjtbV1mVVW8A9DrP4V3VemLDG4rRqK0DO9bqaaHONtnhyQ3UFWunFc3vRWqxFZWM6LGWpk4fb6/ln1SXci3ZkPz2qykPtsd42g4cJ39oMtqXJbe4HjzRVePosQYBnYSTCnKm8hsL0mk6+Mxwd1/1oslHpD5qsDpHW6000rayjule3DWV1GCCaIfRM27Jx5YTnl5OIAjBrd12kKAUBc1QUU9SamfBdRzIiS67DFMxfai8PgWKrm/FfSTTP47T47dRZjgFSXgGRwrRVAC7RAIIAwWO7JlEd4mKvUBzCP/ageTA68qwLu42WK2KD5YoDyO5BwyCu49z4LjRrSUqVyzsVPY4PPo7pp7zq6jRChSlFKAzsYqDk1ASajpWpL0wrMQzSJd4uXpsjnkSDiQ7CfGdsdRzUnsCv1vBb9QUwlVg9PsYHGS6v53qZGwFnXmpaXYBpJ3Y3Lsk+hv+mbfV8TKUffVZxT7o7/Eq1Sh53huSPTaj22geU3zCgGi6t8rkjWqqXa1g7NY2eLdC1gTGeiZFG89wtelz38f2DJU+2e4Pu1KP6M23TJ8hlWj+6NK0V3Undf7qmAaxShbbn4M3zcXBu10UqZrrQAhjVkQUood6ECWAXMqBaRqvWPO5NEjJYg+uLMOO4pGYHUrMH04l0GyhxFW2xL+MR96qQSYKwIwKZ26+aQfaJdgMNz7Rw7OmJAZ7uwy113IIo24MVTdyWCewZnf5rJG2u0UxrPA2pYSlM3bg7RUYqShP7eizbPVcNBDAab6q8Fn/rvnAE1AG0y/MEPguHB/jVnyI8QyB6Kc+h3HPUn3Y0EbwGjI960PoF2B3H+eNlUHRZxbftwrwnlP7CNao/eBYmY4mwcE3KPp/MdgvtbHILfMbn+P8P96p+6gfrb07+6kVYhQGt+MNLEI4HNRbbqpsXZnQIhbp+Xkb/CzBsnplbVp52VyVncl9ejjZ2qgxx+w4u0sj6o8EMutGuVGKk3a+bPApA2UCoM0mDIKansrq69UHuOYIoNCGuJ5xZ+6oQyasG8AVakgGs4cuWgtS7/QxV8DzrgBrbTXbzI55PffqsYjf0qDlVV62JH+xPq7IEYSLPiDi4dYSwYA51wyzHS9Z8cniuqOZyMxKwlQCk2c9bA5fiU/cSfCOEBlItzHhzXlKZcYSjjuZhtpsQKH4GtP/0dBCaxq1dhH8WBso+Sj7WelxEzAgc4dKuogq/3J41mfuNTSobZOGvoy1o5Sc2h/Nt5jpdwOCAPXweJeB07GN7VD8y3b72ohTDvDY9Py784IlLegC4MPijm0JoV35DuxtzMfT/1Us69d5HJ/ThS3v0zRMVrehKaV5nTEexQoHB3nCk996NOndZFn8YV+e9vZq6Dh8zDHrGP7k3KgJ8pU9AcAjbRu8Qe9j+Ns9RTNntBVAm96IpXk/sOVDuTfL6H0P/GNIflpSAeMPw6vMNt6yR3BMWTmFyDxtBYxKxFKWllDeKUGHa47X2FNgwbOg8Ddwc8LpLCx6GCMA0dDems4Lo+IJ2XeamCNum1RjKK/cd6npZh1rncCMARE9HatKuzDasRn+kIv44BdDSVDOg8hiApY41MACMTtXUOFRW5fXtCXUXMvgHSlTQi8Oby2zSvjvFHxpT/fp7wrGnTCVHX4fQQfNL71XtmfO9VR+6NK/3rM1oy1fG9Y7VXfr7YzXNSzV107xuJWIIXejJck/cmzpUOwFzdleICTuVODoMVy29fNC87MmmSpdklHqwoBh+VgCjyqqMEqBV07e+ADP3LdCvuw6pc4z4N4Gv9vokDwTEPancfdMgUqPV5GH3ivE5DeEgmkdRElOYQBCqezJtqqtD1OdxOOcCMNkOicKEfJ6JOYxCMN0damn3akfHBJ6hmdpWov5YDndmlPhgz6NzMGsBod6RmqoXZZR+DFPmugCKWhBOmOhYCsEYw9bTthptMwBzR4dHyxKANY9ItTD9SdB89VujgcDJG1+Ion+QFJ+flZ6bJL4fDx9tHVPkCOU7o4rvoyyEOnZZj+JoZmwMq7iVMr92BmGyVEpXDqT0Gu5ZDj8+ua+sOQhCV1qak0ubZerDjc70ZMXUff8GjVvysQox/AjkIYuGMuTZIMb1Ew2PqGQBWzBGWbQVaQ/9zO7g6ARE5Xm23PaBSY/uHEDaB9GgwXRbowo86+lAAKWGVz1ArOCVMF1VUKutgvuVvR4qhLmeLgPaTaSRQEBcwkN4HmWiDE/3qYBwU8eaYaVhZR7CcQ4N7KYegKig4aY5oZg123nHc/jIGm6FZniZarOK0HAldOAUqIeV6QTx/8X5ANo8uG9E0erimpfaeCoS/rmFOyj/x3ZHx/evwdAWIGkXMZviFAhCmPnVTpmfX6PGXafCcpjmNw3KEGgErr74zjDX2t0MVD+c/73Lu/Rjy/lFI67+6rj64Yll5itHHV46//aHsltKtqaVfoAQYW2u3Vu1raL44WqYIF7P0th+UxwAsh1fRcyZIBxK7XAgDaE3g6awjV68ln6kpBTINxrmmTlJZUeJMw8Qm54iLq5BMKB86boOVfHj1bX4QQBQfU1KmWeKyj1BOOa9L07AwCr31tBYgFCSvFp98RCmZAhjUicIB56mfs8WVMPtFS4lfLGGgw9sQq3N7hyJo+3eAMVbKbjfpdngHmMCW6Vhr26gTvsQQgSgmecZ920b6GF5bBk8F8yzSWLQIYEFSO7Cf3cBrF7abf6zqbt7k5Zs/JGZX04xMPWHZo4vTG1LUH30jOp9X+Dzj7jFzwfmWhjveUW/DrzBnz69EeYGX875D13arUfPlLUFV+Opz/5U+bQZTJ7504QWgKrkU956hzjyqoyS6HuzEykA7Li7zmJRWU+mNQjSR1zbTdZoVQZhIMsw2lJFq2Pk4+UsEZpZ76OQDiS1jCTuLGGSTaiCUjvr6tjXVHZnVRkEI4Ojj0cppeMIFEDMS1oagAR1oV0lyifO9CBFBStRXROHqbiEBGHKyarye7hGU+L4WftNr1NKUL7XJnvyfH0+sbRFGiZ7Vp1HjMJ0ISxSbTXloiHyAARug/iivRcJzPWq/9C/zX2OCBru765QBxubHzAVC4d09vCD4RiR1cv0Sa3Va+SlKBcmVzMkH1jZ+Sxc9loijoxuwg0uxgJSjfAxWnbyrVuINlYgfPdCN6Pp2RQY7E78UWhT6+YYCXBcGx+hcWhyEo2qGZ0e8nYAaC7aYxNpXxlkp9RQZUMWwMkxhLF5bwHOPNSY2Y3UEU97qQV2BjPMffYrNtVY3akNaRU3Z1Tcktc4DJu+NKGxLSBjfKw7JIKF3VXGgmAo4VB5EyCQBqeeNcNhQqNdh8JqmNgLs2BECyZHhUbYiqJMnNxEijOY1cgxMmY5zOqk/Z6jHaMNyb3UjdjZw4al2zpA1MkwUcGUsRDYL8eBAVaVlgcfAKEptHw2cXbm6KWSOdDmQq0+ruJke5Whe+zW6dVEwmvk9b0XpnaP2wvz7B68CF+a0LLOeIhtX5x8Zh5C3Q/fDoGwl3S2jbhTW4PJNOZV6/gYD9BnDmKGMUk1pBaYEUyiV8VHx/G1aFMdCI6+hJEc906ltxWUxDzU51gz4sGnud0VzHozxJxoBeYveYLn0fjIvU+U1fFsVdlnKso9WVB+K2Z8e0UdfDeNstEgAw4tSCrlmHhZTolniLX5bdOZKMOUYUyy3ckeXIKXfZ7lt2PfLpgUxzo8C4hDiz02HSEYjQykcDyPf/WuQGF6LoQJAaPHuB+aIo5H+0/ycxrWkbcnFMozU46Vw6I2a3QFMz+bSp98Ton3rJv59cK0Se/Qf9Q2dWuF1lz6vjBEuGT9mzn/dqXlueMt2Pw3GrpgyWjlM4cUf8v5LQqd9j3x52pUZ+PlFzL/xekIIHdZ3vxpp5lvGNPHl+cyjbbCNgXFjYCoedhzd0vC0OoluRAyNJYSM47DWMyUe7bMgPKlAIKFWZCz5zHx6TGwgVAen/XoDJLnIb6wqHvShIUZoNfpDXGVNqfQ4JwKl6TRULT4knaZccxl092LZYiJ2Y0dJs6d4/ixqep8BMg9hV7m6c3FPNmeOrc4X0fbGo7ZeaZ4mZfiYA1giPfAio54Yj7PIuG1ftqyjutDPOcwCqTcWJQO/d61ZcghgNMWyZMXYr3u3syovomQEK1O1c5rcMuIdnaN9AXJ64hWwb45aOkW/aLWHHuFrqi9Vxedfj2m+VVonbUMcKvFGOnXhWMnz35pUd6FqV4d15WD4I+X0N4Xp5otFtWbvdM1/QhIWrmb5pETxAdI1eto8CHMmkMCJLhxrKjU2SbaVVUVxx45Zj0FugUAJZ5rKHv/NOAkoeyeipITMB0GugMh7S7ABD5uGnCzMKdYCLwxixX3gBEqEYklQcepY/hh/KtnXmQREu8cl98PvlyO5qH57moMkuvjcZtWnsFUZojNE5SRngboYa7T/PZQoMFTLMmzI03lZiYceCJC1A+jcvye4DeCEGaHehcDgGxEjN9amlUEgtcQ4dQZ96ShCQ5bDgPIAH3JPVyDLwaflbupPClOhBCt7VHjAa8OPJ8iEPId+nhgtBeI9RUXaWnzKvWWlmOal8OAWR1DTtWrp/R/c9TWzvgdC9X8+olw7CHFRLpbt86XlqA0lw8YWL00oz97sKITWKhLCZ92eQEDBqi9PpiyYvPwW4Cb6ZcRD1/eqSrIuLyRkMMrFlZm1EArx14P4qLRDWtkJ5rjIb6huMqv6nKnVJhC6/ts6mNUpuoBADQnNpAJMay7Nhtz0IQB7sVX13i2eDF++PKsprACpUsiNBiQxbH3BOkg9q7NBbjNtUUg71WEOfjVxuKUKmhzEcBXuC6j6hy0CmFrgvab8ylzNZEA1bO2V1YAsCgrLOgeBUid4p4BQCTuo7YE/9qTBM2niHvxC2hyZTOWqFhXeT31BDA2+FQ3YKXyWBvKqvdgLbwn1kzKvmOtan+ye+bXCxNUCN9F2lvstVmPa3x1gKPh/GyCAzNHs+m8GU5Gg1p9xU/rs/uKejN8+H6SJwC8dR2EJ52fsnNTJz4ThmIdmkhl4rmS0odraGCIKMNgQgrQlHoYX+muwDMAKf5amFzhC1vVOsG4eY4WYbU0gLkDoFmT3enRwDfYHybcpzxF2HGab6TNWpRCe9MerDiH1nu1BP6veQrVsRXwfKrTmOsq5t73Yzl0Eo16iHAMV5F+poYJo0Di7mQJ6wKeaBa5/yxlnKG8FOae2Da5DysCePFym/TTZcW9fyRhledxxY9SN1xTEuzR9BwswEoSTGIGJY+R7xn0DaZnduKAgK9JiF25u93RESFQLU8GwMpdmKy5V+mXjWBUx2p5gn2qHqkC2MwUsS4XaHBJo2jwn3PUZmzySiRi1wT0gaZoTpTu0PzaAf3kKmiKLHwvDX6aSGArQtyRjGtTf0LfITwMHR1xmNq7b71GG6DUKMIP1QMgqaIpiW2AHo+BZikIdOxFQC3PY4a48uR2C4ARNZk6lAk72SAwHvyP96JxmPgWyC5BhO4ZjcLEeGZEYx5aNohlcBhmkO2wZKbeccpJ7sZ3etRpXloxgzvKb/ZBaO5pIXipHGa5i+jNnRpT5J3GdwJITRCvdUqO8HsAMGUznMUTeR0SCNozVJpY2hSCVhnit3uoON9cChE8AxRg6RUMXoNl5B/BDO/+FyvT7j7yAShG20sqv7W9dMXj26nfv1SV9zx5oeLB1j79ggBM8r6e3HeBlgI5Oe8z7XNjOqBP6CKO2pqdetNShLio6n1neZAyCXN+eWOHfn0jwgSdvheDHxtu6hXfHNMg7f1xhOG/bC+2fbBHVZKb+pTCrrWenZKQSk8067inqCT+zTMnPYEuNjethhd3I401MvEYaeYgpn0dgkAY4g3Twhitq44sWEhS+zkA/CS5DzlW6rGSkn1ZpZ4pEnKhZTA3OldWwl1x42jXMNpEmdndhGcwtIWgpIsxpe9Hoql0+vNjagLKkjA5+1gZhsDQ/cTuecIjmBjh/90r7/2zkjvAEghiAr+eJiqIIECM5uWO1MLy2MTjZaUOEUc/VSQ0aypFObkjAC547W0koCT30HZi+PSeWth41Tu2R3zP+mBbmcQ6XNRZrIZ3AySlYe67tCMg5fG5CBR1ShE5zKbhxQgJYC7p2QqkMiy+UIOjjcSrVrLDBW245iM6d+IhXU34eoP78Unfi8Hzofe2yaa2AzKvmZ/R0+5NDF2VuJSO+1YRQeTCHh020zrJRU9Ow9TBbjWIfWMgvMYAQkCI0prn2Bdm4BtjBwhf8L8x+2v8UxyNM+JNeiwXMOPBioany+L13aawlKKHA++W1wHyXQJDIHxoHoAgYZOPC4lbYDjf8KQ5TE4LBoZ9tdzvbAPq/NKcx4828zDQBsZIG3fgbZ48s7K8ioy8/hgmxWFsiDHtQsESHj5Mes8NAFVY3pLBStAm70jbwmd7i8Uw6b4OsIkoi1ttZZL/NKHSW89PuksTJjXuOqH6c/ZX7vEcRHsPQ7WkCmkEjWKTnpw9kwoZhAWLYEPt9FIa3EKDa2hw79wtGjv7tC7uSeifbu9UBtzzvRjs0PItjxR015GKfmVzh/5sB4IfTDRlz/ncGjVOmgmEIUM0CL/oEMFxo/e3iGHfG4uThCVxpXfBAGLNqIbpBTkHtNlE8mtoEMg7LLjGJ9cW4zMOA65awIqLCbOOoL1omgcWbEYri8nfy1fqmHjPxOBn5KE5AJkZ4kEKM82o2XtReZajx5y9A4E9ZALh80qJCF/r4b6wQdoqgNBwCdMKNxbBKIRE6wCOeTR+P8wDLCV3ldVcb8YDEosIbRd1BuGncaNV4uiw5SLuJd6B6cf/q5tY3LMrlxDS9caU+dqkJt9/fuK7GVz/pxNq7GszOKsB/byOBAa7nmaH7dpsap+zkLbPfReD37xELXCDt2GaTZbrfa8fULe7Wr8Xg0lveXg6MPh9L2AwGta1Y41KhzggrmymKBzGNg3aQL2JvQXQa061boiORro3KSI+rWNJEoQO7sSP4VermL2kIbnxhjUeAnrPDrn7EjPlmDdWgSEegUJzPfer4YGNZZ6iA2OnyZf8bSLB+5L9r2NuBC0+DlADlYtyw5ZGnsjnMVrCIuE/EwAgb4FYHyTfDvIE5cdP2dkiEB5xqlLpHpiGCYsNgprdRk88ACDFn5wI6LsFYjeQa+H3Gosw4YCuOOa9ciVRABgg/hygESCavmdaxbfuND1DikOj1DtXqvzb7SHEzPMMTml8AJAG3/PV88j73LyKus6iKEGrYzB4Pwz2ex5mGPzQrWF4M/4zT2to5PU6uO0vyKuhfT/Sr+7on9Fg0sNna3rVtyY1BH1fiYLBYGwWD+TuXI4Z6cLXFcNcKPuwJkyqrQEILaQi/I6jqV5J6FV37piPYFAagnnRmNFrrcZvx8edhCru7sPcBYSJOU5gvqfXEHIshtnup/YOrxTtxeFxhzETgLllHQgDBB/BrD2GUJFvElRYe3U/EHFSDfx+/SJi2ZUwdJpr+xGCAveO4ut3Y2YRpNRzIF38uSfHJaz5+L5Yw/6U1iN7tU5bGoi4JK9S1J7e42lErd0TCGdalRT1Xp4NU2mr1+eUxj/X3A+OuXZHjC2Y1wdPvf+CbZLIO/tHl6n0nqfCS0Uu1jt1o36D4iJNdSBcuJIE4M6gytpb6Gqpc5KQtHVIe3UnKHpMj+kP1Tt4Wahj+d0JVfNlxf76sAamr9GZw1/XFuj+h5fn9R18/WxPppuE7WvbAX7MB49cQ8j46nsKOjpd0/svyeNaZnab7di9TuWjEHpBEgSKeSa8UB1i4dxrmM3YIObGjXd2lJAD4Hg4LYzxArCqV6Pp2wEaECBMR51GE3jOvtQrCr17bZghAor25mReGRFHGOoAsASgpX6RN1sj/yS/Mc2eWOCNzTKPAIAmqcfKfNiKKToNI4+izYsyoHDqehph8zNPTquFn6+um1n0hgAIl+AhbexCIKz/vNFZ2JzFCoV8tIjXPbgRNm1zSIWm47IVc/fmdyYVDXiIkedcH/d4ubcPP1d53QVLVygqA4PLMHiONuvtsMsnHe9GfA749UFXjAf/3upvasG3l2nO3kXaA3O/rB8NWcQTeS1f9/bQw3fi0BdVHG+/JihKdODCCqDonF69OK8vgS1OT1c16Jkl0OtEOa2l2ZqmAKO7x+r63I05vf/pqu46WtR/XJeztsfClJ30nSuUe45GgMQ8jdSDBiE0mZ9QAa1LPYr/hAatJYRSoN3Ed7DvczB1UKNmIhFHu+PCMyR6/xJt49ua4w3TPM/anehmphCAqZthDoAn6XFOwhKjbotiY54lLVJtLvTfA+Z2V4wJDar2PO2KZzneQmxkRkG4MOi/t6TOERjzyBRlYE4vx09eglQtyin1wJQ6nwBgncRXc837jFSbCAiPZ4gN6xl3eiRVG8WUz02253Wj0eVFCaXxye6RrDtOttkHYdcRngZuK/rrsyr+0QXvaaL62Y9vUekXn3wBg4eX15U/2tSOH7lPnaMLsGolJToyuMNuZVoLdOjsl/XN8htCFhtu/C3tfOhjIQS9MG26/ve046EP6b0b0noNVueuYxXtGClrDtrqqCSdTqmEQB8irn/kxLQ+B32+eqypuYSff77dI4MzGpzbt06lCcQbtOhpO97X0SsFHae2PMntKESwZuDAmwCQGIIQA4V6tZ+nknjYLRF2qAMYodGewWjYGfMkPnyagUsYhuM5DbT7f72RWMtzqLGSnrQmnpP7nzGJYdzV03NggmzSCSs8UB/HbRjJBuvAty2GfWWYRosA1owVspjUMa51YL6fwNTh98OeWrY4mMogIJhw/ANImnIw715WU0ewPJnfXZFRirbhp73HZi1DmQheE7TuEagIFF192wVLV8g285FNqv7RHg2Mr3+ewaP9VeUQlN1vexh3lg9LctQf09wHFik7AoOnvqJv1NoMXrLhbTq6+zMwGCG7IC3d8JM6svNvYHBGr1jcob/YV9NwoaiV3WmNQacarmMRdRspVwmLqvpPW7L6CkJVge47iEbaGoxv7fi7lfigvKrEpDlQcmV9UokqxC4g/YQ+3kMruxViYdZSaFS9h/hyBMSNABT/Q1dY8pLEwXd9YUqJxIxWYIZtIt1pEAecVFG+5ihxM2akdFVeOfxcA3MTxyrU8KeRBw5Axk000BP4yl4yc4hwpxBTtQchwr94kr2118F/mOB3AsBiQPvklCbf0YvPh/Gd1GUEv/w355Qdhev4+eABYUS9gU/kr+V1xhP4s0UI9THaZZPHc2UcdHUT7iZHcHgCXNCNiV4KMs8ivFidVifI+psTqnz0hTvIJn5ssWLHSup9aNHzDLZLoEiVEvjzPISjAt5lNzedU6KS0nP6ir4kM5g6zgCscDgjg+3UvvbLG/NaizC+j7jcy7UtBsigThVb6qPNHnv/uYs6tBx+fAUN/vyhgj5gHxxQNA907FxLfNYRGp85AHEJCbwKPXEYJlCAkWIccOWJ5I0+m9CKindgXyG4EWz9shzaghn3uLDDDE+Ic6+La8qparaFr4OoYQk/WkH+vuCZkrnHJlX2UpO0sSIaMk2Yhs/2NW81mKTCzcmSGsupn3vTZlof86wPHxgBl6qhG5PWqDqfZw7XwqL0Vi9a516y0AME4CN808qMamOY6o6k6gNUDu1OHkTacUnl5WjuDGJOQLwQLiXAGB46neB5bo/2FVV8zQuXjyZ+bAkMLsDgofMmekFVeQ+geJH1Belh/WedHRrWcPF+jYw8qYuu+A3tevw/KZmJ9N4D3dr+7ZK+9hYEgrTuqg9pz2O/F0z0ewGYU8YuzzP/fLI16yCW8qrL9z1Z0T8eLgSQFfqifUPqOhD0w2iTF0VXE2Gnd/ffJvcTMw5B/KdAmUcaYWalt1iqXdKlaFdB2T8ZUx1m9aC5kQnssWEIGztYUhz/mNhXDv28ib18u2/7IBpECONZFQli7ThmpLoWVDwCkR6DqICosHQG818dwvcdh9F2DRUY5M1dvGmKp/5YkwmXHDbldzfV9Q8IyWpQ8PqMOu+c5BxlPVXAtSCUewBqz1G+X/nTxGzzHcd6RONcO1QBhXPOM0vc1+wwijwTZQTU2w2D4sPyGsBVbTlmGrcVfWFc9XvbfdGzKb6xB/NNrH20Gy/8Ts6grVgODy3SivZNM+mgvq5D8X9SsXIEQAd98bul6WPa8Mq0Ln47ggTK3vdVPCKRisefi1y7Bit6y7ykR0iVBwx54P/CT55PEks5Xm3pv+wsaRLzfe08XKk1OIFfHLhzrSZxhtYiT5EpLYaQgCivgo+oZJhTjH6lPNMjDvHXoJu1hPKgXKPiuNf6EKIEjaERnjwRNBhps2mO53nGvnZRMow4OTcvO/F33VN/8NPpZ7EAMN7LQCor0srgz0vL0GqPybpL0Mg4BAZ28BgCfG0znVSaWDysL/aEAsxUtB3HiW9yN267MhxTD8/uaOBamsszanpGZUTeedoDQ1OTVNgdNHlcAf7YqxpaxPbNRVmEBMFwH3wnmaA+mS8WNP2LLxxBeikN/l7pPn1Yj+r3Zn6dT6/7g05d/D67E+lTN9Z04oHgj0Kyif71jYDTYIm+d96HUIItd46Dj2NtDaYhH7FviN43qNaww42i3LWWPg4DDuKPjyMZ24sADBiIJCeegZjcX0M6PMk8BXGrg3FldxEUwJzUzGyQyIJxkpjYIxqFFtagErTQXYhN+8lRTOQE18YxyecItc4AdC7KqDoXf4eJzT40rdJlEBcL4mthEzUPang+qGcwjqOFw5TjHiwYFOM455BqmHwJF7wg3RbC/c+eluv1zuG3hzkJs7z636SsXJULE/mSO8ohvq4R8yePEs9jvcxwb47eXJZtgzmAnjtK6iDp5t++cPz3pTR4bA6EpG6zfc6z6TAsrg91EV1UlM0uVMe81RiIk7rjz1JKdrft79OfbmoKS7lsw3/UxLnt31dftFMGPLV93LNxa9pka4MGf8SdTZl39qq4NK+6Y90e/G8dLdoMWBqEmSDUxkLABXFmYwitdgF8SpvR+BEkititvA4BwKxVlqGhaJZ33/GMx4bna6UASavwd+RbXx4jD3wmYUxzLuEMDG1hKZpzOEflgqqhTF6AFt7PMJjjuu/jOjigxf1NvuVppV4KmqfRVuokmuh680jY9ukiylqAz6Q5tR7Cq7Up6k89WgDIywF1uJVG6ColBAQPeoK9Z446zGt2oMWERO6g8ZqkxD7cjWdoej5XkZANJah/fWawYSYlbp2n1jNozmjf8wz21B6vxEx8F4O/reHsflWr5GHrgvlv1s+oe2VMp7Y3deqZlg58s6kSIDbfs0xTo3tgcPL7YrDN9MMI9daRqi4jBAw+2IuvU6/rJ2Sh8mhbGN8ljzBXmEY1QJgGPO58T+1Cc0DLBQBWDh9XX5ZRakdJAvXGK2hJmjzgUIv4MQWICRuquBtyjGsoobf/dbdkilAkbMBNjJpC09N8PPbqjcHT3gj8GM97LPYk59D6MC7rAQTf51GoY54+C8L3mmFvSVyg1FE0xgPy1DtHmOShPftrX/eSVs/GqK7OKEM04P5wD236dTxh4TlS7x3fvXjdu7l5kZrf2mKw1lg+M7CCC6pcQcw9Rfg2s3w0JPP+jctU/Z9eQegtvtsMTgbmks+LfPBh3at9hf+J/wV/VIahyTnd8P5ujRzOqSOd1c47Y1p6ZaTR4w2NHt2PWa5rCyHlTe4nIJnBJayly7BOOFXgT2KG8V8nvNwGg7cMwjefsG9yz2L5MkwkWlrngzFSAmUNy0DcO5VsTxUpb0b6VyZDl2BtCC3EZ5VuR5uw9+XrOjW9IqEKYKcFIPBapPI1nfhQ8lySDnOpvCwz5LMhp+lrMipcndHUVRlNXpXkOBV205u+CrR4Nb+vyXIuG85NXZvm/iTnZ+65lnPXpLEcAKuLqJO3fCJf7zTbWhXX5PqEajd2heUzntFRur4zzB5pgbgbSzIqXUF9+tAcd39ipbxtU2MBvz1RvxfNT8N444YNWBdQdlSBmOST21ohajCSf2GyQrw4jS2GNl6i8ZIppotv/lg4qhQbOvYgsrkgpaiDskx3OFM629CGa36DZiX0iV1FjVtYZ9LPPlrQ33lPbvhsZP9Hu0rBd4f0/EEwhoEuIMk4KBI/iVS7+y5OIxt5/BUXY/hULwTzSj9PBmwRgLmfvOaF7PWE0tvRkLMzo0o84vnFYTstLz1FkpqgYe+jEYAXp8NIFMg2+XgB5DylFLFd+nEQtzdxeWKK85x7lN+ET4nHQfPh93RA2e6j9u/ko3wemw7jy6nH0EgvJh9IoNH4yDzokWOB5GNY95hB4LGiWjAxNYwlAWB5zpmMK9x7hXZX3QuHSUztB8KBnmOAKrc17kgCn+wpP4XNCRXBBTWE88IUt6s5jZ1/UfIb4ihh5td3p8LE+Zd1RNAu1009wEE9Q5h3LJC3mCxOem5WK+AFz0h5dryhx8A358AzRwFUZu7W4bqOAYL3TjRUQbPPeuiTdIYwL6Bod1X2fGONih3Z0I+bOIXpo74utNaLb+pFem3CPBeJ+non15qXj4KqPZ/Y4UD6AOaW8KYKaInvRcLxZd5wzDvh1BaDrCs800NFMTON+TAjQNyXavys+LVN0Pk0ezx73t/+tPNwOON1vl6/6+HEsE0EYCw8VcSEg7IjfKoFtbocLe5EaxcD60OarYfzg7mAxzCkyXM5LLH73IMWk2c9g6n+ypSK7z+/o82Fw4XuqnybvkO5s3V0eqGZPo+iz9+T6yF2x0Vk58BKkLLT2KGmqoA634Peae+PDOiHvzEWGOnUg/t89vUD2vD5UcKjhq6fl9Z/vTKnK+4cC7k695mOjjaDp/KeHkp4Mt4iPkTzPG0Uv+b3ArbWdcJIjwk7aKexpwE1/TALnjsrLxZP7EUrqEm8jBVw7u7csHkHwXq8uLqxI/RjJ91h4mmvM42brYwTMhcklSI4bptdB/YhFnUKteYTOi9gDcLp7/ocfC/1jWBqy74P69M6U8bacKunCwEUPX4chAtie95ZhKWBzQhigpKM1KgrZXuKUnh/E8JtU4mZ4hk3FOH3TM67x1V+y/kwKfWeNWq+d7Vir31EjaemUfyFoU2zaYlu0Sv132Z+SQ/pd/j8pgYX3kLpU5oefVprXoWrQbC8X8otHyRC6a/pC++qq2P4F7TvmT+iEQ0twmWcLgEAcalONF2LsE7HPbTLKSPoPph+0t2+Mwl3GAubsAx8Z4UmToBYbdLmY3Z3ALQwWU3alR7EVjw4rtrtXarMSYC7kORau9Pe+0RWPRn8Uh40Q0jxKS9JqYV9mj2r0sszY92g0gQM9wI2+4Qg0a6oP7Ncm01tqT1/z+x1n5+9b/a6f8/m4+TO+kgd26g7AKyeiymN7/LrZQ2Uwo6x41VVb3LFSJaOYE2ct7/9POBkFEY+V1bmHCJXBX2vzSr57HTQ5vS9Uxr9b4e4j0cR6PSHNoLOsSAZoo4Kbf3yKdWfPt8R4tfQvVF38b0MMSrpc3qdjulb6uheTalllSaPat0re7Twsl4lmkVt+dWCJolOPv2yilKFG3Tu+H1Us03bxM+uDBFH7M5TajwzqsR1c9S6dRDkVlTj0+06XZjaGgzX+x5cr+kkklOgzSBLI3sPwDtU8GKuJqGNzlGZSzLB9IZ5PlQPFoaenwwCUc8BxJoIBg2trrY2QXz8gUdsuBAm6sUwpR4IaKc2UzwI0DZpzg/t4rzn53m8uM1Ga2nQbX6bISG7YCW8h5Xr4Bi9nuH5DFrncex17TDLY9aNOUEN+ZD72TJMoZ0nASUZ2uay3LnCVagR8naeoZesk5j4WeJ+AIV3IvBMTE8j9uY0k790ftJd8vcvU/UXn1B22x2qbsJK/fQzqn0SZ35BeoO+Dntvhp0T+lN0+sWvwVn7Q31adGUvgjis63+BUJ3Y/NM3vPAep+SuO9RYl1fsp7aq8an9in59nVofW6/4fWOq39xeT3xhChrsqbEdX1in+AHM6DL8wGRcE7fl1fPXY+3ZHQTK3hXd2zYUsfGpCJMGk23U8GpBqsPkuVMQqloLPURe8e8ll14d0PQWS/gz76thf45Xc9kkH89++9ysX3bOTj6eTYEFM6ktzX4utb8KOALtbgS4HQDs1dFa6pt0j1vGgx0IDCYrdpx6DaFh2PvyzRAIl+Gdc2NjuKI+ux0nlwEjEUyHZ5mnAFgAwvr2cfmFWp6OFEsTogAQC386o8EwOPH7m1X7xaeUuHlOGAVL3jRP9aUzFuKdT6sxXNJ6/STs/Yi+qp/REX2Dkpphg9KGpjV5bpcWX9qpZS9L6dDXq3rbXZG+9FsVbf9ESYvXvkXH9n423J/871eq+X8tCIIX2zap1iG0cU0H7rNDMYBX7LaHVN/6wq0Mn++q7HlqjUY7O6EzDQnDTFx1421R+fMMfvcF28/VlwNiMN9GUjGcXAPEGgHM/K5BebvfFEDEMz1W0sjpGo1Gg7Hy6f2AMW/7gGY+r40+cll8bIXCsZNNZ7jHX9bo9v3tzVo4a43C13prhxouJXWQGHUR5tfjxyMg+i4KnIKpuIUgPvhk97N7/66Mh9PwyYaJ6sDvenjTFiYIVNsHO7kTJ25A4x40aGQmxztp+xfHVfpQe07WhQyeTal3r1bXm2/V+KlnpbtOqPX54+qcWAL8epceWP8xNXZ7LLOlnoEtsM0zRvbCXPKnoqbLxa/J6Bv/qaTR3XUNrX2jju/9B8VW5xV94Ro1dwXw0k4onV61KNDTKf6y76j+zfaKiNnUNtF468xfrlJ8XbcaT6C1m/zSZ0IMBCSRhRAw1qv6vY3/5KuIHTo4R6Z4udCpEbC6fRzC4PnJzY6U6jNBuZM36g7Tc0JPzIVa+VLJ190He/75l0ruILH59eoFL1Pxuwm9O5wZFHOsRn3Kl6aUfqYCPoDZtg7QIbMdXzXHcT7wCrTdtvUzQuP/EYj0I/heMETq6DShl2d0cN0Lzjyu7D73Jws69z++W4MvTOuv/pD2PP1flTh0u1qvfEDVZ2FqFaj2Ue79/e1hqpGTY9yhdZHeudNAD1JCyz9eWdU4IDewG4F2u6IPXKTErQPKfX1Uhf95SNmXz1ccoZ36+Pr22Dsp/rJHYPD5zcCdAoMNsjr3rNH0SUxVL6YObbRwezJ47BjajFlrLsJvHSEEIXa0xrjwQJQgdtYsCOappmCUyJPdpjgXhgxnwiSPDXtVwsz9z/tOGu0pPs1+E905muA+cP7cSr5B0y1EPBcHEIVe5Hk0HNMadmMHQzSTaKjXTHHNlqZFRJB8ekK1SzoUeXahkTJMql/WiXVB4GBqfAKrw59HbELE6kB9HGRNONSEDumnp1Xv5hi/bnTul4P5/fjxz42q+GvtMOl7MdiMcw+U34uYve9WNfDd1Wu+qVh/Stn3rlfx158J92264fc0PvwbMJhwk9+P/k1TX38b+IAmd3St1pyVV+nQzs8qdeZ1Sg5Pq3bHw4pnUspc2aNWb0aF37koLK5zit8Og+9+IYPbS1cgZmJVl5K9ecU9wZ14MplOKYlPyz1TlN/3F+0sh8ngmcMQZ653t0Griwg2n8ir6WGSJwAIGamvyAaBaHotksFZFyzq8TmIjB8MW/uH6wiNJ/ct4Dxm3P3HzYU5zuO3Z+5pzNxnkNf+DcEXZSgfgTlXCRP0Et7wdAqijlTDgILfbRyWumLColEA16V5niFsmo9GY5kM6lreHjiHHIGyQx9zCQZX8eE8n9nTUGpfJWyJmJpoL3LLbq8ocwIx2IFlO15XBUsXCDgvo2j1dy8+S2X6CCsBSQhw4ocXqOkdfbw1Qy/h2fJO1R9pv8KuZ85lKk0/qk0/gdJAqr1fb+notxAMUiLZrXRHv6aSBxV7Dxb2WFHpw4R+dhNrulTHDzffuLDdgVSEBn91RM1jmN0LUtsHZ0HRO9ZqtJTFHMMk92ItQO+pX3IvRMxBHN+NpWtOwxCI72TNclTpa34ji/e1MLBJHECDrYA2feFiW/vCMR/3d/sFWtbNwk0wFLOeOUS8jeZ5LypvVGqNDQE/WfAv+OeQp79sCPC1niwXptiSjBsaAxmYh8/37IzwFAyeaij98FTYk6PSC72vBpAgnOEtocFKuAzalEIouKfl+WbuMBnhQ/kxkLa3XdIoUcIq8s9Dhv96ToXfar/C9Xvt0bHxut/Srsd+H81tD9xHl/SHrZBiKFL1o5hoby0VUrsOr//v3Vr9lqb+85yiqmOz15wAkn9wservW6nEl05Lv/lsGJLVrqkwczT23A+jwfDh3hHVb7l35pnzqe2D4WXXZ1YBoPLy+/5aJ8uYARoGnWKeZIfJTp4mLqTgBowqb+5QY2kIkECp5logUxhS8/BYg2faZw0ZnMwdE9wJs3wEKfSE9STmzgvLrFH4RU9JTe6qo8lpng9sDTlYhNrfbWL47Z5+nbx/h+0d8K/uHPHb0syU+kpU08cY8zjgywvGXYbHgV2n+FGHH+7IoAyytMk2oEodrCu7izCqQRusJdRRYwjMEFq6r4h1wXKdqap+pq7RT7Sn7HwvBqdzc1UtnUNI3XaKyYLs//RyxfZMqPJf9tCMNoVWX/rL2vf0f1H3kkiZfjR/6rXqXbJF27/1AeU6lnF8sc6+9bAaMDh53zk1P7iTQjH/hICwTq0vXxu6hb3TUPy2h1V7rG0ZZlMYLoyA/r0/269igVBoAdoKSq57BGULpm2MigOGq7d0qLwA/3tjl2JIsfdzrK3AXNrB5yBwFb9oP+leJPs8z0aEEDEYGB0sB/+b2FlScluhPTyIBlqBzGgPLXqmROpr46pc14UZnArvZPKoVewMz58FrXsutnvAAGwN6hOG+3oRijlJPriCQfIY5JjvaA8a66U3PO/NRf0eYWti3Psqw7AG6L7ZjQhRZ0/LSZSwBmupD3WpeUDE05XI24vE68ugxdyI0KpTpSvTqq7x1CVQ+DfbhPxe2yg16xX1zb9cpanj7RNgEPVA250Tah45b0ZTuUFNj+1VBSRfPBXXui0f1MDiq3TiwJdCHvEoqeqVWJhr+7z3qqJHxhSVEXJwQnJtl2ovmxMMZeii/cQhtYggLkzPa3D3/WuJczEfNXzXbvzM6qxST4I41+XCDIvYvWNKz/WwGZKDqSvbR2Ir60v9kguA1JBBEyU1IJy3PnCsNoNOPYHey1DChtvc5YVtfjsZLAmW2x0bnvtVva4TpvIs0qil7Xv9fPtr5jj8cJqxCs4gjLfOmjUft7UaVQwrH8PQn6sCApankJ4pqdHDdWc9Dt4AP2TvKSpFBFIZ5B5I4NkbSfx6jWokJyGoe7PmxFX2q3S/OKrpT7cHCr6XBsfjWW24/oPafv+HZ878yykWy+i17zquVLZL3/rSdRo+0H7rSuoPLgkmOn24oMbPbFXqHG13F+3LB1T5yNqgZPF7RzHR3701cZg2m6ARvY+u1YhbA9EcEyYwtTUvhoY5fj+S50AZMNUBUVEa5OgteYH39Z4M2sp1/FditB4Yl/ZaYGC+ierpPV7JFwNh1zB7jSyM8CIvqGuBsHsOU2j5NOci4REMaFaUJgY0BwJLuSmG60gccazaCltMNAd9xVxzHjTWIVIokLxA2sGwO2/whUM0YgUld1fCvKraSrQQcOd1yzHAncO7FEBN5xAI8rasGP0r1Tb5rQHApydALASMfm0SKWip8padxMSg2V9Yq9If4BcDgj+fPFXY70vybIzvlbr7L4EOZU2NtKfgvpDB12IYl+vovs89z+Dcs5Mq3Xy/Uv9hsWKPo8lvWkgI2KvG6aLij4yq9qkX9p45BQ22UHffu071UUwnzPXugN5fw2uC/EYVx2zeIgmrEIBQWMaBGU9ggh38l67MAGww7+GVsiY4zLJ2mHuBCW58myF+lY3Jb6kLxLMv4j7v6exuQM8GCfcH7W9rrf8ProCQI2hmzVYCkxT6kNvXQ3gVks8ZHZAf9Wh1UidreciEGpwAADqO95wtwkO/7s4RQOt4WR2HW6r2WliwKDzitcTB7XSncDFYINC+p+7Gvjml8U8eDC+nTP7MKlU+9r2YGFO+b4UKo99NeKe+waug9ZQmzrTXOXV0rtXLf/JR0HMuMLgre4kOPvuXz4Os6KExNT7KvW4LKQY9ktctUO2eU8DvSTUOYHJelGbiYGngGys1ngO+d0IEGtcw/Kfxfrt32MOxI8JEIdSAEQ8Bem9Jb/EQ8ygLGuydccJKQiPOJv6WONg72Zm/Na+I88RxMwMND2aZSga68x3eiGLkyKPxCoxB9SKsQYJ7q/hq71nV7OG5dAItrqg6gBAhbWFJKjWwtjr5f7f9+W9bIi9Sc0FUxJuuOVbOPFNVeSWxbYRfxlcnQc1VT2LAdbQqnDMBhrEgxKwR7qIyH8EkNGr00KT5/arcsV21/edmGLwSBn+vN7BEuuS239HWb71/5veL06zwO8W1fvNvaOMtHwy/vvXFGzR80JP3cBV/eIkav7IynA80M9p3HUnRHx9S9ZeeDMcvlZ7X4L4716gUx9yO4B9piDcl83hoAs2KH8Q+L4T6BP61G7vD7MUkSNNvJLGUVzz+DSKtbMmFIaxaqgE4memLxQ/6FXJeIRDcKBwNURAMsu92ah0oKZ0EMJWaquP73XtTXeabkVDKdljjzVI8PyXy7ElcRcWTDwi3Qk+PW21LQGp3jPDNx1rdWJMOljtIlN/LiEzE52dwMWPKHMFtlGpKVKgTlYpq+FiAZFho57j5JBaqHyyBddIpzLd3FIBGU790RNVzI9+HBlNWAqBaf2Fs2k4xfPRH9eyDbR+98erf0eotP6Nk2jMqIPVDH9Dk+C6dHf02Vu+VAFE3gvweG1f9lfcp9amr1NzG8R/ufr5X7KVSeMoEaK4ws6oq3JwlTMmp6tkFm5KqeAOUZSlVASWFtw6EQYTK9R2afnmnCpclNflKzPMQfg0AkvAeiSByL9DOfKdA5nxvA/k6FLTNM9Vhkq2oAVp4HxLnW5dkVV6IQHWSh+du7S4ofW9Jqa3k4eWjgDwN4jdttpenVOnAimDOo3n48g08tx4TtAGB4uNi5JGk9RAfX+NdB5LPoaUIStq9UBAj9eS0mhd1qrKJuPaHulX54S6ViBKm7yCfPkww7fegYX1DJiDwJhoTc6fMQFKl63rVQhidvEAt9iJw9eLk3YdeKiVS3pvbpZAPGpbNL5hhronkhIs0rnCfuXcxmElGy7YuMUJZneb4n2GuUxtFe8D/i6tUmwaSryHujeNDeTBWbYVNQ/NPEORjZpNwpjofo2wUB5Bq4n+9sCsiPgxzjr12lQomPaDAtfKmtMoriCcJ6j3CBCv5s0mlHah62wdjnvFvHc+RJwwvL6VpC7NqNPD1aJAn+tkKBNWzFJ8uK4XlKF5BqJOF0W4kOXrOtiWnhsZGR4qEElgB72sVlheGEsOGbOkjdaV3AhABf65/YripKvF3BNNSIOp6AuvjHe4Q1NgwNOgnTPJrCepoOSFVppLX2EcOqHZyWKk/u1xVv0oOOr10irT5h35Xz9z9qzO/28kM3XTTb2vbvR/gV0u57HL9h3fthBm0MTC4hQ/GRB94TKlPbFH9p5aE55yiy+5V7emR2Sb9i2lmlx3u/7VBSITpAjh5cpxXJPg9gfGMtRiABaGqS9NhRqR3fHUcWvcoEmFR1dNQe877RPlVAGvx4fx5f8fsPjQI4niaj1euuBEebjTfbK4toQ00p4L/9+aj3vwzNJTskgXMLKjdtt9b9KfP8UA3dTCgQ7Brazqpp9cwUzevN6KM9EkLEdrd2VTk+dH7KwgQhY2gbR4VIl93qligGpehxR4YwRDUvLGbBYp75BX9CIC7Dy0sdTS4Pg+B7qat/zii5hTI9Yfnq/l1AE7b07xkmhpFGMrPD4DPpJamxjjviVekJlHDGEj66HN36ujuL2ruwhs1MbFb8RS0v556XGZ/RD0eGlHjT/a1Ldr3mWgBCf/UOIPHiiCm5xcTInnX2TBpfRrt88wII1dMsLcbDNNd3YXpzTuhd+oRtOoBGvwUviYFAZcRG0PU2OGS4odKqgB2Ku4hg2lefumdA9zx0Mom0ULutxmc2UHHW/Y3NnvmZRsdVz3LEeEJq9jIp7oed0EZHo32NN2OR6b4TKvjoSLfRXV+p6by2kilS7E3IzyLltv0l62llBl7okCb0Gba4Jdfx55C259yPbFEnvpCGWHPTuL82KCXaML4PHU5i6n3EGiwCLPJNST73rWERBuV6hwIv8+nlgrjB9U798qZ3+3U1b9eleL5QYHuwUtDaJRM9SgT78N6VdSsVdSovHDAP/bV02q6j+AHSIHBtn65w/inOkQoAqq8RdLO6TAzwz1RnlPV9PwkJNud/6W1aMs8TDGo1lpmoBWDiMk093sron0ltAk/iKYnUMbEWB2hwAeCrNP70Ko657dPYzLLgC+I7YECt4V4OSoTbnm7BQCXd3dPHUZr92IBEMDIy0QhsvuhTWdELrzutbg+rqnrkpq6JqHiGvLeWVXuzqnAxPxj9fayFsK+GrFsawXStQaMsRTQiMOO5hDbu/fK4Y+n6VDfzDH0/xyCib+v92J5hlJqeBnPkU5VQa2NCRDjBWnu4pu1cPkr1DmwfObMhSmmpeveNHPcTguWvVyJNOZqJi1d9Qb19m9Rb+86Faqn8M1VTU3u1viprX48iJFdX+sfZnrFfoDUnvgO8En8CgDKL59YhuSj0d611WuD3dXnV4clYLpHcOoDkZIgyngVDbTfXUqoBOHszwxIvLO7p6yaCc2zZcV7MYGEJl6VYNQb3gvsyW+9CMCCFNrBfdayjM0heQbfS7m9+D4EqQJ6D6NI/ZzDLPuNKZWrAFRgBL8u3v3W3tUntbeBOUYrK5TBMy2vMKSezQUInTdXO1UPfdje4KWJ2U9ighte9A0RwjuPiY3DPloAOS/TsaX2KJlf9RNMOBYg8e2MKp8kDg3WCOHwKNE3TqleKaoweRhxyyiZAbwVX9gfXKtMqzR9fsF4vVZUuXAK+tWV61ymFZvfoWMHv6jp0X0qFI5qyarXa2y8jcyrhbPSG4cUf3BUjb86+APvLP/86sLYO3ohHsw7C+ipwARiXS/mtn9xX7CJJeJPrweKeaW+ARaMSx5A5LOcdwhjQmEOks8Uw6aliQK+0Nv3H4HBpqTnXOOnvamaiZT4OuaVfEOsihn0SE7cr9/pgshoV6JEniOcm6Q+fsEHWVSuQFBcDlqfPN5U6gSmGm334rfkAX7DuPSTFaUPYEkQwCRhn7dtSAA647YQtjrIkt+PFEZjupNK7MLFEF+3qJ+Nf9UT4AnhvAAg5jVY5BNeRL0d7PHQscBcp1kGV6bPwrDTSqcGlcqjKNVJNbwr6kwyc7P5RTB2kvzJE99fLbUn5fXPu06dc5Zo50MfxS/vVqVwRv0Lrg37hdZqE6odPyNdQ3z2heNqeGO0HzA9j6I7tq7WNH7AiNdmyiv3wy40aJQXmWG8+cTCGqPULvxAoxa29Qu74Pn1cQaxJA/fuRPfTPD2R/JgQBztAviZaLE8v+cBvjyPmfjTIawH4m1w6yDuBsDC6Nq/PSnArxGgFI5hOAArMIa/2hD3him8kOycBzMQSLTak9TrnuRHOwz6HJV5J1lPfndc7+3xm12U59DUe0FbhlPUKxGpPolPJpRqhD01ueZ2odEWTkRT2T/PqvDb9/Nguy3JP9ui2i89hYq2Ge7U3X2x+pZdrENb/2bmTDttuv53tf3BX0MJerT+pl/S9m//Jmdj2nLLX+vcuYfCEGg8kdHwiXvUC4P7512i5578M81ddZ32P/GX7Uy+jzR36IdVLBGnTw8r17WwzeAIpvQdXafKV6CLtyrajXpc3qWEtcAT5aBS1rvOmFEOL7wPtE2ZgY7jvCpCMIWZJozxMzG0r7IUX0g45VgyrAtC2+tDGaTXggIzMa/R1um2f0WjIwS6TIjT6oKaAJrqCpjnbYRXelADU9yPhk5iOU5Wwit+YvP9ghB8ofuShznnqbG3dgdQV/d2ExvyarpccEPyFDiCWNYL0GP7S+ENqGZKDRPtXWUbxM/GDqVb8kr4dbP42yQhi180baH2p46Apf4urcLvPRw02J+XYnA8nlImu1iL1rzMHNO+J/84nPfLoGsVa62xShfH42Fe9Obb/0i7HvoNzPMJdc/dpOlz25XIDWrLdX+kJ594j0YOP4xFmO2CjGnd1R9Uo1p11gqbtmEpjj33OfX2XaWRs/dq7pI7lEwMhlA3lkItgw9G23IvG9TkZuJGm9F1+FVASQNA4u18PZ+4dDGExkdVL4dJ0K8B+nWfrl+s3OpKqHZxDk3GJ2+ASQTnnnUR/DC0bKzOqrqQczksM7F8g++mhxxX5VQnzmxs5jr5Ro9PB8DjV9l5x7rGFR1hgxdvwOY3m9aXeRiP34No6ASavILn0bTKEGDrqnzYYKWKa/CWh16D3FiJ/x7yECi+3u+GINyrLUNIhrhufwujvXjd+1j7dfBxoge/kcVbP3kFg99V0SQkq2e45/C0okcR0q2n271lF/jgC8OkMH8qllXfgs2ElmmNnHqKc0a+ForzCNjH3f2btHD1K7Tf+2BFnWoQLlmckpl+zV96u86dvU+TZ/aEPGfTguV3cA+WyQvHsHC2LBPDO5TODqpUOKYEGMDKlOnsVr1MftbgBJzu/tgqVfFj0dyMCgsxd16dcKSsTIOwZKqiaG1H2A+jjumru5PBto8YOPMEaJOwJnMS0HK6DGPzimPaq502q45GYSoCFKGFDYji8U2eRCPQYLTCKxhzj6GB3sY/AWomNPQr8Fr4/5g3/3Q53hoRkBNDU2Kg3qrjabsQAEfopiwjWDDGa4zc4LAlv0EcJtm9ZWZccB0hTIOE+PTiddnQLx335P4OrBEM93okv7LWqwo9+tXMQ0Sb9XJKxVc8HuodvEdg1ktr8Plk4ke6+NaPaes979fG635HOx76oBKY6HU3/6J23PNbmr/k1dr4Q7+h+/72NvXNvQLrRiXJu9Eo6eJrf0fHjnwBTT+nA0/+VTvLkELg86J0XsLSeXBAso+QEIVLYJmCD6Yd3dvXa3oaSfV+lJhFLzsJsxPhkCe2x2325qGdoN2Y0aXHVkMCqR4CLXvdkt+li892B0IgkgnBHWEwwTYFooShOzL1a2oDsaBa/GiVxnHN+2GAWr31Q31jThni2+qV+bD5pzxYf3unYsS6fi2dNyVreX1vDaHsQyAqCATm30LQ6MZve/Mx/GwYKsYCNTu51wrE7zpM896RLa/m9+52mPfQ8QKYCuPFBpDuyZvCQROrp871qLTlbuh4npGzPrjxO88qnsf0OwpAYMJrZrFocDJ88qfmq6//cjT50QCiYrGkOnq95ndfYPBVr/mkTh+wX79QSGKat/gGPfWd92r44IMqXrBI7QdNWJtYK6IiXX+yUuVb4PyjUyrfCPGSKaUeK4Sd1cNUHQOOFIH7yzuJmjBh3q2mFil395iqAK3mZRAfu1+HwYkGGtEWdbAWptId+bQ30M/dcaQm97YHRNoDfenHvOMszEf7yBmA01CugblGOPxWlDAtxdNzCMMaDqv6kUpP2OP5YAkMhigzNoXpXox2ej6zVzUQj/tlWdUluAiXBwPqfjEI58ObVQz8YDBBstJYW78CwHOzwtu/AYLebik5kdfoTz1mWQzpQh+c/OpJ5df0q7h/TMnNvYR2OaWfLiqGYBSPj6v0t4e1eM2Pa+zM05oceTYwuLN/pSaHd2sBDL7h9Z/X6Jlt6p270a1uF0BB5dI5PXzXj6s4flCF8X/+9e7/XHoeZPVsu0jTI8mwEamn3Tj08J6OLTQhOoaGQa/qxThOQqjGXJsS7iliOh0iwWiv7gNyz+gsNcQchkFzKu09slz1ECpx5C+PG5jiwZ/5jxjaWwHHx7z2p4Df4/zVmN0JniW8ae4GHK3PKQ4Ac3zu/Tq8l4ZHkzykF14zT86ej+3F4X71j/e58jsa3I/u7RObaFkTBO+eO29sFqxPJ+VwaHTt7Ygbtkww2FsvuS/eEw2zu/MqXnXv+frC3LYGX6bontNKzSOMAeilB6AXQNPbRlS24AP3T2r64+1Fahdf/3va9uAHgom+6KZfBkV/GAa/Bgb/g56+/4O69IbfphKBQCGdO/OQHv/qz2ruSlD0k5+aOfuDp8BgLx/Nf25dGIqre7bDccyh18cWCIXW5cNLkmsLI0wo8dsAzIT5eNSwjimB6fSb0eILoYQJhiCEuNFSDuLGpXn/EhrmCBMCcc6T4KyRKHGbWDTMmNyvp0169zoYkD4EQFiKH3l4SrFFftcCguFd4L1JZ5J88d3VDurgsVzn74loaH3kuBYzX1zctjyVpUnV0pQclpIgdJTldUYJMxHBiA4VlWwlVZqL9T6Nmad+qsJE/H91AAwxjIU429L0z+0K2j6b2hp8mVL/6xjWDat1Xb8yvXlVHjmr+DX9Sh3Gzw9FKv7nnaHveHDhzYpn0jp36D71DV2u4SMPKt+1Slfd8d/1zP3v15yh60O+A/Ou1qLVP6xtT3xYBx77K+V6F2n89He/v//7TWHKTgRo6b9/jUbmdIWZDd74S2hJvABRCUmaZirMdMxYXh1X6gAm22jWY6W0ORqHcSYKyNANt46G7ktrMwRt4tfCMf8HVQ5G2fdzr6+buZwJC8u7Yd6hdqjlaTZx75fpvbe41/3btZs60DaEx37ez1jrMceOWZuLM5RVI2SLKXXcvW6YWtrh9zf4Fbgpb8fgKTl2AtSJXNRw29yl7tGj0XJwTS5LHuP2CBKRQep4VuWr8ZPBxreTNTj96+tV+f1dyLXbyUlf9sdtdBNnv2fS6it/RYe3/w3ZA1Sr49CooTVbflV7n/yDmTsA+CvfqHXXvF+Pf/utKg6fVrX8g3duXJiCD3YvVO7TFxHeAKJqxFhmZjcSPIjW2lSGG/G73oX2XIWwAiJ5UxQqn7x/Si2/odt+kHsMVjwi5OFDN9CLv+pE8ZE3GjHhjKh9DpDlXq8WphC1IW6z9qMxR9G6RTCPOnmyQQvQlDvMuSWUQRiVN+p1n7IrBfL1EGIJ/+qNRT2zE5ilBm6mdmlH2HU2NNItcIfGAOb7FC4GBie8sHnSk9vbA/7lxa4G5hwBcKiYHcfX25/fGVflG3vUJEKwQM6aaH+cUtcMKLWUuLbsPHkG313+7At3wbswbbz2o9S/rv07/yL0gL10srQIs/1f9fQD7+WoXdb3m/yO8dMi5OS5tg+GUJ13rVYxnwvoOI5fjc7AyBxEpbF1E7oLxgBQ3LDK2ozSuys8jnntt69FG9xg/+PbwMoMdo+UCeK+Xuupq2lBCb9w6jbMbopXzzuZEUbC3g3HHf/t6zxnxjvUcT4wPrzEmgfjaKEn2VdA1NEIdXGoAxDzO468mdosoaxGcVC9wyEX1cIPpzGh3hymiWB5OpFBAVVrzyD1o9ZqTqd+vqbKF9vLTNwWJ7fRGuyUfflCdVw0B6dZBESTF/mM/c/zm4W/OKVz8/i/pYE51ymRz3O/24Mb8O6+HEdZACKhqfupj+39B5ULL1yK8r3S23UVgluEsTWtVa+e0wi/LPB+bxJEy147GF6nmtpRUG01YAsA4xXuzW4sUA+ExD/VrCkR/naSuoCiTYDkNEQtorVlNNLb5hdr+EcaD6hxeJXEV3qZSwKChZdG4r8jPh4k97f3oXLftzc5iXujE8xrYmshzFE2Uz0Dw2//jnteMffGPZhALO6ZjX7e74vw6we8JVI03Ai703ulYauDlpljhuoeerIL5qejoBRxdVhn5N17zjaVfRj1P4smjzWV2kXI58EU8vbOO61HaqrvOfM8c51mtdcpNQRq7iTzHqzScveIEcLteOESzgtTozbNp6CBwat4rl+JlF9Bn1Mq16NEMk8c26t0sjucP/Hcl2ae+pcTKgdrC1oBc0FQ6HCkUa/+nEXRg49fpLNzkCgYk0QKW5MgQfcE4Ys8oBBPe8YlPnBhDjPq+ND6i2CAGGszSNSmM5rk+TRmzbO02zobOkW8AsJ/oY8taLM1HOGA6O72RCfQyLbf9VUHQHhHniZjNNZS7j4N/24g3fahfl1deA8E/HYfssetg/uoInxeFcnldvJR2xr4MLwewC+lPI6qYrYzxxEMfLC3ezAesBvxXmGmReLnSqp8YVs7mwvSrAYnF8GgLuLgVZ1q7BxXc0ledc9y/BeS699Ortt54Tl/DIUu6Pn6l9I8dWGau2F0pEmV+ZXW8CyDw/LRv1ut2EAuvIfXXYNNAE/8RDWs7Wn63bwIpTW97vcrUIe6X3YBdxxjet6TzWkYkF+WDoT3LnnWHvcBt+NgM9GC4P+pPnwwim6z2j6YI9Czmej/TL7IvSy2FEERMd11+203nOepcxOL0+6BgrEpMsSdeNZ/mzA86xspLORJKYiQawBxqfMhNJO6xgCV9VV5rJIRvGvjxPcE2oyVaX68pfKdL5xUZw32J/nTK9S8xu8EhNHVsjrw6RM9AL0E+IRzbmf3+ITKmF8rQC2FnnkRGrijksONzNCyGXZLQMnOtjW/ipua6CH0Akh2TBdUBb9UM1iHBs+CE6JaRX1jBY30dSpZw4XkCF9JvWPjKmQQXI5b0L2Sz8xocJIw6YE1ZJInHKHingEwDhipQliDCoCWe3n8foX6XCqD33LN4mMQFjDmXdc9t8nM87b78iwN7g/zrRAC+06gi6MfF2hac8w1Wh38tQnqe8nVwCt0QJgdrgfnA5/ayoclQMhQWU+osxuwpjvPOsDKG4SHbZEggi2zc2kvU22T23c7NZallNuNWSfPsNI/g/AgqBHHnu1p/NWcn1J2T1WNX59W6eHzO+rMpoCi//Zq1d68iF8t9RQntWHfWe1Cg3NlWkulTy6Ypzu2Pq1xJVXIR9o3b5GWT04TnVV0Zk6/0uWa1o2M6ViuS6fm9+ktdz+p/XM71d0q6b5la1Ts7tCmA4eUJq9jXV2aNz2lQ33dmlsc1uBwQs8u7ta8UeqXSus4Zb3uyR3a0Z9GcRK0IaN9Sxfo+cGG1i8uaO8/iR+sUeeah8zm85nXnvFQ5zhs9H0Ef2VOFSHXgmTYr8LAqLw+pdoCzLhDJ899ss+CQe7/tQa1e7DMXAgefqO1Jo0BE+f8xlIDbx/b34U/88Wiz7G12QDJ503Q+hyQMpamRaza8JvajlXC4IiHFx3W+fV13nmgSSTQGEDTvSMQ51t8EoRLpU053E2cdqZU9aZtCyJ+48fmUz6gLv14Vq0/3Kfa9kk1SgAI18LCbmmbSYnXLVJzE5pGqqFlXpGxpDKhm7cf1aajo3ps9WL1lsbVe7qkBFp9YOEC9ZSntPT46bAJ+tzJKS0bH9OaPRPatnYRuK6ElqfVyNR0NturGnHz2lPD6js3rrlTw2GeeHIa85iO1Ok9OxGaIgL55n2H9OS8OTpNFLT63Bk1iYRGe7s11dERaBzo3gm4SY5iLGlLZiehyVN1JZHyhF+ruquq7FMlGt5UxuYErW0CarwE0zM+6n344qf8mtgS6LocMI1BkReDh5jVTLbVREusid71Pe5tFjxY4A5+9xXz8bW4lzBwXwNz5N8BiaN4Dr/az/Pxstb9daUpM7mtqsy2gvyOhvSOsrJ8/H5ivzQ6u51rO+rqpB1JBCB1DOt0zIVAoK0VZZ/g+rNVJbxF4hNlmFrkHG32fh5YpNK3R1Ufn2wLnAWWNPv9UonWqOtMUWcAiHv7AC8oztyRgnYOzdGeBZ7hCY0x+2mEeujYFDTHBWKFDvbj7mjnytNjGhyd0vwzVaxemzXPDWRU6EHA3dMG8Eu3ChpPp7Vn+YDmnC1o0bkxnc23rd/SM8PKFhNaea6KaTfBqa9NtNcm9RxcrbFSDxKPpHuHGVISEGJTV3H3Jckz/6tDMOcc5nOaC9zXsPmF9h7eo/WBKYkjnjEwQwwqjkLM+GBLP5pLRb0thF+n3kh5TJlrHYQGmNAgDG3VDXob4unwFM9QjvNsENY00FzXEm/KN/cETQ8SoTSgsBxe5GgU1q574hjAbDZvTEHVAxUkDzREx0r44xxlI2Sh7Egd356vwu1f4Lhd/oVp1gen/nizGq9b2K4Hv52vdyCCqlSFtiQAasHPtQFfcE8ejLHb4anQApslJw//1U03rtia2SKEJpGn77HV9HPu4LE1dHnkFWhqWYgT0jpv07KJchjEcRxbtHRVa2T4rDa9aZOe3LFdmy/ZrKeffponeBBiXrr5Uu3atUu33nqrHn30OxoeGVFKA+pvbmnT1HmnK9p0+3M6daBXZ3Yt4ExMHQvPaerEAEf4aP6y/QCAkY7gM1P8rjrQ5Gq6j7BhvMNvpCUFMoRKD8ce5N6iOvKOd9zomIaGhnT48GEtW75cO3fuDO1ftWq1+vv7Q91CcrUdl8frmjt3SGfOHNPixUt07PgxGt4m5uC8rApTNV1/y6AeuvecCsT3SXDDLbfN11NPjOqyywf0zN1jGvYLozEXuXxCHR1Jrd3QpeNHp7V/75QWw8Q1fO4G0fsYSKlzgXHtZJq/LUrpr2Gw6TTEmWOzzJxJUVhKg5tAk+P9uKlxmGMDRgzfIgwMDZzNkOOf/0C/Hr6noTEv6Y3q8CarU4R0j9zffiHX7L0dK1coPdCvkceeUOzVr35168SJE4GBDz74oG655RZ96lOfQjgaEG+VbrvtNt11113qwslPTk4G5s/Vy3SzvkxW7Rq04jUtfs1XdOxbVyo3CCqd6NDA5kM6+u116hwaU7Oc0qJbntGBL1+hdA9xJi0uT6NhVGjxTbt0/NFlapxdHCrn1ELzvqLNsHdfqNeRI0e1ZctlELlD09PT6u7u1ic/+cmgNbfffnt4ZuvWrVq0aJH27duniy66SIcOHdLNN1PLL39ZH//4x/ULv/ALqlZxNbmEXv+mhbrri2e0zK/paWX1+HfOqbMrpRVrUlqwoF+nTo6od6BD3/7a6ZD32356sY4fqej06bKWr87qy39/Wqtg6iKEbhDG9fL9CIzu5rsv0ET6Mr8v5Z61aNsU9VzAcZGWHYTJD1vLSdHriDiI2+vP1IhWwAvuKHkF2nsW6/YYQoLlrE/U1HzAlkjacnUXip5SBRdUh0ZDCzI6N1wNG7DRdN3zTxMaHq6pd9MlGrjxaugDppqYmFA+n1ehUFBvb28gYDab1caNG5H+M5qa8ks2iBUzmRnNfnHC0DSTKp+dTwjV0rxbH1XHqqOqVQBc8bIW3vEwvw9o8kSnaoWEFrz8AeVX7dOcq55W5+rDmj7XodK4MXbbZ7w4mWHQTVnCBCPXXC4XhG82mWkHDx7Ua17zGq1cuVJXX311qLfbNTo6qiuvvFLlcjm00alUrOv4obLGxypasbJXpVJd190yR1OESUNLOjUKNpi3oEM1wq1rb5qrTC7SqovS6gR3zJmX0V1fOL8XBwZYyzGDT2LaCWIsr+qhshjG9g18n4Wh3Xz71RBO84Nut1OLiCWWhLYVwjUeTgCeEqORYgtiSiB8rU5u6phV4Xbq6IxpbNRmXzpxfDqcW7I8rXxHDEuD+pM87TaezqpnwzrFLe179+4NDHzqqafCtz/PPPMMEns6MPvAgQMawTS/MLlgmxx/0LlpQEUlq2wCv1BOqn/lfnUNnQsvwIrVUgjAHHWuOaZYBa3hrzDapXxvUYWT/erd6Cml5/NziDRLIjNtxYoV2rlrZ2Dmtm3bAoNn0WxnZ6fuuOOOoME21WbqK1/5SjRxgdavX6/7779fX/rSl56/v6snpctv6NTAnIz6Bwm5apSJn+/sTmjhkqQSyZaWeud3Az+YUy429LsfOoTgNzXpaUzuUSO5pnZAznYB1B5CQwscP8czXYHJ0tVo7zlucKh5hmsefRwN7Wyn+A5EwSNeQzUiED4rG6oNEuuSeS2Olj4NI4ntZ1NhqqXRczXcREFFAO6eZytavgYL0tfQubNYAcJdp2ahpMmdezQKTXzmfInfZ8pqsRbptRzNFm6v6Sb7t78NqDA3oZnnszeoOH/fbNGz35b79v3W5sP6LP9fsOnX/0tSnlbMhaE2xf+WFJuDVfNuB//GNEvdf0//h6bzDuHf0/edHNb9vyNJ/x9NYgRLExmJ1gAAAABJRU5ErkJggg==;" vertex="1" parent="1">
          <mxGeometry x="780" y="320" width="60" height="60" as="geometry" />
        </mxCell>
        <mxCell id="1RJ3AyyWOOnDJuZFzNRy-54" value="" style="rounded=1;whiteSpace=wrap;html=1;strokeColor=#000099;" vertex="1" parent="1">
          <mxGeometry x="850" y="400" width="450" height="130" as="geometry" />
        </mxCell>
        <mxCell id="1RJ3AyyWOOnDJuZFzNRy-55" value="" style="rounded=1;whiteSpace=wrap;html=1;strokeColor=#CC0000;" vertex="1" parent="1">
          <mxGeometry x="850" y="560" width="450" height="130" as="geometry" />
        </mxCell>
        <mxCell id="1RJ3AyyWOOnDJuZFzNRy-56" value="" style="rounded=1;whiteSpace=wrap;html=1;strokeColor=#FF0000;" vertex="1" parent="1">
          <mxGeometry x="850" y="720" width="450" height="130" as="geometry" />
        </mxCell>
        <mxCell id="1RJ3AyyWOOnDJuZFzNRy-57" value="&lt;font style=&quot;font-size: 18px;&quot;&gt;&lt;b&gt;Apply&lt;/b&gt;&lt;/font&gt;" style="rounded=1;whiteSpace=wrap;html=1;strokeColor=#006600;" vertex="1" parent="1">
          <mxGeometry x="850" y="870" width="80" height="40" as="geometry" />
        </mxCell>
      </root>
    </mxGraphModel>
  </diagram>
</mxfile>
